<?xml version="1.0" standalone="no"?>
<!DOCTYPE svg PUBLIC "-//W3C//DTD SVG 1.1//EN" "http://www.w3.org/Graphics/SVG/1.1/DTD/svg11.dtd" >
<svg xmlns="http://www.w3.org/2000/svg" xmlns:xlink="http://www.w3.org/1999/xlink" version="1.1">
<metadata>
Created by FontForge 20201107 at Fri Nov  7 17:22:16 2025
 By 
Copyright 2015 Google LLC. All Rights Reserved.
</metadata>
<defs>
<font id="GoogleSansFlex-Regular" horiz-adv-x="0" >
  <font-face 
    font-family="Google Sans Flex"
    font-weight="400"
    font-stretch="normal"
    units-per-em="2000"
    panose-1="2 11 5 3 3 5 2 4 2 4"
    ascent="1600"
    descent="-400"
    x-height="1020"
    cap-height="1432"
    bbox="-458 -605 6568 2200"
    underline-thickness="168"
    underline-position="-404"
    unicode-range="U+000D-1D6E1"
  />
<missing-glyph horiz-adv-x="1140" 
d="M144 0v1432h852v-1432h-852zM272 120h596v1192h-596v-1192z" />
    <glyph glyph-name="f_f" unicode="ff" horiz-adv-x="1413" 
d="M244 0v0v0v1145q0 142 92 230t234 88q40 0 69.5 -4t55 -10l25.5 -6v0v-159v0l-26.5 6.5t-55 10.5t-62.5 4q-70 0 -116 -44t-46 -124v-152v-39v-946v0v0h-170zM899 0v0v0v1145q0 142 92 230t234 88q40 0 69.5 -4t55 -10l25.5 -6v0v-159v0l-26.5 6.5t-55 10.5t-62.5 4
q-70 0 -116 -44t-46 -124v-152v-39v-946v0v0h-170zM56 866v0v0v154v0v0h273v-154h-273zM984 866v154h347v0v0v-154v0v0h-347zM326 866v154h658v-154h-658z" />
    <glyph glyph-name="f_i" unicode="fi" horiz-adv-x="1210" 
d="M244 0v0v0v1145q0 142 92 230t234 88q40 0 69.5 -4t55 -10l25.5 -6v0v-159v0l-26.5 6.5t-55 10.5t-62.5 4q-70 0 -116 -44t-46 -124v-152v-39v-946v0v0h-170zM984 1232q-47 0 -81 34t-34 81q0 49 34 81t81 32q49 0 81 -32t32 -81q0 -47 -32 -81t-81 -34zM56 866v0v0v154
v0v0h273v-154h-273zM329 866v154h655v-154h-655zM899 0v0v0v1020v0v0h170v0v0v-1020v0v0h-170z" />
    <glyph glyph-name="f_l" unicode="fl" horiz-adv-x="1180" 
d="M244 0v0v0v1108q0 148 95 236t245 88h385v-154h-385q-72 0 -121 -44t-49 -130v-1104v0v0h-170zM56 866v0v0v154v0v0h273v-154h-273zM324 866v154h347v0v0v-154v0v0h-347zM884 0v0v0v1432v0v0h170v0v0v-1432v0v0h-170z" />
    <glyph glyph-name="f_f_i" unicode="ffi" horiz-adv-x="1865" 
d="M244 0v0v0v1145q0 142 92 230t234 88q40 0 69.5 -4t55 -10l25.5 -6v0v-159v0l-26.5 6.5t-55 10.5t-62.5 4q-70 0 -116 -44t-46 -124v-152v-39v-946v0v0h-170zM899 0v0v0v1145q0 142 92 230t234 88q40 0 69.5 -4t55 -10l25.5 -6v0v-159v0l-26.5 6.5t-55 10.5t-62.5 4
q-70 0 -116 -44t-46 -124v-152v-39v-946v0v0h-170zM1639 1232q-47 0 -81 34t-34 81q0 49 34 81t81 32q49 0 81 -32t32 -81q0 -47 -32 -81t-81 -34zM56 866v0v0v154v0v0h273v-154h-273zM269 866v154h1370v-154h-1370zM1554 0v0v0v1020v0v0h170v0v0v-1020v0v0h-170z" />
    <glyph glyph-name="f_f_l" unicode="ffl" horiz-adv-x="1835" 
d="M244 0v0v0v1145q0 142 92 230t234 88q40 0 69.5 -4t55 -10l25.5 -6v0v-159v0l-26.5 6.5t-55 10.5t-62.5 4q-70 0 -116 -44t-46 -124v-152v-39v-946v0v0h-170zM899 0v0v0v1108q0 148 95 236t245 88h385v-154h-385q-72 0 -121 -44t-49 -130v-1104v0v0h-170zM1539 0v0v0
v1432v0v0h170v0v0v-1432v0v0h-170zM56 866v0v0v154v0v0h273v-154h-273zM984 866v154h347v0v0v-154v0v0h-347zM326 866v154h658v-154h-658z" />
    <glyph glyph-name="f_b" unicode="fb" horiz-adv-x="1962" 
d="M244 0v0v0v1108q0 148 95 236t245 88h385v-154h-385q-72 0 -121 -44t-49 -130v-1104v0v0h-170zM56 866v0v0v154v0v0h273v-154h-273zM324 866v154h347v0v0v-154v0v0h-347zM1402 -32q-110 0 -206 51t-144 131h-46l40 50v-200v0v0h-162v0v0v1432v0v0h170v0v0v-564h6
q48 82 140 133t202 51q208 0 348 -150.5t140 -388.5v0q0 -237 -139 -391t-349 -154zM1384 122q142 0 239 110t97 281v0q0 171 -98 278t-238 107t-239 -106.5t-99 -277.5v0q0 -172 98 -282t240 -110z" />
    <glyph glyph-name="f_f_b" unicode="ffb" horiz-adv-x="2617" 
d="M244 0v0v0v1145q0 142 92 230t234 88q40 0 69.5 -4t55 -10l25.5 -6v0v-159v0l-26.5 6.5t-55 10.5t-62.5 4q-70 0 -116 -44t-46 -124v-152v-39v-946v0v0h-170zM902 0v0v0v1108q0 148 95 236t245 88h385v-154h-385q-72 0 -121 -44t-49 -130v-1104v0v0h-170zM2057 -32
q-110 0 -206 51t-144 131h-46l40 50v-200v0v0h-162v0v0v1432v0v0h170v0v0v-564h6q48 82 140 133t202 51q208 0 348 -150.5t140 -388.5v0q0 -237 -139 -391t-349 -154zM2039 122q142 0 239 110t97 281v0q0 171 -98 278t-238 107t-239 -106.5t-99 -277.5v0q0 -172 98 -282
t240 -110zM56 866v0v0v154v0v0h273v-154h-273zM984 866v154h347v0v0v-154v0v0h-347zM326 866v154h658v-154h-658z" />
    <glyph glyph-name="f_f_h" unicode="ffh" horiz-adv-x="2535" 
d="M244 0v0v0v1145q0 142 92 230t234 88q40 0 69.5 -4t55 -10l25.5 -6v0v-159v0l-26.5 6.5t-55 10.5t-62.5 4q-70 0 -116 -44t-46 -124v-152v-39v-946v0v0h-170zM899 0v0v0v1108q0 148 95 236t245 88h385v-154h-385q-72 0 -121 -44t-49 -130v-1104v0v0h-170zM1539 0v0v0
v1432v0v0h170v0v0v-562h6q44 80 132 131t192 51q181 0 279.5 -106t98.5 -292v-654v0v0h-170v0v0v628q0 130 -64.5 200t-183.5 70q-118 0 -204 -100t-86 -230v-568v0v0h-170zM56 866v0v0v154v0v0h273v-154h-273zM984 866v154h347v0v0v-154v0v0h-347zM326 866v154h658v-154
h-658z" />
    <glyph glyph-name="f_f_j" unicode="ffj" horiz-adv-x="1865" 
d="M244 0v0v0v1145q0 142 92 230t234 88q40 0 69.5 -4t55 -10l25.5 -6v0v-159v0l-26.5 6.5t-55 10.5t-62.5 4q-70 0 -116 -44t-46 -124v-152v-39v-946v0v0h-170zM899 0v0v0v1145q0 142 92 230t234 88q40 0 69.5 -4t55 -10l25.5 -6v0v-159v0l-26.5 6.5t-55 10.5t-62.5 4
q-70 0 -116 -44t-46 -124v-152v-39v-946v0v0h-170zM1398 -464q-23 0 -43.5 1t-40.5 4t-43 8.5l-23 5.5v0v158v0l23 -6.5t39.5 -9.5t36.5 -5t37 -2q80 0 125 45.5t45 126.5v1158v0v0h170v0v0v-1167q0 -140 -91 -228.5t-235 -88.5zM1641 1232q-47 0 -81 34t-34 81q0 49 34 81
t81 32q49 0 81 -32t32 -81q0 -47 -32 -81t-81 -34zM56 866v0v0v154v0v0h273v-154h-273zM269 866v154h1370v-154h-1370z" />
    <glyph glyph-name="f_f_k" unicode="ffk" horiz-adv-x="2423" 
d="M244 0v0v0v1145q0 142 92 230t234 88q40 0 69.5 -4t55 -10l25.5 -6v0v-159v0l-26.5 6.5t-55 10.5t-62.5 4q-70 0 -116 -44t-46 -124v-152v-39v-946v0v0h-170zM899 0v0v0v1108q0 148 95 236t245 88h385v-154h-385q-72 0 -121 -44t-49 -130v-1104v0v0h-170zM1603 208v218
l584 594v0v0h224v0v0zM1539 0v0v0v1432v0v0h170v0v0v-1432v0v0h-170zM2213 0v0v0l-368 548l120 118l465 -666v0v0h-217zM56 866v0v0v154v0v0h273v-154h-273zM984 866v154h347v0v0v-154v0v0h-347zM326 866v154h658v-154h-658z" />
    <glyph glyph-name="f_f_t" unicode="fft" horiz-adv-x="2040" 
d="M244 0v0v0v1145q0 142 92 230t234 88q40 0 69.5 -4t55 -10l25.5 -6v0v-159v0l-26.5 6.5t-55 10.5t-62.5 4q-70 0 -116 -44t-46 -124v-152v-39v-946v0v0h-170zM900 0v0v0v1145q0 142 92 230t234 88q40 0 69.5 -4t55 -10l25.5 -6v0v-159v0l-26.5 6.5t-55 10.5t-62.5 4
q-70 0 -116 -44t-46 -124v-152v-39v-946v0v0h-170zM1820 -32q-123 0 -199.5 76.5t-76.5 206.5v1057v0v0h170v0v0v-1015q0 -86 34 -127t101 -41q16 0 36 3.5t51.5 13.5l31.5 10v0v-158v0l-27.5 -8.5t-55.5 -13t-65 -4.5zM56 866v0v0v154v0v0h273v-154h-273zM269 866v154h1370
v-154h-1370zM1617 866v154h347v0v0v-154v0v0h-347z" />
    <glyph glyph-name="f_h" unicode="fh" horiz-adv-x="1880" 
d="M244 0v0v0v1108q0 148 95 236t245 88h385v-154h-385q-72 0 -121 -44t-49 -130v-1104v0v0h-170zM56 866v0v0v154v0v0h273v-154h-273zM324 866v154h347v0v0v-154v0v0h-347zM884 0v0v0v1432v0v0h170v0v0v-562h6q44 80 132 131t192 51q181 0 279.5 -106t98.5 -292v-654v0v0
h-170v0v0v628q0 130 -64.5 200t-183.5 70q-118 0 -204 -100t-86 -230v-568v0v0h-170z" />
    <glyph glyph-name="f_j" unicode="fj" horiz-adv-x="1210" 
d="M244 0v0v0v1145q0 142 92 230t234 88q40 0 69.5 -4t55 -10l25.5 -6v0v-159v0l-26.5 6.5t-55 10.5t-62.5 4q-70 0 -116 -44t-46 -124v-152v-39v-946v0v0h-170zM986 1232q-47 0 -81 34t-34 81q0 49 34 81t81 32q49 0 81 -32t32 -81q0 -47 -32 -81t-81 -34zM743 -464
q-23 0 -43.5 1t-40.5 4t-43 8.5l-23 5.5v0v158v0l23 -6.5t39.5 -9.5t36.5 -5t37 -2q80 0 125 45.5t45 126.5v1158v0v0h170v0v0v-1167q0 -140 -91 -228.5t-235 -88.5zM56 866v0v0v154v0v0h273v-154h-273zM329 866v154h655v-154h-655z" />
    <glyph glyph-name="f_k" unicode="fk" horiz-adv-x="1768" 
d="M244 0v0v0v1108q0 148 95 236t245 88h385v-154h-385q-72 0 -121 -44t-49 -130v-1104v0v0h-170zM56 866v0v0v154v0v0h273v-154h-273zM324 866v154h347v0v0v-154v0v0h-347zM948 208v218l584 594v0v0h224v0v0zM884 0v0v0v1432v0v0h170v0v0v-1432v0v0h-170zM1558 0v0v0
l-368 548l120 118l465 -666v0v0h-217z" />
    <glyph glyph-name="f_t" unicode="ft" horiz-adv-x="1385" 
d="M246 0v0v0v1145q0 142 92 230t234 88q40 0 69.5 -4t55 -10l25.5 -6v0v-159v0l-26.5 6.5t-55 10.5t-62.5 4q-70 0 -116 -44t-46 -124v-152v-39v-946v0v0h-170zM1153 -32q-123 0 -199.5 76.5t-76.5 206.5v1057v0v0h170v0v0v-1015q0 -86 34 -127t101 -41q16 0 36 3.5
t51.5 13.5l31.5 10v0v-158v0l-27.5 -8.5t-55.5 -13t-65 -4.5zM56 866v0v0v154v0v0h273v-154h-273zM962 866v154h347v0v0v-154v0v0h-347zM326 866v154h658v-154h-658z" />
    <glyph glyph-name="t_f" unicode="tf" horiz-adv-x="1383" 
d="M510 -32q-123 0 -199.5 76.5t-76.5 206.5v1057v0v0h170v0v0v-1015q0 -86 34 -127t101 -41q16 0 36 3.5t51.5 13.5l31.5 10v0v-158v0l-27.5 -8.5t-55.5 -13t-65 -4.5zM869 0v0v0v1145q0 142 92 230t234 88q40 0 69.5 -4t55 -10l25.5 -6v0v-159v0l-26.5 6.5t-55 10.5
t-62.5 4q-70 0 -116 -44t-46 -124v-152v-39v-946v0v0h-170zM56 866v0v0v154v0v0h273v-154h-273zM954 866v154h347v0v0v-154v0v0h-347zM319 866v154h635v-154h-635z" />
    <glyph glyph-name="t_t" unicode="tt" horiz-adv-x="1355" 
d="M510 -32q-123 0 -199.5 76.5t-76.5 206.5v1057v0v0h170v0v0v-1015q0 -86 34 -127t101 -41q16 0 36 3.5t51.5 13.5l31.5 10v0v-158v0l-27.5 -8.5t-55.5 -13t-65 -4.5zM1135 -32q-123 0 -199.5 76.5t-76.5 206.5v1057v0v0h170v0v0v-1015q0 -86 34 -127t101 -41q16 0 36 3.5
t51.5 13.5l31.5 10v0v-158v0l-27.5 -8.5t-55.5 -13t-65 -4.5zM56 866v0v0v154v0v0h273v-154h-273zM932 866v154h347v0v0v-154v0v0h-347zM319 866v154h635v-154h-635z" />
    <glyph glyph-name=".notdef" horiz-adv-x="1140" 
d="M144 0v1432h852v-1432h-852zM272 120h596v1192h-596v-1192z" />
    <glyph glyph-name=".null" 
 />
    <glyph glyph-name="uni000D" unicode="&#xd;" horiz-adv-x="450" 
 />
    <glyph glyph-name="space" unicode=" " horiz-adv-x="450" 
 />
    <glyph glyph-name="exclam" unicode="!" horiz-adv-x="656" 
d="M260 414v0v0l-16 1018v0v0h168v0v0l-18 -1018v0v0h-134zM328 -19q-53 0 -88.5 36t-35.5 88q0 51 35.5 87t88.5 36t88.5 -36t35.5 -87q0 -52 -35.5 -88t-88.5 -36z" />
    <glyph glyph-name="quotedbl" unicode="&#x22;" horiz-adv-x="646" 
d="M103 930v0v0v502v0v0h154v0v0v-502v0v0h-154zM389 930v0v0v502v0v0h154v0v0v-502v0v0h-154z" />
    <glyph glyph-name="numbersign" unicode="#" horiz-adv-x="1282" 
d="M680 0v0v0l203 1432v0v0h150v0v0l-204 -1432v0v0h-149zM247 0v0v0l204 1432v0v0h150v0v0l-204 -1432v0v0h-150zM61 412v0v0l24 140v0v0h1076v0v0l-22 -140v0v0h-1078zM123 852v0v0l22 140v0v0h1076v0v0l-22 -140v0v0h-1076z" />
    <glyph glyph-name="dollar" unicode="$" horiz-adv-x="1204" 
d="M598 0q-131 0 -222 39t-154.5 109.5t-92.5 146.5l-29 76v0l156 64v0l25.5 -63.5t69 -114.5t105.5 -78.5t149 -27.5q140 0 215.5 68t75.5 170v0q0 98 -68 157.5t-235 111.5q-274 85 -357.5 183.5t-83.5 230.5v0q0 151 118.5 255.5t318.5 104.5q110 0 186.5 -26t136 -76.5
t89 -99l29.5 -48.5v0l-136 -84v0l-21 33.5t-61 71.5t-91.5 57.5t-130.5 19.5q-132 0 -202.5 -56t-70.5 -141v0q0 -92 68.5 -153.5t244.5 -111.5q228 -65 330 -169.5t102 -250.5v0q0 -186 -126 -292t-338 -106zM533 729v869v0v0h136v0v0v-869h-136zM533 -166v0v0v895h136
v-895v0v0h-136z" />
    <glyph glyph-name="percent" unicode="%" horiz-adv-x="1660" 
d="M398 780q-140 0 -240 101t-100 241v0q0 142 101 242t239 100t239 -100t101 -242v0q0 -140 -100 -241t-240 -101zM398 920q82 0 135 58t53 144v0q0 90 -54 146t-134 56q-78 0 -133 -57.5t-55 -144.5v0q0 -77 54 -139.5t134 -62.5zM289 39v0v0l962 1436v0v0l120 -82v0v0
l-961 -1434v0v0zM1262 -32q-140 0 -240 101t-100 241v0q0 142 101 242t239 100t239 -100t101 -242v0q0 -140 -100 -241t-240 -101zM1262 108q82 0 135 58t53 144v0q0 90 -54 146t-134 56q-78 0 -133 -57.5t-55 -144.5v0q0 -77 54 -139.5t134 -62.5z" />
    <glyph glyph-name="ampersand" unicode="&#x26;" horiz-adv-x="1256" 
d="M1091 -32v0v0l-724 928q-56 74 -80 131t-24 118v0q0 144 93.5 231.5t246.5 87.5q77 0 133.5 -24.5t99 -70t64 -96.5l21.5 -51v0l-146 -78v0l-14.5 34.5t-36.5 63.5t-51.5 44.5t-69.5 15.5q-74 0 -122 -40.5t-48 -120.5v0q0 -39 13.5 -75.5t37.5 -66.5l735 -935v0v0z
M600 -32q-240 0 -371.5 132t-131.5 352v0q0 163 97 290.5t251 180.5l92 -121q-126 -38 -197 -130t-71 -219v0q0 -145 90.5 -236t248.5 -91q111 0 194.5 47.5t147.5 135t101.5 184l37.5 96.5v0l146 -64v0l-52 -121.5t-136.5 -222.5t-196 -157t-250.5 -56z" />
    <glyph glyph-name="quotesingle" unicode="'" horiz-adv-x="360" 
d="M103 930v0v0v502v0v0h154v0v0v-502v0v0h-154z" />
    <glyph glyph-name="parenleft" unicode="(" horiz-adv-x="656" 
d="M296 667q0 -136 30.5 -265.5t89 -252.5t129 -225l70.5 -102v0l-131 -92v0l-78 110t-144 248t-100.5 283t-34.5 296t34.5 296t100.5 283t144 248l78 110v0l131 -92v0l-70.5 -102t-129 -225t-89 -252.5t-30.5 -265.5z" />
    <glyph glyph-name="parenright" unicode=")" horiz-adv-x="656" 
d="M360 667q0 136 -30.5 265.5t-89 252.5t-129 225l-70.5 102v0l131 92v0l78 -110t144 -248t100.5 -283t34.5 -296t-34.5 -296t-100.5 -283t-144 -248l-78 -110v0l-131 92v0l70.5 102t129 225t89 252.5t30.5 265.5z" />
    <glyph glyph-name="asterisk" unicode="*" horiz-adv-x="854" 
d="M146 859v0v0l168 214l-5 14l-242 72v0v0l47 142v0v0l238 -94l8 10l-6 255v0v0h146v0v0l-6 -255l9 -10l237 94v0v0l47 -141v0v0l-241 -73l-7 -11l168 -216v0v0l-118 -88v0v0l-156 226h-13l-155 -226v0v0z" />
    <glyph glyph-name="plus" unicode="+" horiz-adv-x="1116" 
d="M478 175v0v0v890v0v0h160v0v0v-890v0v0h-160zM123 543v0v0v154v0v0h870v0v0v-154v0v0h-870z" />
    <glyph glyph-name="comma" unicode="," horiz-adv-x="476" 
d="M90 -162l114 162q-40 8 -67 40t-27 76q0 52 37 89t91 37t91 -37t37 -89q0 -28 -12 -58t-44 -78l-133 -200v0z" />
    <glyph glyph-name="hyphen" unicode="-" horiz-adv-x="675" 
d="M44 590v0v0v140v0v0h587v0v0v-140v0v0h-587z" />
    <glyph glyph-name="period" unicode="." horiz-adv-x="476" 
d="M238 -12q-54 0 -91 37t-37 91q0 52 37 89t91 37t91 -37t37 -89q0 -54 -37 -91t-91 -37z" />
    <glyph glyph-name="slash" unicode="/" horiz-adv-x="600" 
d="M4 0v0v0l438 1432v0v0h154v0v0l-436 -1432v0v0h-156z" />
    <glyph glyph-name="zero" unicode="0" horiz-adv-x="1290" 
d="M643 -32q-248 0 -395.5 208.5t-147.5 540.5v0q0 331 147.5 539t395.5 208q250 0 398.5 -208t148.5 -539v0q0 -332 -148.5 -540.5t-398.5 -208.5zM644 130q178 0 276 158.5t98 428.5v0q0 270 -98 427.5t-276 157.5q-177 0 -274.5 -157.5t-97.5 -427.5v0
q0 -270 97.5 -428.5t274.5 -158.5z" />
    <glyph glyph-name="one" unicode="1" horiz-adv-x="735" 
d="M393 0v0v0v1195l-240 -173v0v0l-88 131v0v0l390 279v0v0h108v0v0v-1432v0v0h-170z" />
    <glyph glyph-name="two" unicode="2" horiz-adv-x="1052" 
d="M90 0v0v0v170v0v0l494 542q97 107 139.5 189.5t42.5 162.5v0q0 108 -67.5 173t-180.5 65q-60 0 -101 -16t-78 -50t-65 -84l-28 -50v0l-153 63v0l33.5 70t87.5 119.5t126.5 79.5t182.5 30q182 0 300.5 -112t118.5 -286v0q0 -110 -57 -223.5t-177 -240.5l-408 -434l3 -6
h651v0v0v-162v0v0h-864z" />
    <glyph glyph-name="three" unicode="3" horiz-adv-x="1070" 
d="M527 -32q-110 0 -190 37.5t-139 105.5t-89.5 141.5l-30.5 73.5v0l156 68v0l22.5 -54t62 -104.5t91.5 -78t125 -27.5q122 0 197.5 81t75.5 191v0q0 129 -85.5 198.5t-206.5 69.5h-118v0v0v160v0v0h106q113 0 185.5 66.5t72.5 175.5v0q0 102 -66 166t-177 64
q-57 0 -101 -20.5t-76.5 -57.5t-55 -80.5l-22.5 -43.5v0l-156 70v0l31 62.5t86.5 117.5t129 84.5t170.5 29.5q190 0 299.5 -104.5t109.5 -275.5v0q0 -120 -52 -203t-146 -118v-7q116 -46 180 -139t64 -223v0q0 -182 -130 -304t-323 -122z" />
    <glyph glyph-name="four" unicode="4" horiz-adv-x="1186" 
d="M756 0v0v0v378v56v823l86 -85h-92l-475 -696h545h54h216v0v0v-160v0v0h-1010v0v0v129v0v0l667 987v0v0h179v0v0v-1432v0v0h-170z" />
    <glyph glyph-name="five" unicode="5" horiz-adv-x="1126" 
d="M561 -32q-116 0 -202 40t-147 110.5t-91.5 149l-30.5 78.5v0l154 61v0l21 -54t61 -109.5t97 -84.5t141 -29q128 0 212 87t84 225v0q0 133 -83 217.5t-216 84.5q-72 0 -132.5 -23.5t-124.5 -103.5v0v0l-173 67v0v0l95 748v0v0h714v0v0v-162v0v0h-576l-58 -458l7 -2
q54 46 123.5 70t156.5 24q187 0 313 -132.5t126 -333.5v0q0 -196 -133.5 -333t-337.5 -137z" />
    <glyph glyph-name="six" unicode="6" horiz-adv-x="1114" 
d="M569 -32q-210 0 -344.5 135.5t-134.5 344.5v0q0 137 70.5 270.5t171.5 276.5l333 470v0v0l136 -94v0v0l-384 -537q-38 -53 -126 -139.5t-116 -250.5l-74 6q44 211 197.5 328.5t316.5 117.5q175 0 304 -127t129 -322v0q0 -200 -136 -339.5t-343 -139.5zM572 130
q135 0 220.5 86.5t85.5 222.5v0q0 130 -86 216.5t-219 86.5q-134 0 -223.5 -86.5t-89.5 -217.5v0q0 -134 88 -221t224 -87z" />
    <glyph glyph-name="seven" unicode="7" horiz-adv-x="991" 
d="M119 46v0v0l649 1218l-2 6h-711v0v0v162v0v0h891v0v0v-173l-9 -18l-666 -1273v0v0z" />
    <glyph glyph-name="eight" unicode="8" horiz-adv-x="1102" 
d="M551 -32q-202 0 -332 119t-130 303v0q0 126 62 219.5t175 142.5v6q-84 50 -136 125.5t-52 180.5v0q0 175 116 287t297 112q182 0 297.5 -112t115.5 -287v0q0 -105 -56.5 -185.5t-133.5 -120.5v-6q113 -49 176 -143.5t63 -220.5v0q0 -184 -130 -302t-332 -118zM551 130
q127 0 208.5 73.5t81.5 190.5v0q0 120 -80 198.5t-210 78.5q-124 0 -207 -74.5t-83 -195.5v0q0 -117 81.5 -194t208.5 -77zM551 826q106 0 174 68t68 174v0q0 102 -68 167.5t-174 65.5t-174 -65.5t-68 -167.5v0q0 -106 68 -174t174 -68z" />
    <glyph glyph-name="nine" unicode="9" horiz-adv-x="1114" 
d="M545 1464q210 0 344.5 -135.5t134.5 -344.5v0q0 -137 -70.5 -270.5t-171.5 -276.5l-333 -470v0v0l-136 94v0v0l384 537q38 53 126 139.5t116 250.5l74 -6q-44 -211 -197.5 -328.5t-316.5 -117.5q-175 0 -304 127t-129 322v0q0 200 136 339.5t343 139.5zM542 1302
q-135 0 -220.5 -86.5t-85.5 -222.5v0q0 -130 86 -216.5t219 -86.5q134 0 223.5 86.5t89.5 217.5v0q0 134 -88 221t-224 87z" />
    <glyph glyph-name="colon" unicode=":" horiz-adv-x="476" 
d="M238 766q-54 0 -91 37t-37 91q0 52 37 89t91 37t91 -37t37 -89q0 -54 -37 -91t-91 -37zM238 -12q-54 0 -91 37t-37 91q0 52 37 89t91 37t91 -37t37 -89q0 -54 -37 -91t-91 -37z" />
    <glyph glyph-name="semicolon" unicode=";" horiz-adv-x="476" 
d="M261 766q-54 0 -91 37t-37 91q0 52 37 89t91 37t91 -37t37 -89q0 -54 -37 -91t-91 -37zM90 -162l114 162q-40 8 -67 40t-27 76q0 52 37 89t91 37t91 -37t37 -89q0 -28 -12 -58t-44 -78l-133 -200v0z" />
    <glyph glyph-name="less" unicode="&#x3c;" horiz-adv-x="1116" 
d="M972 190l-846 368v0v0v124v0v0l846 369v0v0v-155v0v0l-664 -272v-8l664 -268v0v0v-158v0v0z" />
    <glyph glyph-name="equal" unicode="=" horiz-adv-x="1116" 
d="M123 733v0v0v154v0v0h870v0v0v-154v0v0h-870zM123 353v0v0v154v0v0h870v0v0v-154v0v0h-870z" />
    <glyph glyph-name="greater" unicode="&#x3e;" horiz-adv-x="1116" 
d="M144 1050l846 -368v0v0v-124v0v0l-846 -369v0v0v155v0v0l664 272v8l-664 268v0v0v158v0v0z" />
    <glyph glyph-name="question" unicode="?" horiz-adv-x="956" 
d="M391 433v0v0v96q0 100 34.5 165t129.5 156q93 87 118 134t25 105v0q0 99 -56 153.5t-158 54.5q-47 0 -87 -14t-76.5 -51t-58.5 -82.5l-22 -45.5v0l-162 66v0l27 59t84.5 118t135 89t159.5 30q177 0 286 -104.5t109 -272.5v0q0 -85 -41.5 -164t-149.5 -180
q-67 -62 -93.5 -109.5t-26.5 -117.5v-85v0v0h-177zM488 -13q-63 0 -107 44t-44 108q0 61 44 104t107 43t107.5 -43t44.5 -104q0 -64 -44.5 -108t-107.5 -44z" />
    <glyph glyph-name="at" unicode="@" horiz-adv-x="1768" 
d="M862 -164q-331 0 -543.5 217t-212.5 555q0 328 218 550t565 222t560 -213t213 -569q0 -172 -79 -285t-217 -113q-72 0 -131 40.5t-83 115.5q-51 -79 -131.5 -117.5t-168.5 -38.5q-166 0 -273 116.5t-107 284.5q0 182 107 298.5t273 116.5q73 0 142.5 -28.5t121.5 -91.5h6
v97v0v0h134v0v0v-504q0 -62 33 -107t89 -45q72 0 111 71.5t39 205.5q0 277 -178.5 454.5t-445.5 177.5q-284 0 -471 -185t-187 -453q0 -281 178.5 -459.5t443.5 -178.5q50 0 92.5 5.5t83 16.5t70 21.5l29.5 10.5v0l53 -124v0l-41 -14.5t-100.5 -28t-103 -17.5t-89.5 -4z
M866 329q112 0 184 79t72 196q0 129 -72 206t-184 77q-108 0 -177 -77t-69 -206q0 -117 69 -196t177 -79z" />
    <glyph glyph-name="A" unicode="A" horiz-adv-x="1340" 
d="M30 0v0v0l545 1432v0v0h195v0v0l540 -1432v0v0h-187v0v0l-392 1072l-57 172h-6l-57 -172l-397 -1072v0v0h-184zM262 394l58 160h660l58 -160h-776z" />
    <glyph glyph-name="B" unicode="B" horiz-adv-x="1211" 
d="M160 0v0v0v1432v0v0h514q169 0 289.5 -109.5t120.5 -273.5v0q0 -103 -52 -182t-144 -123v-8q109 -36 176.5 -124t67.5 -202v0q0 -176 -126 -293t-304 -117h-542zM330 162h382q104 0 176 74t72 174v0q0 101 -75 171.5t-181 70.5h-454v162h424q104 0 173 68t69 161v0
q0 93 -67.5 160t-166.5 67h-352v-1108z" />
    <glyph glyph-name="C" unicode="C" horiz-adv-x="1472" 
d="M833 -32q-316 0 -529.5 215.5t-213.5 536.5v0q0 322 214.5 533t527.5 211q105 0 201.5 -28t174.5 -78.5t119 -97.5l41 -47v0l-122 -105v0l-39.5 42.5t-95 77.5t-125 54.5t-154.5 19.5q-241 0 -405.5 -160.5t-164.5 -420.5v0q0 -260 163 -425t407 -165q87 0 163 24.5
t144 68.5t103.5 84.5l35.5 40.5v0l126 -114v0l-48 -54t-131.5 -105.5t-181.5 -79.5t-210 -28z" />
    <glyph glyph-name="D" unicode="D" horiz-adv-x="1406" 
d="M160 0v0v0v1432v0v0h432q327 0 525.5 -195.5t198.5 -517.5v0q0 -325 -198 -522t-526 -197h-432zM330 162h262q258 0 405 147t147 410v0q0 260 -147.5 405.5t-404.5 145.5h-262v-1108z" />
    <glyph glyph-name="E" unicode="E" horiz-adv-x="1102" 
d="M160 0v0v0v1432v0v0h796v0v0v-162v0v0h-626v-1108h638v0v0v-162v0v0h-808zM250 636v160h674v0v0v-160v0v0h-674z" />
    <glyph glyph-name="F" unicode="F" horiz-adv-x="1062" 
d="M160 0v0v0v1432v0v0h786v0v0v-162v0v0h-616v-1270v0v0h-170zM250 620v160h674v0v0v-160v0v0h-674z" />
    <glyph glyph-name="G" unicode="G" horiz-adv-x="1578" 
d="M832 -32q-310 5 -526 222t-216 530v0q0 315 217 529.5t525 214.5q102 0 195.5 -22t167.5 -63.5t121.5 -88l47.5 -46.5v0l-118 -121v0l-42.5 41.5t-98.5 73t-124 48t-145 16.5q-242 0 -408 -162t-166 -419v0q0 -257 166 -424t406 -167q226 0 369 125t161 349v0h-528v0v0
v158v0v0h696v0v0l2 -102q0 -306 -197 -499t-505 -193z" />
    <glyph glyph-name="H" unicode="H" horiz-adv-x="1396" 
d="M1066 0v0v0v1432v0v0h170v0v0v-1432v0v0h-170zM160 0v0v0v1432v0v0h170v0v0v-1432v0v0h-170zM260 652v162h876v-162h-876z" />
    <glyph glyph-name="I" unicode="I" horiz-adv-x="490" 
d="M160 0v0v0v1432v0v0h170v0v0v-1432v0v0h-170z" />
    <glyph glyph-name="J" unicode="J" horiz-adv-x="1060" 
d="M486 -32q-111 0 -192 38t-140 108t-83.5 136.5l-24.5 66.5v0l158 65v0l22 -53.5t56 -99.5t84.5 -72.5t123.5 -26.5q116 0 190 76t74 222v1004v0v0h170v0v0v-990q0 -220 -122 -347t-316 -127z" />
    <glyph glyph-name="K" unicode="K" horiz-adv-x="1252" 
d="M246 322v246l735 864v0v0h225v0v0l-586 -678zM160 0v0v0v1432v0v0h170v0v0v-1432v0v0h-170zM1036 0v0v0l-524 744l114 130l617 -874v0v0h-207z" />
    <glyph glyph-name="L" unicode="L" horiz-adv-x="1018" 
d="M160 0v0v0v1432v0v0h170v0v0v-1270h626v0v0v-162v0v0h-796z" />
    <glyph glyph-name="M" unicode="M" horiz-adv-x="1732" 
d="M160 0v0v0v1432v0v0h243v0v0l460 -1174h6l459 1174v0v0h244v0v0v-1432v0v0h-168v0v0v910l8 272h-6l-471 -1182v0v0h-138v0v0l-471 1182h-6l8 -272v-910v0v0h-168z" />
    <glyph glyph-name="N" unicode="N" horiz-adv-x="1416" 
d="M160 0v0v0v1432v0v0h206v0v0l722 -1140h6l-8 276v864v0v0h170v0v0v-1432v0v0h-174v0v0l-754 1194h-6l8 -276v-918v0v0h-170z" />
    <glyph glyph-name="O" unicode="O" horiz-adv-x="1648" 
d="M824 -32q-312 0 -523 217t-211 534v0q0 317 212 531t522 214q309 0 521.5 -212.5t212.5 -532.5v0q0 -317 -211 -534t-523 -217zM824 130q240 0 401 167t161 422v0q0 256 -162.5 419.5t-399.5 163.5q-238 0 -400 -164.5t-162 -418.5v0q0 -255 161 -422t401 -167z" />
    <glyph glyph-name="P" unicode="P" horiz-adv-x="1152" 
d="M160 0v0v0v1432v0v0h472q206 0 332 -128.5t126 -331.5v0q0 -201 -129 -321t-339 -120h-372v157h376q131 0 211.5 78.5t80.5 205.5v0q0 130 -77.5 214t-204.5 84h-306v-1270v0v0h-170z" />
    <glyph glyph-name="Q" unicode="Q" horiz-adv-x="1648" 
d="M824 -32q-312 0 -523 217t-211 534v0q0 317 212 531t522 214q309 0 521.5 -212.5t212.5 -532.5v0q0 -317 -211 -534t-523 -217zM824 130q240 0 401 167t161 422v0q0 256 -162.5 419.5t-399.5 163.5q-238 0 -400 -164.5t-162 -418.5v0q0 -255 161 -422t401 -167z
M1295 -128v0v0l-384 583v0v0l127 89v0v0l393 -583v0v0z" />
    <glyph glyph-name="R" unicode="R" horiz-adv-x="1172" 
d="M160 0v0v0v1432v0v0h484q183 0 313.5 -120t130.5 -304v0q0 -192 -131 -313.5t-351 -121.5h-356v160h384q116 0 199 77t83 198v0q0 110 -79.5 186t-190.5 76h-316v-1270v0v0h-170zM944 0v0v0l-432 656l186 10l453 -666v0v0h-207z" />
    <glyph glyph-name="S" unicode="S" horiz-adv-x="1101" 
d="M558 -32q-125 0 -221.5 42t-156 114.5t-90 152l-30.5 79.5v0l162 66v0l26.5 -66t70.5 -119t107.5 -81t143.5 -28q130 0 211 70t81 182v0q0 86 -61.5 153.5t-262.5 134.5q-248 83 -336 182.5t-88 237.5v0q0 158 123.5 267t315.5 109q104 0 186.5 -31.5t140 -89t84 -112.5
l26.5 -55v0l-158 -68v0l-16.5 36.5t-56 76.5t-91.5 60.5t-120 20.5q-115 0 -188.5 -57t-73.5 -150v0q0 -75 56.5 -135.5t293.5 -140.5q199 -67 296.5 -174t97.5 -261v0q0 -195 -133.5 -305.5t-338.5 -110.5z" />
    <glyph glyph-name="T" unicode="T" horiz-adv-x="1076" 
d="M454 0v0v0v1352h170v-1352v0v0h-170zM52 1270v0v0v162v0v0h972v0v0v-162v0v0h-972z" />
    <glyph glyph-name="U" unicode="U" horiz-adv-x="1306" 
d="M652 -32q-234 0 -380 156t-146 406v902v0v0h170v0v0v-910q0 -180 95 -286t261 -106t262 106t96 286v910v0v0h170v0v0v-902q0 -256 -143 -409t-385 -153z" />
    <glyph glyph-name="V" unicode="V" horiz-adv-x="1262" 
d="M538 0v0v0l-510 1432v0v0h187v0v0l359 -1038l49 -145h6l50 142l370 1041v0v0h185v0v0l-526 -1432v0v0h-170z" />
    <glyph glyph-name="W" unicode="W" horiz-adv-x="1888" 
d="M421 0v0v0l-382 1432v0v0h181v0v0l262 -1052l24 -98h6l30 98l323 1052v0v0h174v0v0l309 -1052l30 -98h6l24 98l257 1052v0v0h190v0v0l-382 -1432v0v0h-176v0v0l-310 1036l-32 112h-6l-34 -112l-318 -1036v0v0h-176z" />
    <glyph glyph-name="X" unicode="X" horiz-adv-x="1272" 
d="M1024 0v0v0l-395 598h-14l-558 834v0v0h208v0v0l364 -558h18l585 -874v0v0h-208zM30 0v0v0l579 874h20l364 558v0v0h206v0v0l-558 -834h-12l-396 -598v0v0h-203z" />
    <glyph glyph-name="Y" unicode="Y" horiz-adv-x="1190" 
d="M519 656l-491 776v0v0h201v0v0l324 -531l42 -69h6l41 68l321 532v0v0h198v0v0l-481 -775zM514 0v0v0v742h170v-742v0v0h-170z" />
    <glyph glyph-name="Z" unicode="Z" horiz-adv-x="1144" 
d="M76 0v0v0v178v0v0l772 1092h-740v0v0v162v0v0h936v0v0v-178v0v0l-772 -1092h780v0v0v-162v0v0h-976z" />
    <glyph glyph-name="bracketleft" unicode="[" horiz-adv-x="761" 
d="M622 1584v0v0v-140v0v0h-248v-1552h248v0v0v-140v0v0h-402v0v0v1832v0v0h402z" />
    <glyph glyph-name="backslash" unicode="\" horiz-adv-x="600" 
d="M440 0v0v0l-436 1432v0v0h154v0v0l438 -1432v0v0h-156z" />
    <glyph glyph-name="bracketright" unicode="]" horiz-adv-x="761" 
d="M139 -248v0v0v140v0v0h248v1552h-248v0v0v140v0v0h402v0v0v-1832v0v0h-402z" />
    <glyph glyph-name="asciicircum" unicode="^" horiz-adv-x="930" 
d="M23 820v0v0l373 612v0v0h134v0v0l377 -612v0v0h-180v0v0l-262 448h-6l-261 -448v0v0h-175z" />
    <glyph glyph-name="underscore" unicode="_" horiz-adv-x="1125" 
d="M0 -312v0v0v140v0v0h952v0v0v-140v0v0h-952z" />
    <glyph glyph-name="grave" unicode="`" horiz-adv-x="900" 
d="M458 1200v0v0l-163 280v0v0h183v0v0l127 -280v0v0h-147z" />
    <glyph glyph-name="a" unicode="a" horiz-adv-x="1070" 
d="M452 -32q-170 0 -277 96.5t-107 248.5v0q0 153 120.5 246t309.5 93q84 0 165 -19t127 -47v62q0 112 -79 182t-203 70q-66 0 -111 -15.5t-75.5 -38t-59 -53.5l-28.5 -31v0l-129 96v0l38.5 42t87.5 76t112.5 55t164.5 21q206 0 325 -109t119 -297v-646v0v0h-162v0v0v247
l60 -100h-66q-48 -80 -138 -129.5t-194 -49.5zM468 119q133 0 227.5 94t94.5 229v0q-50 34 -120 53t-146 19q-130 0 -206 -51t-76 -153v0q0 -85 64 -138t162 -53z" />
    <glyph glyph-name="b" unicode="b" horiz-adv-x="1204" 
d="M644 -32q-110 0 -206 51t-144 131h-46l40 50v-200v0v0h-162v0v0v1432v0v0h170v0v0v-564h6q48 82 140 133t202 51q208 0 348 -150.5t140 -388.5v0q0 -237 -139 -391t-349 -154zM626 122q142 0 239 110t97 281v0q0 171 -98 278t-238 107t-239 -106.5t-99 -277.5v0
q0 -172 98 -282t240 -110z" />
    <glyph glyph-name="c" unicode="c" horiz-adv-x="1085" 
d="M588 -32q-224 0 -370 154t-146 393v0q0 238 147.5 387.5t368.5 149.5q91 0 171 -26.5t147.5 -86t117.5 -169.5v0v0l-149 -64v0v0q-39 76 -80.5 116t-96.5 58t-118 18q-140 0 -240 -105t-100 -278v0q0 -173 99 -283t241 -110q65 0 121 19.5t95.5 54.5t89.5 121v0v0
l145 -72v0v0q-61 -114 -125.5 -168.5t-145.5 -81.5t-172 -27z" />
    <glyph glyph-name="d" unicode="d" horiz-adv-x="1204" 
d="M560 -32q-210 0 -349 153t-139 389v0q0 237 140 388.5t348 151.5q110 0 202.5 -51t139.5 -133h6v566v0v0h170v0v0v-1432v0v0h-162v0v0v188l20 -40h-26q-50 -82 -145 -131t-205 -49zM578 120q142 0 240 110t98 281v0q0 171 -99 278t-239 107t-239 -107t-99 -279v0
q0 -170 98 -280t240 -110z" />
    <glyph glyph-name="e" unicode="e" horiz-adv-x="1126" 
d="M580 -32q-222 0 -365 153t-143 391v0q0 233 140 386.5t354 153.5q220 0 353 -132.5t133 -329.5v-112v0v0h-880v140h702v0q-6 120 -89 200t-219 80q-144 0 -234 -105t-90 -281v0q0 -178 99.5 -284t247.5 -106q70 0 119.5 19t89.5 53.5t90 111.5v0v0l143 -70v0v0
q-54 -109 -119.5 -162t-144 -79.5t-187.5 -26.5z" />
    <glyph glyph-name="f" unicode="f" horiz-adv-x="758" 
d="M56 866v0v0v154v0v0h620v0v0v-154v0v0h-620zM244 0v0v0v1145q0 142 92 230t234 88q40 0 69.5 -4t55 -10l25.5 -6v0v-159v0l-26.5 6.5t-55 10.5t-62.5 4q-70 0 -116 -44t-46 -124v-152v-39v-946v0v0h-170z" />
    <glyph glyph-name="g" unicode="g" horiz-adv-x="1194" 
d="M574 -464q-93 0 -173.5 26t-145.5 77t-99.5 112.5l-34.5 61.5v0l150 78v0l29.5 -48.5t71 -83t94 -52t108.5 -17.5q158 0 241 92t83 260v114h-6q-52 -82 -141 -129t-201 -47q-204 0 -341 147t-137 392v0q0 241 138 387t340 146q110 0 204 -48t146 -130h46l-40 -50v196v0v0
h162v0v0v-980q0 -239 -132 -371.5t-362 -132.5zM574 134q144 0 238 106t94 282v0q0 172 -94 274t-238 102q-143 0 -238.5 -101.5t-95.5 -277.5v0q0 -185 94 -285t240 -100z" />
    <glyph glyph-name="h" unicode="h" horiz-adv-x="1122" 
d="M126 0v0v0v1432v0v0h170v0v0v-562h6q44 80 132 131t192 51q181 0 279.5 -106t98.5 -292v-654v0v0h-170v0v0v628q0 130 -64.5 200t-183.5 70q-118 0 -204 -100t-86 -230v-568v0v0h-170z" />
    <glyph glyph-name="i" unicode="i" horiz-adv-x="452" 
d="M141 0v0v0v1020v0v0h170v0v0v-1020v0v0h-170zM226 1232q-47 0 -81 34t-34 81q0 49 34 81t81 32q49 0 81 -32t32 -81q0 -47 -32 -81t-81 -34z" />
    <glyph glyph-name="j" unicode="j" horiz-adv-x="452" 
d="M-15 -464q-23 0 -43.5 1t-40.5 4t-43 8.5l-23 5.5v0v158v0l23 -6.5t39.5 -9.5t36.5 -5t37 -2q80 0 125 45.5t45 126.5v1158v0v0h170v0v0v-1167q0 -140 -91 -228.5t-235 -88.5zM228 1232q-47 0 -81 34t-34 81q0 49 34 81t81 32q49 0 81 -32t32 -81q0 -47 -32 -81t-81 -34z
" />
    <glyph glyph-name="k" unicode="k" horiz-adv-x="1010" 
d="M190 208v218l584 594v0v0h224v0v0zM126 0v0v0v1432v0v0h170v0v0v-1432v0v0h-170zM800 0v0v0l-368 548l120 118l465 -666v0v0h-217z" />
    <glyph glyph-name="l" unicode="l" horiz-adv-x="422" 
d="M126 0v0v0v1432v0v0h170v0v0v-1432v0v0h-170z" />
    <glyph glyph-name="m" unicode="m" horiz-adv-x="1750" 
d="M126 0v0v0v1020v0v0h162v0v0v-170l-17 20h23q44 80 134 131t186 51q110 0 193 -53t121 -145q56 96 147 147t203 51q172 0 263 -104t91 -294v-654v0v0h-168v0v0v628q0 138 -56 204t-174 66q-114 0 -192 -94t-78 -228v-576v0v0h-170v0v0v626q0 138 -56 205t-172 67
q-114 0 -192 -96t-78 -230v-572v0v0h-170z" />
    <glyph glyph-name="n" unicode="n" horiz-adv-x="1122" 
d="M126 0v1020v0v0h162v0v0v-180l-27 30h33q44 78 137 130t195 52q180 0 279 -105t99 -293v-654v0v0h-170v0v0v628q0 134 -64 202t-190 68q-120 0 -202 -96t-82 -228v-574v0v0h-170v0v0z" />
    <glyph glyph-name="o" unicode="o" horiz-adv-x="1192" 
d="M596 -32q-226 0 -375 155t-149 388v0q0 237 149.5 389t374.5 152q224 0 374 -153.5t150 -387.5v0q0 -233 -148.5 -388t-375.5 -155zM596 122q150 0 252 109t102 280v0q0 174 -103 280.5t-251 106.5q-150 0 -252.5 -107t-102.5 -280v0q0 -171 101.5 -280t253.5 -109z" />
    <glyph glyph-name="p" unicode="p" horiz-adv-x="1204" 
d="M126 -432v0v0v1452v0v0h162v0v0v-202l-40 50h46q48 82 144 133t206 51q207 0 347.5 -150.5t140.5 -390.5v0q0 -235 -139 -389t-349 -154q-110 0 -204.5 45.5t-137.5 124.5h-6v-570v0v0h-170zM626 122q142 0 239 110t97 279v0q0 173 -98 280t-238 107t-239 -107t-99 -280
v0q0 -169 98 -279t240 -110z" />
    <glyph glyph-name="q" unicode="q" horiz-adv-x="1204" 
d="M908 -432v0v0v572h-6q-38 -78 -130.5 -125t-211.5 -47q-210 0 -349 154t-139 392v0q0 235 140 386.5t348 151.5q110 0 205 -51t145 -133h46l-40 -50v202v0v0h162v0v0v-1452v0v0h-170zM578 122q152 0 245 105t93 287v0q0 171 -99 277.5t-239 106.5t-239 -107t-99 -277v0
q0 -172 98 -282t240 -110z" />
    <glyph glyph-name="r" unicode="r" horiz-adv-x="750" 
d="M126 0v0v0v1020v0v0h162v0v0v-184l-27 20h33q28 82 114 139t178 57q26 0 54.5 -4t50 -10.5l21.5 -6.5v0v-180v0l-31 9t-62.5 13.5t-50.5 4.5q-112 0 -192 -89t-80 -215v-574v0v0h-170z" />
    <glyph glyph-name="s" unicode="s" horiz-adv-x="943" 
d="M482 -32q-97 0 -172.5 25t-135.5 76t-91 112l-31 61v0l152 69v0l26 -45.5t64.5 -79.5t85.5 -51t114 -17q100 0 160 39.5t60 115.5v0q0 60 -48 96.5t-200 70.5q-200 45 -289 122.5t-89 199.5v0q0 125 112.5 207.5t271.5 82.5q87 0 154.5 -20t124.5 -63.5t83 -90l26 -46.5
v0l-148 -68v0l-22.5 33t-54.5 57t-73.5 35t-93.5 11q-91 0 -149.5 -40t-58.5 -92v0q0 -56 42.5 -95.5t211.5 -78.5q208 -47 290 -125t82 -184v0q0 -143 -114 -230t-290 -87z" />
    <glyph glyph-name="t" unicode="t" horiz-adv-x="730" 
d="M510 -32q-123 0 -199.5 76.5t-76.5 206.5v1057v0v0h170v0v0v-1015q0 -86 34 -127t101 -41q16 0 36 3.5t51.5 13.5l31.5 10v0v-158v0l-27.5 -8.5t-55.5 -13t-65 -4.5zM56 866v0v0v154v0v0h598v0v0v-154v0v0h-598z" />
    <glyph glyph-name="u" unicode="u" horiz-adv-x="1122" 
d="M496 -32q-182 0 -280 107t-98 303v642v0v0h170v0v0v-616q0 -138 63 -210t181 -72q124 0 209 95t85 227v576v0v0h170v0v0v-1020v0v0h-162v0v0v225l77 -77h-83q-44 -78 -137 -129t-195 -51z" />
    <glyph glyph-name="v" unicode="v" horiz-adv-x="1028" 
d="M425 0v0v0l-412 1020v0v0h183v0v0l293 -762l22 -58h6l24 60l295 760v0v0h178v0v0l-415 -1020v0v0h-174z" />
    <glyph glyph-name="w" unicode="w" horiz-adv-x="1554" 
d="M339 0v0v0l-324 1020v0v0h175v0v0l213 -715l27 -91h6l27 84l228 722v0v0h175v0v0l228 -716l28 -88h6l26 86l214 718v0v0h172v0v0l-329 -1020v0v0h-175v0v0l-238 739l-20 72h-6l-22 -72l-235 -739v0v0h-176z" />
    <glyph glyph-name="x" unicode="x" horiz-adv-x="973" 
d="M756 0v0v0l-300 452h-28l-403 568v0v0h195v0v0l314 -454h18l398 -566v0v0h-194zM14 0v0v0l411 586h36l299 434v0v0h195v0v0l-404 -562h-30l-312 -458v0v0h-195z" />
    <glyph glyph-name="y" unicode="y" horiz-adv-x="1026" 
d="M207 -432v0v0l257 560l6 -128l-457 1020v0v0h184v0v0l296 -688l25 -70h6l27 72l278 686v0v0h183v0v0l-628 -1452v0v0h-177z" />
    <glyph glyph-name="z" unicode="z" horiz-adv-x="963" 
d="M63 0v0v0v148v0v0l602 718h-584v0v0v154v0v0h792v0v0v-148v0v0l-602 -718h618v0v0v-154v0v0h-826z" />
    <glyph glyph-name="braceleft" unicode="{" horiz-adv-x="788" 
d="M433 1252v-350q0 -94 -32 -150t-102 -80v-8q70 -24 102 -80t32 -150v-350q0 -57 20 -100t55.5 -67.5t88 -24.5h52.5v0v-140v0l-85.5 2t-149.5 42t-99.5 111.5t-35.5 170.5v350q0 97 -32 133.5t-116 36.5v0v0v139v0v0q84 0 116 37t32 134v350q0 99 39.5 172t110.5 113.5
t145.5 40.5h74.5v0v-140v0l-49.5 -1t-87 -24.5t-58.5 -66.5t-21 -100z" />
    <glyph glyph-name="bar" unicode="|" horiz-adv-x="474" 
d="M160 -432v0v0v2000v0v0h154v0v0v-2000v0v0h-154z" />
    <glyph glyph-name="braceright" unicode="}" horiz-adv-x="788" 
d="M355 84v350q0 94 32 150t102 80v8q-70 24 -102 80t-32 150v350q0 57 -20 100t-55.5 67.5t-88 24.5h-52.5v0v140v0l85.5 -2t149.5 -42t99.5 -111.5t35.5 -170.5v-350q0 -97 32 -133.5t116 -36.5v0v0v-139v0v0q-84 0 -116 -37t-32 -134v-350q0 -99 -39.5 -172
t-110.5 -113.5t-145.5 -40.5h-74.5v0v140v0l49.5 1t87 24.5t58.5 66.5t21 100z" />
    <glyph glyph-name="asciitilde" unicode="~" horiz-adv-x="1116" 
d="M767 487q-37 0 -84 12.5t-146 56.5q-84 37 -121.5 49.5t-62.5 12.5q-27 0 -46 -11t-30 -33.5t-13.5 -41l-2.5 -18.5v0h-167v0l5.5 42t38 100t85 88t124.5 30q36 0 82.5 -10.5t153.5 -57.5q84 -38 120 -50.5t60 -12.5q26 0 44 11t29.5 34t15 42l3.5 19v0h167v0l-6.5 -44.5
t-38 -102.5t-84 -86.5t-126.5 -28.5z" />
    <glyph glyph-name="uni00A0" unicode="&#xa0;" horiz-adv-x="450" 
 />
    <glyph glyph-name="exclamdown" unicode="&#xa1;" horiz-adv-x="656" 
d="M396 606v0v0l16 -1018v0v0h-168v0v0l18 1018v0v0h134zM328 1039q53 0 88.5 -36t35.5 -88q0 -51 -35.5 -87t-88.5 -36t-88.5 36t-35.5 87q0 52 35.5 88t88.5 36z" />
    <glyph glyph-name="cent" unicode="&#xa2;" horiz-adv-x="1171" 
d="M661 165q-218 0 -360 147t-142 376v0q0 228 143.5 370.5t358.5 142.5q90 0 166.5 -28t135.5 -76t90.5 -106.5l31.5 -58.5v0l-145 -63v0l-25 42.5t-63 74t-88 49t-111 17.5q-136 0 -231 -99.5t-95 -264.5v0q0 -165 94 -268.5t232 -103.5q65 0 115.5 17.5t90 51.5
t65.5 74.5l26 40.5v0l142 -70v0l-33.5 -59t-94 -106t-137.5 -73.5t-166 -26.5zM581 684v677v0v0h134v0v0v-677h-134zM581 0v0v0v684h134v-684v0v0h-134z" />
    <glyph glyph-name="sterling" unicode="&#xa3;" horiz-adv-x="1044" 
d="M121 0v0v0v141v0v0q124 89 159 189.5t35 181.5v0q0 122 -96 269t-96 287v0q0 170 116 282t292 112q95 0 171.5 -32t130 -94.5t73 -109l19.5 -46.5v0l-155 -64v0l-12 31.5t-46 72t-79 60.5t-102 20q-104 0 -170 -66t-66 -166v0q0 -117 96 -259.5t96 -270.5v0
q0 -84 -33.5 -196t-93.5 -174l5 -6h374q59 0 92.5 20t59 59l25.5 39v0l139 -58v0l-35.5 -68.5t-106.5 -111t-174 -42.5h-618zM123 594v0v0v142v0v0h630v0v0v-142v0v0h-630z" />
    <glyph glyph-name="currency" unicode="&#xa4;" horiz-adv-x="1221" 
d="M611 119q-189 0 -310.5 133.5t-121.5 304.5t121.5 304.5t310.5 133.5q188 0 309 -133.5t121 -304.5t-121 -304.5t-309 -133.5zM611 276q111 0 188.5 82t77.5 199t-77.5 199t-188.5 82t-189.5 -82t-78.5 -199t78.5 -199t189.5 -82zM284 768l-148 151v0v0l111 110v0v0
l150 -148zM935 767l-113 113l149 148v0v0l113 -110v0v0zM246 85v0v0l-110 112v0v0l148 150l113 -113zM972 85l-150 148l113 113l149 -151v0v0l-112 -110v0v0z" />
    <glyph glyph-name="yen" unicode="&#xa5;" horiz-adv-x="1144" 
d="M491 0v0v0v645l-485 787v0v0h202v0v0l321 -548l43 -69h6l42 68l319 549v0v0h198v0v0l-476 -787v-645v0v0h-170zM140 617v0v0v136v0v0h864v0v0v-136v0v0h-864zM140 311v0v0v136v0v0h864v0v0v-136v0v0h-864z" />
    <glyph glyph-name="brokenbar" unicode="&#xa6;" horiz-adv-x="474" 
d="M160 720v0v0v792v0v0h154v0v0v-792v0v0h-154zM160 -240v0v0v792v0v0h154v0v0v-792v0v0h-154z" />
    <glyph glyph-name="section" unicode="&#xa7;" horiz-adv-x="1092" 
d="M794 156l-130 74q108 34 146 99t38 143v0q0 108 -94 168t-238 114q-188 70 -271 151t-83 209v0q0 147 104.5 248.5t289.5 101.5q81 0 167 -30t142.5 -86t83.5 -114.5l27 -58.5v0l-156 -65v0l-18 39.5t-53.5 76.5t-89.5 56.5t-106 19.5q-102 0 -160.5 -51t-58.5 -128v0
q0 -96 70 -134.5t246 -112.5q195 -82 282.5 -166t87.5 -230v0q0 -100 -56 -187t-170 -137zM567 -465q-104 0 -200.5 39.5t-161.5 118.5t-90.5 151l-25.5 72v0l158 64v0l18.5 -49.5t64 -112.5t104.5 -92t142 -29q106 0 177 50.5t71 158.5v0q0 96 -71 154t-237 120
q-226 86 -303 167t-77 213v0q0 98 64 177t166 123l142 -78q-80 -14 -143 -66t-63 -138v0q0 -74 60 -126.5t212 -111.5q201 -78 311.5 -182t110.5 -256v0q0 -152 -116.5 -259.5t-312.5 -107.5z" />
    <glyph glyph-name="dieresis" unicode="&#xa8;" horiz-adv-x="900" 
d="M258 1231q-46 0 -79 33t-33 79q0 45 33 77.5t79 32.5q45 0 77.5 -32.5t32.5 -77.5q0 -46 -32.5 -79t-77.5 -33zM645 1237q-45 0 -77 32.5t-32 77.5t32 76.5t77 31.5t77 -31.5t32 -76.5t-32 -77.5t-77 -32.5z" />
    <glyph glyph-name="copyright" unicode="&#xa9;" horiz-adv-x="1060" 
d="M530 544q-193 0 -327 133.5t-134 326.5t134 326.5t327 133.5t327 -133.5t134 -326.5t-134 -326.5t-327 -133.5zM530 644q148 0 250.5 104.5t102.5 255.5t-102.5 255.5t-250.5 104.5q-149 0 -251 -104.5t-102 -255.5t102 -255.5t251 -104.5zM537 744q-109 0 -179 72.5
t-70 185.5v0q0 112 70.5 183t178.5 71q47 0 86.5 -14t69 -38t44.5 -55l15 -31v0l-91 -37v0l-10.5 20t-27 34t-39 21.5t-48.5 7.5q-60 0 -102 -44.5t-42 -117.5v0q0 -73 42 -119t102 -46q27 0 50.5 8t42 22.5t29 34l10.5 19.5v0l87 -36v0l-13.5 -30.5t-45 -56t-72 -40
t-87.5 -14.5z" />
    <glyph glyph-name="ordfeminine" unicode="&#xaa;" horiz-adv-x="963" 
d="M411 544q-143 0 -237 78t-94 211v0q0 137 99.5 213t268.5 76q86 0 166.5 -27.5t115.5 -53.5v57q0 119 -72.5 176.5t-178.5 57.5q-51 0 -91 -7.5t-74 -28.5t-62.5 -53.5l-28.5 -32.5v0l-112 71v0l31 40t79 73t108.5 51.5t155.5 18.5q185 0 291 -90.5t106 -263.5v-539v0v0
h-151v0v0v120h-9q-40 -61 -122.5 -104t-188.5 -43zM457 678q109 0 177.5 52t80.5 156l6 51q-20 24 -84.5 46t-155.5 22q-122 0 -180.5 -49t-58.5 -121v0q0 -80 65 -118.5t150 -38.5z" />
    <glyph glyph-name="guillemotleft" unicode="&#xab;" horiz-adv-x="1100" 
d="M980 851v0v0l-322 -342l321 -341v0v0l-99 -92v0v0l-377 408v0v0v50v0v0l378 409v0v0zM580 851v0v0l-322 -342l321 -341v0v0l-99 -92v0v0l-377 408v0v0v50v0v0l378 409v0v0z" />
    <glyph glyph-name="logicalnot" unicode="&#xac;" horiz-adv-x="1116" 
d="M833 146v0v0v397h-710v0v0v154v0v0h870v0v0v-551v0v0h-160z" />
    <glyph glyph-name="uni00AD" unicode="&#xad;" horiz-adv-x="675" 
d="M44 590v0v0v140v0v0h587v0v0v-140v0v0h-587z" />
    <glyph glyph-name="registered" unicode="&#xae;" horiz-adv-x="1060" 
d="M530 544q-193 0 -327 133.5t-134 326.5t134 326.5t327 133.5t327 -133.5t134 -326.5t-134 -326.5t-327 -133.5zM530 644q148 0 250.5 104.5t102.5 255.5t-102.5 255.5t-250.5 104.5q-149 0 -251 -104.5t-102 -255.5t102 -255.5t251 -104.5zM362 778v0v0v452v0v0h168
q82 0 127.5 -39t45.5 -109v0q0 -72 -50 -108t-113 -36h-134v76h118q36 0 55.5 14.5t19.5 50.5v0q0 34 -19.5 48.5t-55.5 14.5h-62v-364v0v0h-100zM635 778v0v0l-154 194l109 4l163 -198v0v0h-118z" />
    <glyph glyph-name="macron" unicode="&#xaf;" horiz-adv-x="900" 
d="M173 1261v0v0v134v0v0h554v0v0v-134v0v0h-554z" />
    <glyph glyph-name="degree" unicode="&#xb0;" horiz-adv-x="648" 
d="M324 921q-116 0 -195 79t-79 192q0 114 79 193t195 79q114 0 194 -79t80 -193q0 -113 -80 -192t-194 -79zM324 1044q58 0 100 43t42 105q0 63 -42 106t-100 43q-60 0 -101 -43t-41 -106q0 -62 41 -105t101 -43z" />
    <glyph glyph-name="plusminus" unicode="&#xb1;" horiz-adv-x="1116" 
d="M128 572v0v0v148v0v0h860v0v0v-148v0v0h-860zM481 241v0v0v810v0v0h154v0v0v-810v0v0h-154zM128 0v0v0v140v0v0h860v0v0v-140v0v0h-860z" />
    <glyph glyph-name="uni00B2" unicode="&#xb2;" horiz-adv-x="684" 
d="M62 954v0v0v117v0v0l301 314q53 55 77 100.5t24 91.5v0q0 51 -35.5 85.5t-90.5 34.5q-29 0 -53.5 -11.5t-43 -31.5t-29.5 -41l-11 -21v0l-141 52v0l17.5 37t54.5 73.5t91 57t122 20.5q125 0 198 -69.5t73 -175.5v0q0 -74 -31 -140.5t-104 -140.5l-205 -208l2 -6h346v0v0
v-138v0v0h-562z" />
    <glyph glyph-name="uni00B3" unicode="&#xb3;" horiz-adv-x="719" 
d="M353 934q-70 0 -123 22.5t-94 65.5t-58.5 84l-17.5 41v0l134 61v0l11.5 -29.5t31.5 -56t48 -40t68 -13.5q63 0 103.5 38t40.5 99v0q0 57 -44.5 94.5t-114.5 37.5h-78v0v0v132v0v0h71q62 0 101.5 32.5t39.5 82.5v0q0 49 -35.5 80.5t-90.5 31.5q-31 0 -55.5 -10.5
t-42 -30.5t-29.5 -43.5l-12 -23.5v0l-127 67v0l17 33t53.5 68.5t86 55t114.5 19.5q117 0 192.5 -65.5t75.5 -167.5v0q0 -63 -34 -113.5t-96 -72.5v-6q75 -26 117.5 -83t42.5 -126v0q0 -111 -86 -187.5t-210 -76.5z" />
    <glyph glyph-name="acute" unicode="&#xb4;" horiz-adv-x="900" 
d="M295 1200v0v0l127 280v0v0h183v0v0l-163 -280v0v0h-147z" />
    <glyph glyph-name="uni00B5" unicode="&#xb5;" horiz-adv-x="1260" 
d="M126 -432v0v0v1452v0v0h170v0v0v-624q0 -125 66 -199.5t177 -74.5q140 0 217.5 81.5t77.5 229.5v587v0v0h168v0v0v-744q0 -72 29.5 -111t84.5 -39q20 0 37.5 3.5t35 9.5l17.5 6v0v-162v0l-17 -4t-42 -7.5t-45 -3.5q-115 0 -174 46t-80 134h-8q-46 -85 -124.5 -132.5
t-175.5 -47.5q-81 0 -146 38t-92 102h-8v-540v0v0h-168z" />
    <glyph glyph-name="paragraph" unicode="&#xb6;" horiz-adv-x="1228" 
d="M584 -432v0v0v1024h-88q-196 0 -323 118.5t-127 301.5t127 301.5t323 118.5h576v0v0v-1864v0v0h-156v0v0v1702h-176v-1702v0v0h-156z" />
    <glyph glyph-name="periodcentered" unicode="&#xb7;" horiz-adv-x="476" 
d="M238 493q-54 0 -91 37t-37 91q0 52 37 89t91 37t91 -37t37 -89q0 -54 -37 -91t-91 -37z" />
    <glyph glyph-name="cedilla" unicode="&#xb8;" horiz-adv-x="900" 
d="M441 -504q-71 0 -124.5 38t-80.5 106v0v0l122 52v0v0q13 -36 36.5 -53t49.5 -17q34 0 57 24t23 60q0 38 -25.5 61.5t-56.5 23.5q-20 0 -37.5 -8.5t-27.5 -21.5v0v0l-125 55v0v0l106 194h132l-77 -110q12 5 28.5 8t29.5 3q83 0 138 -56.5t55 -143.5q0 -92 -63.5 -153.5
t-159.5 -61.5z" />
    <glyph glyph-name="uni00B9" unicode="&#xb9;" horiz-adv-x="501" 
d="M231 954v0v0v646l-106 -78v0v0l-85 117v0v0l235 174v0v0h106v0v0v-859v0v0h-150z" />
    <glyph glyph-name="ordmasculine" unicode="&#xba;" horiz-adv-x="1090" 
d="M545 544q-191 0 -317 131t-126 329v0q0 201 126.5 330t316.5 129q189 0 316 -130t127 -329v0q0 -198 -125.5 -329t-317.5 -131zM546 688q118 0 198.5 88t80.5 228v0q0 142 -81 228.5t-198 86.5q-118 0 -199.5 -87t-81.5 -228v0q0 -140 80.5 -228t200.5 -88z" />
    <glyph glyph-name="guillemotright" unicode="&#xbb;" horiz-adv-x="1100" 
d="M120 168v0v0l322 342l-321 341v0v0l99 92v0v0l377 -408v0v0v-50v0v0l-378 -409v0v0zM520 168v0v0l322 342l-321 341v0v0l99 92v0v0l377 -408v0v0v-50v0v0l-378 -409v0v0z" />
    <glyph glyph-name="onequarter" unicode="&#xbc;" horiz-adv-x="1526" 
d="M231 573v0v0v646l-106 -78v0v0l-85 117v0v0l235 174v0v0h106v0v0v-859v0v0h-150zM190 39v0v0l962 1436v0v0l120 -82v0v0l-961 -1434v0v0zM1241 0v0v0v237v33v525l56 -157h-60l-221 -323h287h35h158v0v0v-126v0v0h-657v0v0v108v0v0l397 562v0v0h153v0v0v-859v0v0h-148z
" />
    <glyph glyph-name="onehalf" unicode="&#xbd;" horiz-adv-x="1630" 
d="M231 573v0v0v646l-106 -78v0v0l-85 117v0v0l235 174v0v0h106v0v0v-859v0v0h-150zM190 39v0v0l962 1436v0v0l120 -82v0v0l-961 -1434v0v0zM1008 0v0v0v117v0v0l301 314q53 55 77 100.5t24 91.5v0q0 51 -35.5 85.5t-90.5 34.5q-29 0 -53.5 -11.5t-43 -31.5t-29.5 -41
l-11 -21v0l-141 52v0l17.5 37t54.5 73.5t91 57t122 20.5q125 0 198 -69.5t73 -175.5v0q0 -74 -31 -140.5t-104 -140.5l-205 -208l2 -6h346v0v0v-138v0v0h-562z" />
    <glyph glyph-name="threequarters" unicode="&#xbe;" horiz-adv-x="1709" 
d="M353 553q-70 0 -123 22.5t-94 65.5t-58.5 84l-17.5 41v0l134 61v0l11.5 -29.5t31.5 -56t48 -40t68 -13.5q63 0 103.5 38t40.5 99v0q0 57 -44.5 94.5t-114.5 37.5h-78v0v0v132v0v0h71q62 0 101.5 32.5t39.5 82.5v0q0 49 -35.5 80.5t-90.5 31.5q-31 0 -55.5 -10.5
t-42 -30.5t-29.5 -43.5l-12 -23.5v0l-127 67v0l17 33t53.5 68.5t86 55t114.5 19.5q117 0 192.5 -65.5t75.5 -167.5v0q0 -63 -34 -113.5t-96 -72.5v-6q75 -26 117.5 -83t42.5 -126v0q0 -111 -86 -187.5t-210 -76.5zM373 39v0v0l962 1436v0v0l120 -82v0v0l-961 -1434v0v0z
M1424 0v0v0v237v33v525l56 -157h-60l-221 -323h287h35h158v0v0v-126v0v0h-657v0v0v108v0v0l397 562v0v0h153v0v0v-859v0v0h-148z" />
    <glyph glyph-name="questiondown" unicode="&#xbf;" horiz-adv-x="956" 
d="M565 587v0v0v-96q0 -100 -34.5 -165t-129.5 -156q-93 -87 -118 -134t-25 -105v0q0 -99 56 -153.5t158 -54.5q47 0 87 14t76.5 51t58.5 82.5l22 45.5v0l162 -66v0l-27 -59t-84.5 -118t-135 -89t-159.5 -30q-177 0 -286 104.5t-109 272.5v0q0 85 41.5 164t149.5 180
q67 62 93.5 109.5t26.5 117.5v85v0v0h177zM468 1033q63 0 107 -44t44 -108q0 -61 -44 -104t-107 -43t-107.5 43t-44.5 104q0 64 44.5 108t107.5 44z" />
    <glyph glyph-name="Agrave" unicode="&#xc0;" horiz-adv-x="1340" 
d="M30 0v0v0l545 1432v0v0h195v0v0l540 -1432v0v0h-187v0v0l-392 1072l-57 172h-6l-57 -172l-397 -1072v0v0h-184zM262 394l58 160h660l58 -160h-776zM606 1612v0v0l-163 280v0v0h183v0v0l127 -280v0v0h-147z" />
    <glyph glyph-name="Aacute" unicode="&#xc1;" horiz-adv-x="1340" 
d="M30 0v0v0l545 1432v0v0h195v0v0l540 -1432v0v0h-187v0v0l-392 1072l-57 172h-6l-57 -172l-397 -1072v0v0h-184zM262 394l58 160h660l58 -160h-776zM587 1612v0v0l127 280v0v0h183v0v0l-163 -280v0v0h-147z" />
    <glyph glyph-name="Acircumflex" unicode="&#xc2;" horiz-adv-x="1340" 
d="M30 0v0v0l545 1432v0v0h195v0v0l540 -1432v0v0h-187v0v0l-392 1072l-57 172h-6l-57 -172l-397 -1072v0v0h-184zM262 394l58 160h660l58 -160h-776zM342 1612v0v0l247 280v0v0h162v0v0l247 -280v0v0h-161v0v0l-164 179h-6l-161 -179v0v0h-164z" />
    <glyph glyph-name="Atilde" unicode="&#xc3;" horiz-adv-x="1340" 
d="M30 0v0v0l545 1432v0v0h195v0v0l540 -1432v0v0h-187v0v0l-392 1072l-57 172h-6l-57 -172l-397 -1072v0v0h-184zM262 394l58 160h660l58 -160h-776zM804 1607q-50 0 -93.5 22.5t-78.5 47.5q-27 19 -51.5 35.5t-48.5 16.5q-16 0 -29.5 -8.5t-22.5 -24t-12.5 -42l-3.5 -26.5
v0h-126v0l5.5 55t30 94t68 62.5t96.5 23.5q54 0 95 -23t77 -49q26 -20 51 -35t47 -15q19 0 32.5 8t21.5 23t10 42.5l2 27.5v0h128v0l-4 -53.5t-30 -94.5t-70.5 -64t-93.5 -23z" />
    <glyph glyph-name="Adieresis" unicode="&#xc4;" horiz-adv-x="1340" 
d="M30 0v0v0l545 1432v0v0h195v0v0l540 -1432v0v0h-187v0v0l-392 1072l-57 172h-6l-57 -172l-397 -1072v0v0h-184zM262 394l58 160h660l58 -160h-776zM478 1643q-46 0 -79 33t-33 79q0 45 33 77.5t79 32.5q45 0 77.5 -32.5t32.5 -77.5q0 -46 -32.5 -79t-77.5 -33zM865 1649
q-45 0 -77 32.5t-32 77.5t32 76.5t77 31.5t77 -31.5t32 -76.5t-32 -77.5t-77 -32.5z" />
    <glyph glyph-name="Aring" unicode="&#xc5;" horiz-adv-x="1340" 
d="M30 0v0v0l545 1432v0v0h195v0v0l540 -1432v0v0h-187v0v0l-392 1072l-57 172h-6l-57 -172l-397 -1072v0v0h-184zM262 394l58 160h660l58 -160h-776zM670 1573q-90 0 -153 64t-63 154t63 153t153 63t154 -63t64 -153t-64 -154t-154 -64zM670 1685q42 0 73 31t31 75
q0 42 -31 73t-73 31t-73 -31t-31 -73q0 -44 31 -75t73 -31z" />
    <glyph glyph-name="AE" unicode="&#xc6;" horiz-adv-x="1935" 
d="M28 0v0v0l869 1432v0v0h892v0v0v-162v0v0h-625v-1108h637v0v0v-162v0v0h-807v0v0v1270h-6l-58 -100l-699 -1170v0v0h-203zM386 394l94 160h584v-160h-678zM1084 636v160h673v0v0v-160v0v0h-673z" />
    <glyph glyph-name="Ccedilla" unicode="&#xc7;" horiz-adv-x="1472" 
d="M833 -32q-316 0 -529.5 215.5t-213.5 536.5v0q0 322 214.5 533t527.5 211q105 0 201.5 -28t174.5 -78.5t119 -97.5l41 -47v0l-122 -105v0l-39.5 42.5t-95 77.5t-125 54.5t-154.5 19.5q-241 0 -405.5 -160.5t-164.5 -420.5v0q0 -260 163 -425t407 -165q87 0 163 24.5
t144 68.5t103.5 84.5l35.5 40.5v0l126 -114v0l-48 -54t-131.5 -105.5t-181.5 -79.5t-210 -28zM797 -504q-71 0 -124.5 38t-80.5 106v0v0l122 52v0v0q13 -36 36.5 -53t49.5 -17q34 0 57 24t23 60q0 38 -25.5 61.5t-56.5 23.5q-20 0 -37.5 -8.5t-27.5 -21.5v0v0l-125 55v0v0
l106 194h132l-77 -110q12 5 28.5 8t29.5 3q83 0 138 -56.5t55 -143.5q0 -92 -63.5 -153.5t-159.5 -61.5z" />
    <glyph glyph-name="Egrave" unicode="&#xc8;" horiz-adv-x="1102" 
d="M160 0v0v0v1432v0v0h796v0v0v-162v0v0h-626v-1108h638v0v0v-162v0v0h-808zM250 636v160h674v0v0v-160v0v0h-674zM510 1612v0v0l-163 280v0v0h183v0v0l127 -280v0v0h-147z" />
    <glyph glyph-name="Eacute" unicode="&#xc9;" horiz-adv-x="1102" 
d="M160 0v0v0v1432v0v0h796v0v0v-162v0v0h-626v-1108h638v0v0v-162v0v0h-808zM250 636v160h674v0v0v-160v0v0h-674zM491 1612v0v0l127 280v0v0h183v0v0l-163 -280v0v0h-147z" />
    <glyph glyph-name="Ecircumflex" unicode="&#xca;" horiz-adv-x="1102" 
d="M160 0v0v0v1432v0v0h796v0v0v-162v0v0h-626v-1108h638v0v0v-162v0v0h-808zM250 636v160h674v0v0v-160v0v0h-674zM246 1612v0v0l247 280v0v0h162v0v0l247 -280v0v0h-161v0v0l-164 179h-6l-161 -179v0v0h-164z" />
    <glyph glyph-name="Edieresis" unicode="&#xcb;" horiz-adv-x="1102" 
d="M160 0v0v0v1432v0v0h796v0v0v-162v0v0h-626v-1108h638v0v0v-162v0v0h-808zM250 636v160h674v0v0v-160v0v0h-674zM382 1643q-46 0 -79 33t-33 79q0 45 33 77.5t79 32.5q45 0 77.5 -32.5t32.5 -77.5q0 -46 -32.5 -79t-77.5 -33zM769 1649q-45 0 -77 32.5t-32 77.5t32 76.5
t77 31.5t77 -31.5t32 -76.5t-32 -77.5t-77 -32.5z" />
    <glyph glyph-name="Igrave" unicode="&#xcc;" horiz-adv-x="490" 
d="M160 0v0v0v1432v0v0h170v0v0v-1432v0v0h-170zM181 1612v0v0l-163 280v0v0h183v0v0l127 -280v0v0h-147z" />
    <glyph glyph-name="Iacute" unicode="&#xcd;" horiz-adv-x="490" 
d="M160 0v0v0v1432v0v0h170v0v0v-1432v0v0h-170zM162 1612v0v0l127 280v0v0h183v0v0l-163 -280v0v0h-147z" />
    <glyph glyph-name="Icircumflex" unicode="&#xce;" horiz-adv-x="490" 
d="M160 0v0v0v1432v0v0h170v0v0v-1432v0v0h-170zM-83 1612v0v0l247 280v0v0h162v0v0l247 -280v0v0h-161v0v0l-164 179h-6l-161 -179v0v0h-164z" />
    <glyph glyph-name="Idieresis" unicode="&#xcf;" horiz-adv-x="490" 
d="M160 0v0v0v1432v0v0h170v0v0v-1432v0v0h-170zM53 1643q-46 0 -79 33t-33 79q0 45 33 77.5t79 32.5q45 0 77.5 -32.5t32.5 -77.5q0 -46 -32.5 -79t-77.5 -33zM440 1649q-45 0 -77 32.5t-32 77.5t32 76.5t77 31.5t77 -31.5t32 -76.5t-32 -77.5t-77 -32.5z" />
    <glyph glyph-name="Eth" unicode="&#xd0;" horiz-adv-x="1406" 
d="M160 0v0v0v1432v0v0h432q327 0 525.5 -195.5t198.5 -517.5v0q0 -325 -198 -522t-526 -197h-432zM330 162h262q258 0 405 147t147 410v0q0 260 -147.5 405.5t-404.5 145.5h-262v-1108zM-1 650v0v0v140v0v0h728v0v0v-140v0v0h-728z" />
    <glyph glyph-name="Ntilde" unicode="&#xd1;" horiz-adv-x="1416" 
d="M160 0v0v0v1432v0v0h206v0v0l722 -1140h6l-8 276v864v0v0h170v0v0v-1432v0v0h-174v0v0l-754 1194h-6l8 -276v-918v0v0h-170zM842 1607q-50 0 -93.5 22.5t-78.5 47.5q-27 19 -51.5 35.5t-48.5 16.5q-16 0 -29.5 -8.5t-22.5 -24t-12.5 -42l-3.5 -26.5v0h-126v0l5.5 55
t30 94t68 62.5t96.5 23.5q54 0 95 -23t77 -49q26 -20 51 -35t47 -15q19 0 32.5 8t21.5 23t10 42.5l2 27.5v0h128v0l-4 -53.5t-30 -94.5t-70.5 -64t-93.5 -23z" />
    <glyph glyph-name="Ograve" unicode="&#xd2;" horiz-adv-x="1648" 
d="M824 -32q-312 0 -523 217t-211 534v0q0 317 212 531t522 214q309 0 521.5 -212.5t212.5 -532.5v0q0 -317 -211 -534t-523 -217zM824 130q240 0 401 167t161 422v0q0 256 -162.5 419.5t-399.5 163.5q-238 0 -400 -164.5t-162 -418.5v0q0 -255 161 -422t401 -167zM760 1612
v0v0l-163 280v0v0h183v0v0l127 -280v0v0h-147z" />
    <glyph glyph-name="Oacute" unicode="&#xd3;" horiz-adv-x="1648" 
d="M824 -32q-312 0 -523 217t-211 534v0q0 317 212 531t522 214q309 0 521.5 -212.5t212.5 -532.5v0q0 -317 -211 -534t-523 -217zM824 130q240 0 401 167t161 422v0q0 256 -162.5 419.5t-399.5 163.5q-238 0 -400 -164.5t-162 -418.5v0q0 -255 161 -422t401 -167zM741 1612
v0v0l127 280v0v0h183v0v0l-163 -280v0v0h-147z" />
    <glyph glyph-name="Ocircumflex" unicode="&#xd4;" horiz-adv-x="1648" 
d="M824 -32q-312 0 -523 217t-211 534v0q0 317 212 531t522 214q309 0 521.5 -212.5t212.5 -532.5v0q0 -317 -211 -534t-523 -217zM824 130q240 0 401 167t161 422v0q0 256 -162.5 419.5t-399.5 163.5q-238 0 -400 -164.5t-162 -418.5v0q0 -255 161 -422t401 -167zM496 1612
v0v0l247 280v0v0h162v0v0l247 -280v0v0h-161v0v0l-164 179h-6l-161 -179v0v0h-164z" />
    <glyph glyph-name="Otilde" unicode="&#xd5;" horiz-adv-x="1648" 
d="M824 -32q-312 0 -523 217t-211 534v0q0 317 212 531t522 214q309 0 521.5 -212.5t212.5 -532.5v0q0 -317 -211 -534t-523 -217zM824 130q240 0 401 167t161 422v0q0 256 -162.5 419.5t-399.5 163.5q-238 0 -400 -164.5t-162 -418.5v0q0 -255 161 -422t401 -167zM958 1607
q-50 0 -93.5 22.5t-78.5 47.5q-27 19 -51.5 35.5t-48.5 16.5q-16 0 -29.5 -8.5t-22.5 -24t-12.5 -42l-3.5 -26.5v0h-126v0l5.5 55t30 94t68 62.5t96.5 23.5q54 0 95 -23t77 -49q26 -20 51 -35t47 -15q19 0 32.5 8t21.5 23t10 42.5l2 27.5v0h128v0l-4 -53.5t-30 -94.5
t-70.5 -64t-93.5 -23z" />
    <glyph glyph-name="Odieresis" unicode="&#xd6;" horiz-adv-x="1648" 
d="M824 -32q-312 0 -523 217t-211 534v0q0 317 212 531t522 214q309 0 521.5 -212.5t212.5 -532.5v0q0 -317 -211 -534t-523 -217zM824 130q240 0 401 167t161 422v0q0 256 -162.5 419.5t-399.5 163.5q-238 0 -400 -164.5t-162 -418.5v0q0 -255 161 -422t401 -167zM632 1643
q-46 0 -79 33t-33 79q0 45 33 77.5t79 32.5q45 0 77.5 -32.5t32.5 -77.5q0 -46 -32.5 -79t-77.5 -33zM1019 1649q-45 0 -77 32.5t-32 77.5t32 76.5t77 31.5t77 -31.5t32 -76.5t-32 -77.5t-77 -32.5z" />
    <glyph glyph-name="multiply" unicode="&#xd7;" horiz-adv-x="1116" 
d="M875 210l-737 718v0v0l104 104v0v0l737 -718v0v0l-104 -104v0v0zM241 209v0v0l-103 105v0v0l736 717v0v0l105 -105v0v0z" />
    <glyph glyph-name="Oslash" unicode="&#xd8;" horiz-adv-x="1648" 
d="M824 -32q-312 0 -523 217t-211 534v0q0 317 212 531t522 214q309 0 521.5 -212.5t212.5 -532.5v0q0 -317 -211 -534t-523 -217zM824 130q240 0 401 167t161 422v0q0 256 -162.5 419.5t-399.5 163.5q-238 0 -400 -164.5t-162 -418.5v0q0 -255 161 -422t401 -167zM298 1v0
v0l92 149l45 72l647 1039l47 76l103 166v0v0l117 -72v0v0l-102 -165l-47 -76l-661 -1061l-39 -62l-85 -137v0v0z" />
    <glyph glyph-name="Ugrave" unicode="&#xd9;" horiz-adv-x="1306" 
d="M652 -32q-234 0 -380 156t-146 406v902v0v0h170v0v0v-910q0 -180 95 -286t261 -106t262 106t96 286v910v0v0h170v0v0v-902q0 -256 -143 -409t-385 -153zM588 1612v0v0l-163 280v0v0h183v0v0l127 -280v0v0h-147z" />
    <glyph glyph-name="Uacute" unicode="&#xda;" horiz-adv-x="1306" 
d="M652 -32q-234 0 -380 156t-146 406v902v0v0h170v0v0v-910q0 -180 95 -286t261 -106t262 106t96 286v910v0v0h170v0v0v-902q0 -256 -143 -409t-385 -153zM569 1612v0v0l127 280v0v0h183v0v0l-163 -280v0v0h-147z" />
    <glyph glyph-name="Ucircumflex" unicode="&#xdb;" horiz-adv-x="1306" 
d="M652 -32q-234 0 -380 156t-146 406v902v0v0h170v0v0v-910q0 -180 95 -286t261 -106t262 106t96 286v910v0v0h170v0v0v-902q0 -256 -143 -409t-385 -153zM324 1612v0v0l247 280v0v0h162v0v0l247 -280v0v0h-161v0v0l-164 179h-6l-161 -179v0v0h-164z" />
    <glyph glyph-name="Udieresis" unicode="&#xdc;" horiz-adv-x="1306" 
d="M652 -32q-234 0 -380 156t-146 406v902v0v0h170v0v0v-910q0 -180 95 -286t261 -106t262 106t96 286v910v0v0h170v0v0v-902q0 -256 -143 -409t-385 -153zM460 1643q-46 0 -79 33t-33 79q0 45 33 77.5t79 32.5q45 0 77.5 -32.5t32.5 -77.5q0 -46 -32.5 -79t-77.5 -33z
M847 1649q-45 0 -77 32.5t-32 77.5t32 76.5t77 31.5t77 -31.5t32 -76.5t-32 -77.5t-77 -32.5z" />
    <glyph glyph-name="Yacute" unicode="&#xdd;" horiz-adv-x="1190" 
d="M519 656l-491 776v0v0h201v0v0l324 -531l42 -69h6l41 68l321 532v0v0h198v0v0l-481 -775zM514 0v0v0v742h170v-742v0v0h-170zM511 1612v0v0l127 280v0v0h183v0v0l-163 -280v0v0h-147z" />
    <glyph glyph-name="Thorn" unicode="&#xde;" horiz-adv-x="1152" 
d="M250 315v162h396q118 0 194.5 79.5t76.5 205.5v0q0 124 -76.5 208t-194.5 84h-396v162h392q195 0 321 -128.5t126 -323.5v0q0 -205 -126 -327t-321 -122h-392zM160 0v0v0v1432v0v0h170v0v0v-1432v0v0h-170z" />
    <glyph glyph-name="germandbls" unicode="&#xdf;" horiz-adv-x="1140" 
d="M590 -22q-50 0 -87 4t-57.5 8.5l-20.5 4.5v0v162v0l23.5 -4.5t61.5 -8.5t85 -4q127 0 209.5 73t82.5 202v0q0 125 -93 199t-210 74h-81v0v0v156v0v0h76q110 0 176 65t66 167v0q0 102 -76.5 164t-180.5 62q-126 0 -197 -75t-71 -195v-1032v0v0h-170v0v0v1032
q0 189 123 310.5t315 121.5q186 0 308 -106t122 -272v0q0 -120 -55 -195t-134 -113v-8q104 -38 179.5 -121t75.5 -234v0q0 -202 -132.5 -319.5t-337.5 -117.5z" />
    <glyph glyph-name="agrave" unicode="&#xe0;" horiz-adv-x="1070" 
d="M452 -32q-170 0 -277 96.5t-107 248.5v0q0 153 120.5 246t309.5 93q84 0 165 -19t127 -47v62q0 112 -79 182t-203 70q-66 0 -111 -15.5t-75.5 -38t-59 -53.5l-28.5 -31v0l-129 96v0l38.5 42t87.5 76t112.5 55t164.5 21q206 0 325 -109t119 -297v-646v0v0h-162v0v0v247
l60 -100h-66q-48 -80 -138 -129.5t-194 -49.5zM468 119q133 0 227.5 94t94.5 229v0q-50 34 -120 53t-146 19q-130 0 -206 -51t-76 -153v0q0 -85 64 -138t162 -53zM473 1200v0v0l-163 280v0v0h183v0v0l127 -280v0v0h-147z" />
    <glyph glyph-name="aacute" unicode="&#xe1;" horiz-adv-x="1070" 
d="M452 -32q-170 0 -277 96.5t-107 248.5v0q0 153 120.5 246t309.5 93q84 0 165 -19t127 -47v62q0 112 -79 182t-203 70q-66 0 -111 -15.5t-75.5 -38t-59 -53.5l-28.5 -31v0l-129 96v0l38.5 42t87.5 76t112.5 55t164.5 21q206 0 325 -109t119 -297v-646v0v0h-162v0v0v247
l60 -100h-66q-48 -80 -138 -129.5t-194 -49.5zM468 119q133 0 227.5 94t94.5 229v0q-50 34 -120 53t-146 19q-130 0 -206 -51t-76 -153v0q0 -85 64 -138t162 -53zM454 1200v0v0l127 280v0v0h183v0v0l-163 -280v0v0h-147z" />
    <glyph glyph-name="acircumflex" unicode="&#xe2;" horiz-adv-x="1070" 
d="M452 -32q-170 0 -277 96.5t-107 248.5v0q0 153 120.5 246t309.5 93q84 0 165 -19t127 -47v62q0 112 -79 182t-203 70q-66 0 -111 -15.5t-75.5 -38t-59 -53.5l-28.5 -31v0l-129 96v0l38.5 42t87.5 76t112.5 55t164.5 21q206 0 325 -109t119 -297v-646v0v0h-162v0v0v247
l60 -100h-66q-48 -80 -138 -129.5t-194 -49.5zM468 119q133 0 227.5 94t94.5 229v0q-50 34 -120 53t-146 19q-130 0 -206 -51t-76 -153v0q0 -85 64 -138t162 -53zM209 1200v0v0l247 280v0v0h162v0v0l247 -280v0v0h-161v0v0l-164 179h-6l-161 -179v0v0h-164z" />
    <glyph glyph-name="atilde" unicode="&#xe3;" horiz-adv-x="1070" 
d="M452 -32q-170 0 -277 96.5t-107 248.5v0q0 153 120.5 246t309.5 93q84 0 165 -19t127 -47v62q0 112 -79 182t-203 70q-66 0 -111 -15.5t-75.5 -38t-59 -53.5l-28.5 -31v0l-129 96v0l38.5 42t87.5 76t112.5 55t164.5 21q206 0 325 -109t119 -297v-646v0v0h-162v0v0v247
l60 -100h-66q-48 -80 -138 -129.5t-194 -49.5zM468 119q133 0 227.5 94t94.5 229v0q-50 34 -120 53t-146 19q-130 0 -206 -51t-76 -153v0q0 -85 64 -138t162 -53zM671 1195q-50 0 -93.5 22.5t-78.5 47.5q-27 19 -51.5 35.5t-48.5 16.5q-16 0 -29.5 -8.5t-22.5 -24t-12.5 -42
l-3.5 -26.5v0h-126v0l5.5 55t30 94t68 62.5t96.5 23.5q54 0 95 -23t77 -49q26 -20 51 -35t47 -15q19 0 32.5 8t21.5 23t10 42.5l2 27.5v0h128v0l-4 -53.5t-30 -94.5t-70.5 -64t-93.5 -23z" />
    <glyph glyph-name="adieresis" unicode="&#xe4;" horiz-adv-x="1070" 
d="M452 -32q-170 0 -277 96.5t-107 248.5v0q0 153 120.5 246t309.5 93q84 0 165 -19t127 -47v62q0 112 -79 182t-203 70q-66 0 -111 -15.5t-75.5 -38t-59 -53.5l-28.5 -31v0l-129 96v0l38.5 42t87.5 76t112.5 55t164.5 21q206 0 325 -109t119 -297v-646v0v0h-162v0v0v247
l60 -100h-66q-48 -80 -138 -129.5t-194 -49.5zM468 119q133 0 227.5 94t94.5 229v0q-50 34 -120 53t-146 19q-130 0 -206 -51t-76 -153v0q0 -85 64 -138t162 -53zM345 1231q-46 0 -79 33t-33 79q0 45 33 77.5t79 32.5q45 0 77.5 -32.5t32.5 -77.5q0 -46 -32.5 -79t-77.5 -33
zM732 1237q-45 0 -77 32.5t-32 77.5t32 76.5t77 31.5t77 -31.5t32 -76.5t-32 -77.5t-77 -32.5z" />
    <glyph glyph-name="aring" unicode="&#xe5;" horiz-adv-x="1070" 
d="M452 -32q-170 0 -277 96.5t-107 248.5v0q0 153 120.5 246t309.5 93q84 0 165 -19t127 -47v62q0 112 -79 182t-203 70q-66 0 -111 -15.5t-75.5 -38t-59 -53.5l-28.5 -31v0l-129 96v0l38.5 42t87.5 76t112.5 55t164.5 21q206 0 325 -109t119 -297v-646v0v0h-162v0v0v247
l60 -100h-66q-48 -80 -138 -129.5t-194 -49.5zM468 119q133 0 227.5 94t94.5 229v0q-50 34 -120 53t-146 19q-130 0 -206 -51t-76 -153v0q0 -85 64 -138t162 -53zM537 1161q-90 0 -153 64t-63 154t63 153t153 63t154 -63t64 -153t-64 -154t-154 -64zM537 1273q42 0 73 31
t31 75q0 42 -31 73t-73 31t-73 -31t-31 -73q0 -44 31 -75t73 -31z" />
    <glyph glyph-name="ae" unicode="&#xe6;" horiz-adv-x="1836" 
d="M452 -32q-170 0 -277 95t-107 247v0q0 154 120.5 248t309.5 94q84 0 165 -20t127 -48v62q0 112 -79 184t-203 72q-46 0 -88.5 -12.5t-82.5 -38.5t-71.5 -56.5l-31.5 -30.5v0l-129 97v0l39 40.5t93 76t123 55t148 19.5q139 0 240 -51.5t153 -150.5q67 108 163.5 155
t211.5 47q220 0 353 -132.5t133 -329.5v-112v0v0h-880v140h702v0q-6 120 -89 200t-219 80q-144 0 -234 -105t-90 -281v0q0 -178 98 -284t246 -106q67 0 117.5 18t89 50t67 74l28.5 42v0l143 -70v0l-35 -60.5t-98.5 -109.5t-137.5 -73.5t-180 -24.5q-139 0 -247.5 60.5
t-179.5 173.5q-93 -137 -200 -185.5t-211 -48.5zM468 119q133 0 227 93t95 228v0q-50 34 -120 54t-146 20q-130 0 -206 -52.5t-76 -154.5v0q0 -85 64 -136.5t162 -51.5z" />
    <glyph glyph-name="ccedilla" unicode="&#xe7;" horiz-adv-x="1085" 
d="M588 -32q-224 0 -370 154t-146 393v0q0 238 147.5 387.5t368.5 149.5q91 0 171 -26.5t147.5 -86t117.5 -169.5v0v0l-149 -64v0v0q-39 76 -80.5 116t-96.5 58t-118 18q-140 0 -240 -105t-100 -278v0q0 -173 99 -283t241 -110q65 0 121 19.5t95.5 54.5t89.5 121v0v0
l145 -72v0v0q-61 -114 -125.5 -168.5t-145.5 -81.5t-172 -27zM571 -504q-71 0 -124.5 38t-80.5 106v0v0l122 52v0v0q13 -36 36.5 -53t49.5 -17q34 0 57 24t23 60q0 38 -25.5 61.5t-56.5 23.5q-20 0 -37.5 -8.5t-27.5 -21.5v0v0l-125 55v0v0l106 194h132l-77 -110
q12 5 28.5 8t29.5 3q83 0 138 -56.5t55 -143.5q0 -92 -63.5 -153.5t-159.5 -61.5z" />
    <glyph glyph-name="egrave" unicode="&#xe8;" horiz-adv-x="1126" 
d="M580 -32q-222 0 -365 153t-143 391v0q0 233 140 386.5t354 153.5q220 0 353 -132.5t133 -329.5v-112v0v0h-880v140h702v0q-6 120 -89 200t-219 80q-144 0 -234 -105t-90 -281v0q0 -178 99.5 -284t247.5 -106q70 0 119.5 19t89.5 53.5t90 111.5v0v0l143 -70v0v0
q-54 -109 -119.5 -162t-144 -79.5t-187.5 -26.5zM504 1200v0v0l-163 280v0v0h183v0v0l127 -280v0v0h-147z" />
    <glyph glyph-name="eacute" unicode="&#xe9;" horiz-adv-x="1126" 
d="M580 -32q-222 0 -365 153t-143 391v0q0 233 140 386.5t354 153.5q220 0 353 -132.5t133 -329.5v-112v0v0h-880v140h702v0q-6 120 -89 200t-219 80q-144 0 -234 -105t-90 -281v0q0 -178 99.5 -284t247.5 -106q70 0 119.5 19t89.5 53.5t90 111.5v0v0l143 -70v0v0
q-54 -109 -119.5 -162t-144 -79.5t-187.5 -26.5zM485 1200v0v0l127 280v0v0h183v0v0l-163 -280v0v0h-147z" />
    <glyph glyph-name="ecircumflex" unicode="&#xea;" horiz-adv-x="1126" 
d="M580 -32q-222 0 -365 153t-143 391v0q0 233 140 386.5t354 153.5q220 0 353 -132.5t133 -329.5v-112v0v0h-880v140h702v0q-6 120 -89 200t-219 80q-144 0 -234 -105t-90 -281v0q0 -178 99.5 -284t247.5 -106q70 0 119.5 19t89.5 53.5t90 111.5v0v0l143 -70v0v0
q-54 -109 -119.5 -162t-144 -79.5t-187.5 -26.5zM240 1200v0v0l247 280v0v0h162v0v0l247 -280v0v0h-161v0v0l-164 179h-6l-161 -179v0v0h-164z" />
    <glyph glyph-name="edieresis" unicode="&#xeb;" horiz-adv-x="1126" 
d="M580 -32q-222 0 -365 153t-143 391v0q0 233 140 386.5t354 153.5q220 0 353 -132.5t133 -329.5v-112v0v0h-880v140h702v0q-6 120 -89 200t-219 80q-144 0 -234 -105t-90 -281v0q0 -178 99.5 -284t247.5 -106q70 0 119.5 19t89.5 53.5t90 111.5v0v0l143 -70v0v0
q-54 -109 -119.5 -162t-144 -79.5t-187.5 -26.5zM376 1231q-46 0 -79 33t-33 79q0 45 33 77.5t79 32.5q45 0 77.5 -32.5t32.5 -77.5q0 -46 -32.5 -79t-77.5 -33zM763 1237q-45 0 -77 32.5t-32 77.5t32 76.5t77 31.5t77 -31.5t32 -76.5t-32 -77.5t-77 -32.5z" />
    <glyph glyph-name="igrave" unicode="&#xec;" horiz-adv-x="452" 
d="M141 0v0v0v1020v0v0h170v0v0v-1020v0v0h-170zM162 1200v0v0l-163 280v0v0h183v0v0l127 -280v0v0h-147z" />
    <glyph glyph-name="iacute" unicode="&#xed;" horiz-adv-x="452" 
d="M141 0v0v0v1020v0v0h170v0v0v-1020v0v0h-170zM143 1200v0v0l127 280v0v0h183v0v0l-163 -280v0v0h-147z" />
    <glyph glyph-name="icircumflex" unicode="&#xee;" horiz-adv-x="452" 
d="M141 0v0v0v1020v0v0h170v0v0v-1020v0v0h-170zM-102 1200v0v0l247 280v0v0h162v0v0l247 -280v0v0h-161v0v0l-164 179h-6l-161 -179v0v0h-164z" />
    <glyph glyph-name="idieresis" unicode="&#xef;" horiz-adv-x="452" 
d="M141 0v0v0v1020v0v0h170v0v0v-1020v0v0h-170zM34 1231q-46 0 -79 33t-33 79q0 45 33 77.5t79 32.5q45 0 77.5 -32.5t32.5 -77.5q0 -46 -32.5 -79t-77.5 -33zM421 1237q-45 0 -77 32.5t-32 77.5t32 76.5t77 31.5t77 -31.5t32 -76.5t-32 -77.5t-77 -32.5z" />
    <glyph glyph-name="eth" unicode="&#xf0;" horiz-adv-x="1156" 
d="M566 -32q-220 0 -357 142t-137 370v0q0 219 136 360.5t346 141.5q102 0 175.5 -38t98.5 -74l10 6q-36 110 -117 201t-200.5 150.5t-244.5 87.5v0v0l56 145v0v0q237 -50 400 -180t247.5 -326.5t84.5 -433.5v0q0 -246 -138 -399t-360 -153zM566 122q140 0 234 97t94 259v0
q0 159 -93 254.5t-231 95.5q-140 0 -234 -95.5t-94 -254.5v0q0 -162 93 -259t231 -97zM383 1031v0v0l-49 116v0v0l256 113l72 32l215 95v0v0l50 -115v0v0l-167 -73l-65 -29z" />
    <glyph glyph-name="ntilde" unicode="&#xf1;" horiz-adv-x="1122" 
d="M126 0v1020v0v0h162v0v0v-180l-27 30h33q44 78 137 130t195 52q180 0 279 -105t99 -293v-654v0v0h-170v0v0v628q0 134 -64 202t-190 68q-120 0 -202 -96t-82 -228v-574v0v0h-170v0v0zM706 1195q-50 0 -93.5 22.5t-78.5 47.5q-27 19 -51.5 35.5t-48.5 16.5
q-16 0 -29.5 -8.5t-22.5 -24t-12.5 -42l-3.5 -26.5v0h-126v0l5.5 55t30 94t68 62.5t96.5 23.5q54 0 95 -23t77 -49q26 -20 51 -35t47 -15q19 0 32.5 8t21.5 23t10 42.5l2 27.5v0h128v0l-4 -53.5t-30 -94.5t-70.5 -64t-93.5 -23z" />
    <glyph glyph-name="ograve" unicode="&#xf2;" horiz-adv-x="1192" 
d="M596 -32q-226 0 -375 155t-149 388v0q0 237 149.5 389t374.5 152q224 0 374 -153.5t150 -387.5v0q0 -233 -148.5 -388t-375.5 -155zM596 122q150 0 252 109t102 280v0q0 174 -103 280.5t-251 106.5q-150 0 -252.5 -107t-102.5 -280v0q0 -171 101.5 -280t253.5 -109z
M532 1200v0v0l-163 280v0v0h183v0v0l127 -280v0v0h-147z" />
    <glyph glyph-name="oacute" unicode="&#xf3;" horiz-adv-x="1192" 
d="M596 -32q-226 0 -375 155t-149 388v0q0 237 149.5 389t374.5 152q224 0 374 -153.5t150 -387.5v0q0 -233 -148.5 -388t-375.5 -155zM596 122q150 0 252 109t102 280v0q0 174 -103 280.5t-251 106.5q-150 0 -252.5 -107t-102.5 -280v0q0 -171 101.5 -280t253.5 -109z
M513 1200v0v0l127 280v0v0h183v0v0l-163 -280v0v0h-147z" />
    <glyph glyph-name="ocircumflex" unicode="&#xf4;" horiz-adv-x="1192" 
d="M596 -32q-226 0 -375 155t-149 388v0q0 237 149.5 389t374.5 152q224 0 374 -153.5t150 -387.5v0q0 -233 -148.5 -388t-375.5 -155zM596 122q150 0 252 109t102 280v0q0 174 -103 280.5t-251 106.5q-150 0 -252.5 -107t-102.5 -280v0q0 -171 101.5 -280t253.5 -109z
M268 1200v0v0l247 280v0v0h162v0v0l247 -280v0v0h-161v0v0l-164 179h-6l-161 -179v0v0h-164z" />
    <glyph glyph-name="otilde" unicode="&#xf5;" horiz-adv-x="1192" 
d="M596 -32q-226 0 -375 155t-149 388v0q0 237 149.5 389t374.5 152q224 0 374 -153.5t150 -387.5v0q0 -233 -148.5 -388t-375.5 -155zM596 122q150 0 252 109t102 280v0q0 174 -103 280.5t-251 106.5q-150 0 -252.5 -107t-102.5 -280v0q0 -171 101.5 -280t253.5 -109z
M730 1195q-50 0 -93.5 22.5t-78.5 47.5q-27 19 -51.5 35.5t-48.5 16.5q-16 0 -29.5 -8.5t-22.5 -24t-12.5 -42l-3.5 -26.5v0h-126v0l5.5 55t30 94t68 62.5t96.5 23.5q54 0 95 -23t77 -49q26 -20 51 -35t47 -15q19 0 32.5 8t21.5 23t10 42.5l2 27.5v0h128v0l-4 -53.5
t-30 -94.5t-70.5 -64t-93.5 -23z" />
    <glyph glyph-name="odieresis" unicode="&#xf6;" horiz-adv-x="1192" 
d="M596 -32q-226 0 -375 155t-149 388v0q0 237 149.5 389t374.5 152q224 0 374 -153.5t150 -387.5v0q0 -233 -148.5 -388t-375.5 -155zM596 122q150 0 252 109t102 280v0q0 174 -103 280.5t-251 106.5q-150 0 -252.5 -107t-102.5 -280v0q0 -171 101.5 -280t253.5 -109z
M404 1231q-46 0 -79 33t-33 79q0 45 33 77.5t79 32.5q45 0 77.5 -32.5t32.5 -77.5q0 -46 -32.5 -79t-77.5 -33zM791 1237q-45 0 -77 32.5t-32 77.5t32 76.5t77 31.5t77 -31.5t32 -76.5t-32 -77.5t-77 -32.5z" />
    <glyph glyph-name="divide" unicode="&#xf7;" horiz-adv-x="1116" 
d="M123 543v0v0v154v0v0h870v0v0v-154v0v0h-870zM558 848q-54 0 -91 37t-37 89q0 54 37 91t91 37t91 -37t37 -91q0 -52 -37 -89t-91 -37zM558 138q-54 0 -91 37t-37 91q0 52 37 89t91 37t91 -37t37 -89q0 -54 -37 -91t-91 -37z" />
    <glyph glyph-name="oslash" unicode="&#xf8;" horiz-adv-x="1192" 
d="M596 -32q-226 0 -375 155t-149 388v0q0 237 149.5 389t374.5 152q224 0 374 -153.5t150 -387.5v0q0 -233 -148.5 -388t-375.5 -155zM596 122q150 0 252 109t102 280v0q0 174 -103 280.5t-251 106.5q-150 0 -252.5 -107t-102.5 -280v0q0 -171 101.5 -280t253.5 -109z
M203 -1v0v0l89 142l36 58l445 714l29 47l79 127v0v0l108 -66v0v0l-86 -136l-44 -71l-431 -694l-29 -47l-87 -140v0v0z" />
    <glyph glyph-name="ugrave" unicode="&#xf9;" horiz-adv-x="1122" 
d="M496 -32q-182 0 -280 107t-98 303v642v0v0h170v0v0v-616q0 -138 63 -210t181 -72q124 0 209 95t85 227v576v0v0h170v0v0v-1020v0v0h-162v0v0v225l77 -77h-83q-44 -78 -137 -129t-195 -51zM496 1200v0v0l-163 280v0v0h183v0v0l127 -280v0v0h-147z" />
    <glyph glyph-name="uacute" unicode="&#xfa;" horiz-adv-x="1122" 
d="M496 -32q-182 0 -280 107t-98 303v642v0v0h170v0v0v-616q0 -138 63 -210t181 -72q124 0 209 95t85 227v576v0v0h170v0v0v-1020v0v0h-162v0v0v225l77 -77h-83q-44 -78 -137 -129t-195 -51zM477 1200v0v0l127 280v0v0h183v0v0l-163 -280v0v0h-147z" />
    <glyph glyph-name="ucircumflex" unicode="&#xfb;" horiz-adv-x="1122" 
d="M496 -32q-182 0 -280 107t-98 303v642v0v0h170v0v0v-616q0 -138 63 -210t181 -72q124 0 209 95t85 227v576v0v0h170v0v0v-1020v0v0h-162v0v0v225l77 -77h-83q-44 -78 -137 -129t-195 -51zM232 1200v0v0l247 280v0v0h162v0v0l247 -280v0v0h-161v0v0l-164 179h-6l-161 -179
v0v0h-164z" />
    <glyph glyph-name="udieresis" unicode="&#xfc;" horiz-adv-x="1122" 
d="M496 -32q-182 0 -280 107t-98 303v642v0v0h170v0v0v-616q0 -138 63 -210t181 -72q124 0 209 95t85 227v576v0v0h170v0v0v-1020v0v0h-162v0v0v225l77 -77h-83q-44 -78 -137 -129t-195 -51zM368 1231q-46 0 -79 33t-33 79q0 45 33 77.5t79 32.5q45 0 77.5 -32.5t32.5 -77.5
q0 -46 -32.5 -79t-77.5 -33zM755 1237q-45 0 -77 32.5t-32 77.5t32 76.5t77 31.5t77 -31.5t32 -76.5t-32 -77.5t-77 -32.5z" />
    <glyph glyph-name="yacute" unicode="&#xfd;" horiz-adv-x="1026" 
d="M207 -432v0v0l257 560l6 -128l-457 1020v0v0h184v0v0l296 -688l25 -70h6l27 72l278 686v0v0h183v0v0l-628 -1452v0v0h-177zM435 1200v0v0l127 280v0v0h183v0v0l-163 -280v0v0h-147z" />
    <glyph glyph-name="thorn" unicode="&#xfe;" horiz-adv-x="1204" 
d="M126 -432v0v0v1864v0v0h169v0v0v-564h6q44 82 138.5 133t204.5 51q207 0 347.5 -150.5t140.5 -390.5v0q0 -235 -139 -389t-349 -154q-110 0 -204 45.5t-138 124.5h-6v-570v0v0h-170zM626 122q142 0 239 110t97 279v0q0 173 -98 280t-238 107t-239 -107t-99 -280v0
q0 -169 98 -279t240 -110z" />
    <glyph glyph-name="ydieresis" unicode="&#xff;" horiz-adv-x="1026" 
d="M207 -432v0v0l257 560l6 -128l-457 1020v0v0h184v0v0l296 -688l25 -70h6l27 72l278 686v0v0h183v0v0l-628 -1452v0v0h-177zM326 1231q-46 0 -79 33t-33 79q0 45 33 77.5t79 32.5q45 0 77.5 -32.5t32.5 -77.5q0 -46 -32.5 -79t-77.5 -33zM713 1237q-45 0 -77 32.5
t-32 77.5t32 76.5t77 31.5t77 -31.5t32 -76.5t-32 -77.5t-77 -32.5z" />
    <glyph glyph-name="Amacron" unicode="&#x100;" horiz-adv-x="1340" 
d="M30 0v0v0l545 1432v0v0h195v0v0l540 -1432v0v0h-187v0v0l-392 1072l-57 172h-6l-57 -172l-397 -1072v0v0h-184zM262 394l58 160h660l58 -160h-776zM394 1673v0v0v134v0v0h554v0v0v-134v0v0h-554z" />
    <glyph glyph-name="amacron" unicode="&#x101;" horiz-adv-x="1070" 
d="M452 -32q-170 0 -277 96.5t-107 248.5v0q0 153 120.5 246t309.5 93q84 0 165 -19t127 -47v62q0 112 -79 182t-203 70q-66 0 -111 -15.5t-75.5 -38t-59 -53.5l-28.5 -31v0l-129 96v0l38.5 42t87.5 76t112.5 55t164.5 21q206 0 325 -109t119 -297v-646v0v0h-162v0v0v247
l60 -100h-66q-48 -80 -138 -129.5t-194 -49.5zM468 119q133 0 227.5 94t94.5 229v0q-50 34 -120 53t-146 19q-130 0 -206 -51t-76 -153v0q0 -85 64 -138t162 -53zM261 1261v0v0v134v0v0h554v0v0v-134v0v0h-554z" />
    <glyph glyph-name="Abreve" unicode="&#x102;" horiz-adv-x="1340" 
d="M30 0v0v0l545 1432v0v0h195v0v0l540 -1432v0v0h-187v0v0l-392 1072l-57 172h-6l-57 -172l-397 -1072v0v0h-184zM262 394l58 160h660l58 -160h-776zM670 1612q-135 0 -210 71t-84 209v0v0h139v0v0q7 -75 47 -116.5t108 -41.5q67 0 108 41.5t49 116.5v0v0h137v0v0
q-11 -138 -85.5 -209t-208.5 -71z" />
    <glyph glyph-name="abreve" unicode="&#x103;" horiz-adv-x="1070" 
d="M452 -32q-170 0 -277 96.5t-107 248.5v0q0 153 120.5 246t309.5 93q84 0 165 -19t127 -47v62q0 112 -79 182t-203 70q-66 0 -111 -15.5t-75.5 -38t-59 -53.5l-28.5 -31v0l-129 96v0l38.5 42t87.5 76t112.5 55t164.5 21q206 0 325 -109t119 -297v-646v0v0h-162v0v0v247
l60 -100h-66q-48 -80 -138 -129.5t-194 -49.5zM468 119q133 0 227.5 94t94.5 229v0q-50 34 -120 53t-146 19q-130 0 -206 -51t-76 -153v0q0 -85 64 -138t162 -53zM537 1200q-135 0 -210 71t-84 209v0v0h139v0v0q7 -75 47 -116.5t108 -41.5q67 0 108 41.5t49 116.5v0v0h137v0
v0q-11 -138 -85.5 -209t-208.5 -71z" />
    <glyph glyph-name="Aogonek" unicode="&#x104;" horiz-adv-x="1340" 
d="M30 0v0v0l545 1432v0v0h195v0v0l540 -1432v0v0h-187v0v0l-392 1072l-57 172h-6l-57 -172l-397 -1072v0v0h-184zM262 394l58 160h660l58 -160h-776zM1236 -464q-105 0 -170.5 57t-65.5 150q0 80 47.5 152t126.5 117l136 -12q-76 -62 -110 -112.5t-34 -101.5
q0 -48 28 -75.5t77 -27.5q17 0 31 2.5t44 13.5v0v0v-146v0v0q-32 -10 -54 -13.5t-56 -3.5z" />
    <glyph glyph-name="aogonek" unicode="&#x105;" horiz-adv-x="1070" 
d="M452 -32q-170 0 -277 96.5t-107 248.5v0q0 153 120.5 246t309.5 93q84 0 165 -19t127 -47v62q0 112 -79 182t-203 70q-66 0 -111 -15.5t-75.5 -38t-59 -53.5l-28.5 -31v0l-129 96v0l38.5 42t87.5 76t112.5 55t164.5 21q206 0 325 -109t119 -297v-646v0v0h-162v0v0v247
l60 -100h-66q-48 -80 -138 -129.5t-194 -49.5zM468 119q133 0 227.5 94t94.5 229v0q-50 34 -120 53t-146 19q-130 0 -206 -51t-76 -153v0q0 -85 64 -138t162 -53zM878 -464q-105 0 -170.5 57t-65.5 150q0 80 47.5 152t126.5 117l136 -12q-76 -62 -110 -112.5t-34 -101.5
q0 -48 28 -75.5t77 -27.5q17 0 31 2.5t44 13.5v0v0v-146v0v0q-32 -10 -54 -13.5t-56 -3.5z" />
    <glyph glyph-name="Cacute" unicode="&#x106;" horiz-adv-x="1472" 
d="M833 -32q-316 0 -529.5 215.5t-213.5 536.5v0q0 322 214.5 533t527.5 211q105 0 201.5 -28t174.5 -78.5t119 -97.5l41 -47v0l-122 -105v0l-39.5 42.5t-95 77.5t-125 54.5t-154.5 19.5q-241 0 -405.5 -160.5t-164.5 -420.5v0q0 -260 163 -425t407 -165q87 0 163 24.5
t144 68.5t103.5 84.5l35.5 40.5v0l126 -114v0l-48 -54t-131.5 -105.5t-181.5 -79.5t-210 -28zM765 1612v0v0l127 280v0v0h183v0v0l-163 -280v0v0h-147z" />
    <glyph glyph-name="cacute" unicode="&#x107;" horiz-adv-x="1085" 
d="M588 -32q-224 0 -370 154t-146 393v0q0 238 147.5 387.5t368.5 149.5q91 0 171 -26.5t147.5 -86t117.5 -169.5v0v0l-149 -64v0v0q-39 76 -80.5 116t-96.5 58t-118 18q-140 0 -240 -105t-100 -278v0q0 -173 99 -283t241 -110q65 0 121 19.5t95.5 54.5t89.5 121v0v0
l145 -72v0v0q-61 -114 -125.5 -168.5t-145.5 -81.5t-172 -27zM501 1200v0v0l127 280v0v0h183v0v0l-163 -280v0v0h-147z" />
    <glyph glyph-name="Cdotaccent" unicode="&#x10a;" horiz-adv-x="1472" 
d="M833 -32q-316 0 -529.5 215.5t-213.5 536.5v0q0 322 214.5 533t527.5 211q105 0 201.5 -28t174.5 -78.5t119 -97.5l41 -47v0l-122 -105v0l-39.5 42.5t-95 77.5t-125 54.5t-154.5 19.5q-241 0 -405.5 -160.5t-164.5 -420.5v0q0 -260 163 -425t407 -165q87 0 163 24.5
t144 68.5t103.5 84.5l35.5 40.5v0l126 -114v0l-48 -54t-131.5 -105.5t-181.5 -79.5t-210 -28zM848 1644q-47 0 -81 34t-34 81q0 49 34 81t81 32q49 0 81 -32t32 -81q0 -47 -32 -81t-81 -34z" />
    <glyph glyph-name="cdotaccent" unicode="&#x10b;" horiz-adv-x="1085" 
d="M588 -32q-224 0 -370 154t-146 393v0q0 238 147.5 387.5t368.5 149.5q91 0 171 -26.5t147.5 -86t117.5 -169.5v0v0l-149 -64v0v0q-39 76 -80.5 116t-96.5 58t-118 18q-140 0 -240 -105t-100 -278v0q0 -173 99 -283t241 -110q65 0 121 19.5t95.5 54.5t89.5 121v0v0
l145 -72v0v0q-61 -114 -125.5 -168.5t-145.5 -81.5t-172 -27zM584 1232q-47 0 -81 34t-34 81q0 49 34 81t81 32q49 0 81 -32t32 -81q0 -47 -32 -81t-81 -34z" />
    <glyph glyph-name="Ccaron" unicode="&#x10c;" horiz-adv-x="1472" 
d="M833 -32q-316 0 -529.5 215.5t-213.5 536.5v0q0 322 214.5 533t527.5 211q105 0 201.5 -28t174.5 -78.5t119 -97.5l41 -47v0l-122 -105v0l-39.5 42.5t-95 77.5t-125 54.5t-154.5 19.5q-241 0 -405.5 -160.5t-164.5 -420.5v0q0 -260 163 -425t407 -165q87 0 163 24.5
t144 68.5t103.5 84.5l35.5 40.5v0l126 -114v0l-48 -54t-131.5 -105.5t-181.5 -79.5t-210 -28zM767 1612v0v0l-247 280v0v0h161v0v0l164 -179h6l161 179v0v0h164v0v0l-247 -280v0v0h-162z" />
    <glyph glyph-name="ccaron" unicode="&#x10d;" horiz-adv-x="1085" 
d="M588 -32q-224 0 -370 154t-146 393v0q0 238 147.5 387.5t368.5 149.5q91 0 171 -26.5t147.5 -86t117.5 -169.5v0v0l-149 -64v0v0q-39 76 -80.5 116t-96.5 58t-118 18q-140 0 -240 -105t-100 -278v0q0 -173 99 -283t241 -110q65 0 121 19.5t95.5 54.5t89.5 121v0v0
l145 -72v0v0q-61 -114 -125.5 -168.5t-145.5 -81.5t-172 -27zM503 1200v0v0l-247 280v0v0h161v0v0l164 -179h6l161 179v0v0h164v0v0l-247 -280v0v0h-162z" />
    <glyph glyph-name="Dcaron" unicode="&#x10e;" horiz-adv-x="1406" 
d="M160 0v0v0v1432v0v0h432q327 0 525.5 -195.5t198.5 -517.5v0q0 -325 -198 -522t-526 -197h-432zM330 162h262q258 0 405 147t147 410v0q0 260 -147.5 405.5t-404.5 145.5h-262v-1108zM570 1612v0v0l-247 280v0v0h161v0v0l164 -179h6l161 179v0v0h164v0v0l-247 -280v0v0
h-162z" />
    <glyph glyph-name="dcaron" unicode="&#x10f;" horiz-adv-x="1424" 
d="M560 -32q-210 0 -349 153t-139 389v0q0 237 140 388.5t348 151.5q110 0 202.5 -51t139.5 -133h6v566v0v0h170v0v0v-1432v0v0h-162v0v0v188l20 -40h-26q-50 -82 -145 -131t-205 -49zM578 120q142 0 240 110t98 281v0q0 171 -99 278t-239 107t-239 -107t-99 -279v0
q0 -170 98 -280t240 -110zM1232 1067v0v0v397v0v0h174v0v0l-51 -397v0v0h-123z" />
    <glyph glyph-name="Dcroat" unicode="&#x110;" horiz-adv-x="1406" 
d="M160 0v0v0v1432v0v0h432q327 0 525.5 -195.5t198.5 -517.5v0q0 -325 -198 -522t-526 -197h-432zM330 162h262q258 0 405 147t147 410v0q0 260 -147.5 405.5t-404.5 145.5h-262v-1108zM-1 650v0v0v140v0v0h728v0v0v-140v0v0h-728z" />
    <glyph glyph-name="dcroat" unicode="&#x111;" horiz-adv-x="1219" 
d="M560 -32q-210 0 -349 150.5t-139 383.5v0q0 233 140 382.5t348 149.5q110 0 202.5 -50t139.5 -131h6v579v0v0h170v0v0v-1432v0v0h-162v0v0v148h-6q-50 -82 -145 -131t-205 -49zM578 118q142 0 240 108t98 277v0q0 168 -99 273.5t-239 105.5t-239 -105.5t-99 -274.5v0
q0 -168 98 -276t240 -108zM611 1140v0v0v130v0v0h634v0v0v-130v0v0h-634z" />
    <glyph glyph-name="Emacron" unicode="&#x112;" horiz-adv-x="1102" 
d="M160 0v0v0v1432v0v0h796v0v0v-162v0v0h-626v-1108h638v0v0v-162v0v0h-808zM250 636v160h674v0v0v-160v0v0h-674zM298 1673v0v0v134v0v0h554v0v0v-134v0v0h-554z" />
    <glyph glyph-name="emacron" unicode="&#x113;" horiz-adv-x="1126" 
d="M580 -32q-222 0 -365 153t-143 391v0q0 233 140 386.5t354 153.5q220 0 353 -132.5t133 -329.5v-112v0v0h-880v140h702v0q-6 120 -89 200t-219 80q-144 0 -234 -105t-90 -281v0q0 -178 99.5 -284t247.5 -106q70 0 119.5 19t89.5 53.5t90 111.5v0v0l143 -70v0v0
q-54 -109 -119.5 -162t-144 -79.5t-187.5 -26.5zM292 1261v0v0v134v0v0h554v0v0v-134v0v0h-554z" />
    <glyph glyph-name="Edotaccent" unicode="&#x116;" horiz-adv-x="1102" 
d="M160 0v0v0v1432v0v0h796v0v0v-162v0v0h-626v-1108h638v0v0v-162v0v0h-808zM250 636v160h674v0v0v-160v0v0h-674zM574 1644q-47 0 -81 34t-34 81q0 49 34 81t81 32q49 0 81 -32t32 -81q0 -47 -32 -81t-81 -34z" />
    <glyph glyph-name="edotaccent" unicode="&#x117;" horiz-adv-x="1126" 
d="M580 -32q-222 0 -365 153t-143 391v0q0 233 140 386.5t354 153.5q220 0 353 -132.5t133 -329.5v-112v0v0h-880v140h702v0q-6 120 -89 200t-219 80q-144 0 -234 -105t-90 -281v0q0 -178 99.5 -284t247.5 -106q70 0 119.5 19t89.5 53.5t90 111.5v0v0l143 -70v0v0
q-54 -109 -119.5 -162t-144 -79.5t-187.5 -26.5zM568 1232q-47 0 -81 34t-34 81q0 49 34 81t81 32q49 0 81 -32t32 -81q0 -47 -32 -81t-81 -34z" />
    <glyph glyph-name="Eogonek" unicode="&#x118;" horiz-adv-x="1102" 
d="M160 0v0v0v1432v0v0h796v0v0v-162v0v0h-626v-1108h638v0v0v-162v0v0h-808zM250 636v160h674v0v0v-160v0v0h-674zM894 -464q-105 0 -170.5 57t-65.5 150q0 80 47.5 152t126.5 117l136 -12q-76 -62 -110 -112.5t-34 -101.5q0 -48 28 -75.5t77 -27.5q17 0 31 2.5t44 13.5v0
v0v-146v0v0q-32 -10 -54 -13.5t-56 -3.5z" />
    <glyph glyph-name="eogonek" unicode="&#x119;" horiz-adv-x="1126" 
d="M580 -32q-222 0 -365 153t-143 391v0q0 233 140 386.5t354 153.5q220 0 353 -132.5t133 -329.5v-112v0v0h-880v140h702v0q-6 120 -89 200t-219 80q-144 0 -234 -105t-90 -281v0q0 -178 99.5 -284t247.5 -106q70 0 119.5 19t89.5 53.5t90 111.5v0v0l143 -70v0v0
q-54 -109 -119.5 -162t-144 -79.5t-187.5 -26.5zM838 -379q-105 0 -170.5 57t-65.5 150q0 80 47.5 152t126.5 117l136 -12q-76 -62 -110 -112.5t-34 -101.5q0 -48 28 -75.5t77 -27.5q17 0 31 2.5t44 13.5v0v0v-146v0v0q-32 -10 -54 -13.5t-56 -3.5z" />
    <glyph glyph-name="Ecaron" unicode="&#x11a;" horiz-adv-x="1102" 
d="M160 0v0v0v1432v0v0h796v0v0v-162v0v0h-626v-1108h638v0v0v-162v0v0h-808zM250 636v160h674v0v0v-160v0v0h-674zM493 1612v0v0l-247 280v0v0h161v0v0l164 -179h6l161 179v0v0h164v0v0l-247 -280v0v0h-162z" />
    <glyph glyph-name="ecaron" unicode="&#x11b;" horiz-adv-x="1126" 
d="M580 -32q-222 0 -365 153t-143 391v0q0 233 140 386.5t354 153.5q220 0 353 -132.5t133 -329.5v-112v0v0h-880v140h702v0q-6 120 -89 200t-219 80q-144 0 -234 -105t-90 -281v0q0 -178 99.5 -284t247.5 -106q70 0 119.5 19t89.5 53.5t90 111.5v0v0l143 -70v0v0
q-54 -109 -119.5 -162t-144 -79.5t-187.5 -26.5zM487 1200v0v0l-247 280v0v0h161v0v0l164 -179h6l161 179v0v0h164v0v0l-247 -280v0v0h-162z" />
    <glyph glyph-name="Gbreve" unicode="&#x11e;" horiz-adv-x="1578" 
d="M832 -32q-310 5 -526 222t-216 530v0q0 315 217 529.5t525 214.5q102 0 195.5 -22t167.5 -63.5t121.5 -88l47.5 -46.5v0l-118 -121v0l-42.5 41.5t-98.5 73t-124 48t-145 16.5q-242 0 -408 -162t-166 -419v0q0 -257 166 -424t406 -167q226 0 369 125t161 349v0h-528v0v0
v158v0v0h696v0v0l2 -102q0 -306 -197 -499t-505 -193zM826 1612q-135 0 -210 71t-84 209v0v0h139v0v0q7 -75 47 -116.5t108 -41.5q67 0 108 41.5t49 116.5v0v0h137v0v0q-11 -138 -85.5 -209t-208.5 -71z" />
    <glyph glyph-name="gbreve" unicode="&#x11f;" horiz-adv-x="1194" 
d="M574 -464q-93 0 -173.5 26t-145.5 77t-99.5 112.5l-34.5 61.5v0l150 78v0l29.5 -48.5t71 -83t94 -52t108.5 -17.5q158 0 241 92t83 260v114h-6q-52 -82 -141 -129t-201 -47q-204 0 -341 147t-137 392v0q0 241 138 387t340 146q110 0 204 -48t146 -130h46l-40 -50v196v0v0
h162v0v0v-980q0 -239 -132 -371.5t-362 -132.5zM574 134q144 0 238 106t94 282v0q0 172 -94 274t-238 102q-143 0 -238.5 -101.5t-95.5 -277.5v0q0 -185 94 -285t240 -100zM554 1200q-135 0 -210 71t-84 209v0v0h139v0v0q7 -75 47 -116.5t108 -41.5q67 0 108 41.5t49 116.5
v0v0h137v0v0q-11 -138 -85.5 -209t-208.5 -71z" />
    <glyph glyph-name="Gdotaccent" unicode="&#x120;" horiz-adv-x="1578" 
d="M832 -32q-310 5 -526 222t-216 530v0q0 315 217 529.5t525 214.5q102 0 195.5 -22t167.5 -63.5t121.5 -88l47.5 -46.5v0l-118 -121v0l-42.5 41.5t-98.5 73t-124 48t-145 16.5q-242 0 -408 -162t-166 -419v0q0 -257 166 -424t406 -167q226 0 369 125t161 349v0h-528v0v0
v158v0v0h696v0v0l2 -102q0 -306 -197 -499t-505 -193zM826 1644q-47 0 -81 34t-34 81q0 49 34 81t81 32q49 0 81 -32t32 -81q0 -47 -32 -81t-81 -34z" />
    <glyph glyph-name="gdotaccent" unicode="&#x121;" horiz-adv-x="1194" 
d="M574 -464q-93 0 -173.5 26t-145.5 77t-99.5 112.5l-34.5 61.5v0l150 78v0l29.5 -48.5t71 -83t94 -52t108.5 -17.5q158 0 241 92t83 260v114h-6q-52 -82 -141 -129t-201 -47q-204 0 -341 147t-137 392v0q0 241 138 387t340 146q110 0 204 -48t146 -130h46l-40 -50v196v0v0
h162v0v0v-980q0 -239 -132 -371.5t-362 -132.5zM574 134q144 0 238 106t94 282v0q0 172 -94 274t-238 102q-143 0 -238.5 -101.5t-95.5 -277.5v0q0 -185 94 -285t240 -100zM554 1232q-47 0 -81 34t-34 81q0 49 34 81t81 32q49 0 81 -32t32 -81q0 -47 -32 -81t-81 -34z" />
    <glyph glyph-name="uni0122" unicode="&#x122;" horiz-adv-x="1578" 
d="M832 -32q-310 5 -526 222t-216 530v0q0 315 217 529.5t525 214.5q102 0 195.5 -22t167.5 -63.5t121.5 -88l47.5 -46.5v0l-118 -121v0l-42.5 41.5t-98.5 73t-124 48t-145 16.5q-242 0 -408 -162t-166 -419v0q0 -257 166 -424t406 -167q226 0 369 125t161 349v0h-528v0v0
v158v0v0h696v0v0l2 -102q0 -306 -197 -499t-505 -193zM663 -547l105 157q-34 7 -61 39t-27 76q0 52 37 89t91 37t91 -37t37 -89q0 -28 -11 -58t-43 -78l-130 -194v0z" />
    <glyph glyph-name="uni0123" unicode="&#x123;" horiz-adv-x="1194" 
d="M574 -464q-93 0 -173.5 26t-145.5 77t-99.5 112.5l-34.5 61.5v0l150 78v0l29.5 -48.5t71 -83t94 -52t108.5 -17.5q158 0 241 92t83 260v114h-6q-52 -82 -141 -129t-201 -47q-204 0 -341 147t-137 392v0q0 241 138 387t340 146q110 0 204 -48t146 -130h46l-40 -50v196v0v0
h162v0v0v-980q0 -239 -132 -371.5t-362 -132.5zM574 134q144 0 238 106t94 282v0q0 172 -94 274t-238 102q-143 0 -238.5 -101.5t-95.5 -277.5v0q0 -185 94 -285t240 -100zM696 1567l-105 -157q34 -7 61 -39t27 -76q0 -52 -37 -89t-91 -37t-91 37t-37 89q0 28 11 58t43 78
l130 194v0z" />
    <glyph glyph-name="Hbar" unicode="&#x126;" horiz-adv-x="1424" 
d="M1080 0v0v0v1432v0v0h170v0v0v-1432v0v0h-170zM174 0v0v0v1432v0v0h170v0v0v-1432v0v0h-170zM274 652v162h876v-162h-876zM110 1068h-60v67v67h60h1204h60v-67v-67h-60h-1204z" />
    <glyph glyph-name="hbar" unicode="&#x127;" horiz-adv-x="1143" 
d="M141 0v0v0v1432v0v0h170v0v0v-578h8q44 80 132 131t192 51q182 0 282 -106t100 -292v-638v0v0h-170v0v0v612q0 130 -66 200t-186 70q-118 0 -205 -100t-87 -230v-552v0v0h-170zM-26 1140v0v0v130v0v0h634v0v0v-130v0v0h-634z" />
    <glyph glyph-name="Itilde" unicode="&#x128;" horiz-adv-x="490" 
d="M160 0v0v0v1432v0v0h170v0v0v-1432v0v0h-170zM379 1607q-50 0 -93.5 22.5t-78.5 47.5q-27 19 -51.5 35.5t-48.5 16.5q-16 0 -29.5 -8.5t-22.5 -24t-12.5 -42l-3.5 -26.5v0h-126v0l5.5 55t30 94t68 62.5t96.5 23.5q54 0 95 -23t77 -49q26 -20 51 -35t47 -15q19 0 32.5 8
t21.5 23t10 42.5l2 27.5v0h128v0l-4 -53.5t-30 -94.5t-70.5 -64t-93.5 -23z" />
    <glyph glyph-name="itilde" unicode="&#x129;" horiz-adv-x="452" 
d="M141 0v0v0v1020v0v0h170v0v0v-1020v0v0h-170zM360 1195q-50 0 -93.5 22.5t-78.5 47.5q-27 19 -51.5 35.5t-48.5 16.5q-16 0 -29.5 -8.5t-22.5 -24t-12.5 -42l-3.5 -26.5v0h-126v0l5.5 55t30 94t68 62.5t96.5 23.5q54 0 95 -23t77 -49q26 -20 51 -35t47 -15q19 0 32.5 8
t21.5 23t10 42.5l2 27.5v0h128v0l-4 -53.5t-30 -94.5t-70.5 -64t-93.5 -23z" />
    <glyph glyph-name="Imacron" unicode="&#x12a;" horiz-adv-x="490" 
d="M160 0v0v0v1432v0v0h170v0v0v-1432v0v0h-170zM-31 1673v0v0v134v0v0h554v0v0v-134v0v0h-554z" />
    <glyph glyph-name="imacron" unicode="&#x12b;" horiz-adv-x="452" 
d="M141 0v0v0v1020v0v0h170v0v0v-1020v0v0h-170zM-50 1261v0v0v134v0v0h554v0v0v-134v0v0h-554z" />
    <glyph glyph-name="Iogonek" unicode="&#x12e;" horiz-adv-x="490" 
d="M160 0v0v0v1432v0v0h170v0v0v-1432v0v0h-170zM256 -464q-105 0 -170.5 57t-65.5 150q0 80 47.5 152t126.5 117l136 -12q-76 -62 -110 -112.5t-34 -101.5q0 -48 28 -75.5t77 -27.5q17 0 31 2.5t44 13.5v0v0v-146v0v0q-32 -10 -54 -13.5t-56 -3.5z" />
    <glyph glyph-name="iogonek" unicode="&#x12f;" horiz-adv-x="452" 
d="M141 0v0v0v1020v0v0h170v0v0v-1020v0v0h-170zM226 1232q-47 0 -81 34t-34 81q0 49 34 81t81 32q49 0 81 -32t32 -81q0 -47 -32 -81t-81 -34zM237 -464q-105 0 -170.5 57t-65.5 150q0 80 47.5 152t126.5 117l136 -12q-76 -62 -110 -112.5t-34 -101.5q0 -48 28 -75.5
t77 -27.5q17 0 31 2.5t44 13.5v0v0v-146v0v0q-32 -10 -54 -13.5t-56 -3.5z" />
    <glyph glyph-name="Idotaccent" unicode="&#x130;" horiz-adv-x="490" 
d="M160 0v0v0v1432v0v0h170v0v0v-1432v0v0h-170zM245 1644q-47 0 -81 34t-34 81q0 49 34 81t81 32q49 0 81 -32t32 -81q0 -47 -32 -81t-81 -34z" />
    <glyph glyph-name="dotlessi" unicode="&#x131;" horiz-adv-x="452" 
d="M141 0v0v0v1020v0v0h170v0v0v-1020v0v0h-170z" />
    <glyph glyph-name="IJ" unicode="&#x132;" horiz-adv-x="1550" 
d="M160 0v0v0v1432v0v0h170v0v0v-1432v0v0h-170zM976 -32q-111 0 -192 38t-140 108t-83.5 136.5l-24.5 66.5v0l158 65v0l22 -53.5t56 -99.5t84.5 -72.5t123.5 -26.5q116 0 190 76t74 222v1004v0v0h170v0v0v-990q0 -220 -122 -347t-316 -127z" />
    <glyph glyph-name="ij" unicode="&#x133;" horiz-adv-x="954" 
d="M141 0v0v0v1020v0v0h170v0v0v-1020v0v0h-170zM226 1232q-47 0 -81 34t-34 81q0 49 34 81t81 32q49 0 81 -32t32 -81q0 -47 -32 -81t-81 -34zM487 -464q-23 0 -43.5 1t-40.5 4t-43 8.5l-23 5.5v0v158v0l23 -6.5t39.5 -9.5t36.5 -5t37 -2q80 0 125 45.5t45 126.5v1158v0v0
h170v0v0v-1167q0 -140 -91 -228.5t-235 -88.5zM730 1232q-47 0 -81 34t-34 81q0 49 34 81t81 32q49 0 81 -32t32 -81q0 -47 -32 -81t-81 -34z" />
    <glyph glyph-name="uni0136" unicode="&#x136;" horiz-adv-x="1252" 
d="M246 322v246l735 864v0v0h225v0v0l-586 -678zM160 0v0v0v1432v0v0h170v0v0v-1432v0v0h-170zM1036 0v0v0l-524 744l114 130l617 -874v0v0h-207zM481 -547l105 157q-34 7 -61 39t-27 76q0 52 37 89t91 37t91 -37t37 -89q0 -28 -11 -58t-43 -78l-130 -194v0z" />
    <glyph glyph-name="uni0137" unicode="&#x137;" horiz-adv-x="1010" 
d="M190 208v218l584 594v0v0h224v0v0zM126 0v0v0v1432v0v0h170v0v0v-1432v0v0h-170zM800 0v0v0l-368 548l120 118l465 -666v0v0h-217zM379 -547l105 157q-34 7 -61 39t-27 76q0 52 37 89t91 37t91 -37t37 -89q0 -28 -11 -58t-43 -78l-130 -194v0z" />
    <glyph glyph-name="Lacute" unicode="&#x139;" horiz-adv-x="1018" 
d="M160 0v0v0v1432v0v0h170v0v0v-1270h626v0v0v-162v0v0h-796zM161 1612v0v0l127 280v0v0h183v0v0l-163 -280v0v0h-147z" />
    <glyph glyph-name="lacute" unicode="&#x13a;" horiz-adv-x="422" 
d="M126 0v0v0v1432v0v0h170v0v0v-1432v0v0h-170zM128 1612v0v0l127 280v0v0h183v0v0l-163 -280v0v0h-147z" />
    <glyph glyph-name="uni013B" unicode="&#x13b;" horiz-adv-x="1018" 
d="M160 0v0v0v1432v0v0h170v0v0v-1270h626v0v0v-162v0v0h-796zM413 -547l105 157q-34 7 -61 39t-27 76q0 52 37 89t91 37t91 -37t37 -89q0 -28 -11 -58t-43 -78l-130 -194v0z" />
    <glyph glyph-name="uni013C" unicode="&#x13c;" horiz-adv-x="422" 
d="M126 0v0v0v1432v0v0h170v0v0v-1432v0v0h-170zM66 -547l105 157q-34 7 -61 39t-27 76q0 52 37 89t91 37t91 -37t37 -89q0 -28 -11 -58t-43 -78l-130 -194v0z" />
    <glyph glyph-name="Lcaron" unicode="&#x13d;" horiz-adv-x="1018" 
d="M160 0v0v0v1432v0v0h170v0v0v-1270h626v0v0v-162v0v0h-796zM768 1067v0v0v397v0v0h174v0v0l-51 -397v0v0h-123z" />
    <glyph glyph-name="lcaron" unicode="&#x13e;" horiz-adv-x="642" 
d="M126 0v0v0v1432v0v0h170v0v0v-1432v0v0h-170zM450 1067v0v0v397v0v0h174v0v0l-51 -397v0v0h-123z" />
    <glyph glyph-name="Ldot" unicode="&#x13f;" horiz-adv-x="1018" 
d="M160 0v0v0v1432v0v0h170v0v0v-1270h626v0v0v-162v0v0h-796zM754 597q-54 0 -91 37t-37 91q0 52 37 89t91 37t91 -37t37 -89q0 -54 -37 -91t-91 -37z" />
    <glyph glyph-name="ldot" unicode="&#x140;" horiz-adv-x="750" 
d="M126 0v0v0v1432v0v0h170v0v0v-1432v0v0h-170zM586 599q-54 0 -91 37t-37 91q0 52 37 89t91 37t91 -37t37 -89q0 -54 -37 -91t-91 -37z" />
    <glyph glyph-name="Lslash" unicode="&#x141;" horiz-adv-x="1022" 
d="M164 0v0v0v1432v0v0h170v0v0v-1270h626v0v0v-162v0v0h-796zM18 466v0v0v168v0v0l213 114l34 3l447 235v0v0v-169v0v0l-447 -234l-34 -4z" />
    <glyph glyph-name="lslash" unicode="&#x142;" horiz-adv-x="552" 
d="M192 0v0v0v1432v0v0h170v0v0v-1432v0v0h-170zM45 453v0v0v191v0v0l222 179l17 -2l223 178v0v0v-193v0v0l-223 -177l-17 1z" />
    <glyph glyph-name="Nacute" unicode="&#x143;" horiz-adv-x="1416" 
d="M160 0v0v0v1432v0v0h206v0v0l722 -1140h6l-8 276v864v0v0h170v0v0v-1432v0v0h-174v0v0l-754 1194h-6l8 -276v-918v0v0h-170zM625 1612v0v0l127 280v0v0h183v0v0l-163 -280v0v0h-147z" />
    <glyph glyph-name="nacute" unicode="&#x144;" horiz-adv-x="1122" 
d="M126 0v1020v0v0h162v0v0v-180l-27 30h33q44 78 137 130t195 52q180 0 279 -105t99 -293v-654v0v0h-170v0v0v628q0 134 -64 202t-190 68q-120 0 -202 -96t-82 -228v-574v0v0h-170v0v0zM489 1200v0v0l127 280v0v0h183v0v0l-163 -280v0v0h-147z" />
    <glyph glyph-name="uni0145" unicode="&#x145;" horiz-adv-x="1416" 
d="M160 0v0v0v1432v0v0h206v0v0l722 -1140h6l-8 276v864v0v0h170v0v0v-1432v0v0h-174v0v0l-754 1194h-6l8 -276v-918v0v0h-170zM563 -547l105 157q-34 7 -61 39t-27 76q0 52 37 89t91 37t91 -37t37 -89q0 -28 -11 -58t-43 -78l-130 -194v0z" />
    <glyph glyph-name="uni0146" unicode="&#x146;" horiz-adv-x="1122" 
d="M126 0v1020v0v0h162v0v0v-180l-27 30h33q44 78 137 130t195 52q180 0 279 -105t99 -293v-654v0v0h-170v0v0v628q0 134 -64 202t-190 68q-120 0 -202 -96t-82 -228v-574v0v0h-170v0v0zM421 -547l105 157q-34 7 -61 39t-27 76q0 52 37 89t91 37t91 -37t37 -89
q0 -28 -11 -58t-43 -78l-130 -194v0z" />
    <glyph glyph-name="Ncaron" unicode="&#x147;" horiz-adv-x="1416" 
d="M160 0v0v0v1432v0v0h206v0v0l722 -1140h6l-8 276v864v0v0h170v0v0v-1432v0v0h-174v0v0l-754 1194h-6l8 -276v-918v0v0h-170zM627 1612v0v0l-247 280v0v0h161v0v0l164 -179h6l161 179v0v0h164v0v0l-247 -280v0v0h-162z" />
    <glyph glyph-name="ncaron" unicode="&#x148;" horiz-adv-x="1122" 
d="M126 0v1020v0v0h162v0v0v-180l-27 30h33q44 78 137 130t195 52q180 0 279 -105t99 -293v-654v0v0h-170v0v0v628q0 134 -64 202t-190 68q-120 0 -202 -96t-82 -228v-574v0v0h-170v0v0zM491 1200v0v0l-247 280v0v0h161v0v0l164 -179h6l161 179v0v0h164v0v0l-247 -280v0v0
h-162z" />
    <glyph glyph-name="Omacron" unicode="&#x14c;" horiz-adv-x="1648" 
d="M824 -32q-312 0 -523 217t-211 534v0q0 317 212 531t522 214q309 0 521.5 -212.5t212.5 -532.5v0q0 -317 -211 -534t-523 -217zM824 130q240 0 401 167t161 422v0q0 256 -162.5 419.5t-399.5 163.5q-238 0 -400 -164.5t-162 -418.5v0q0 -255 161 -422t401 -167zM548 1673
v0v0v134v0v0h554v0v0v-134v0v0h-554z" />
    <glyph glyph-name="omacron" unicode="&#x14d;" horiz-adv-x="1192" 
d="M596 -32q-226 0 -375 155t-149 388v0q0 237 149.5 389t374.5 152q224 0 374 -153.5t150 -387.5v0q0 -233 -148.5 -388t-375.5 -155zM596 122q150 0 252 109t102 280v0q0 174 -103 280.5t-251 106.5q-150 0 -252.5 -107t-102.5 -280v0q0 -171 101.5 -280t253.5 -109z
M320 1261v0v0v134v0v0h554v0v0v-134v0v0h-554z" />
    <glyph glyph-name="Ohungarumlaut" unicode="&#x150;" horiz-adv-x="1648" 
d="M824 -32q-312 0 -523 217t-211 534v0q0 317 212 531t522 214q309 0 521.5 -212.5t212.5 -532.5v0q0 -317 -211 -534t-523 -217zM824 130q240 0 401 167t161 422v0q0 256 -162.5 419.5t-399.5 163.5q-238 0 -400 -164.5t-162 -418.5v0q0 -255 161 -422t401 -167zM581 1612
v0v0l127 280v0v0h183v0v0l-163 -280v0v0h-147zM897 1612v0v0l127 280v0v0h183v0v0l-163 -280v0v0h-147z" />
    <glyph glyph-name="ohungarumlaut" unicode="&#x151;" horiz-adv-x="1192" 
d="M596 -32q-226 0 -375 155t-149 388v0q0 237 149.5 389t374.5 152q224 0 374 -153.5t150 -387.5v0q0 -233 -148.5 -388t-375.5 -155zM596 122q150 0 252 109t102 280v0q0 174 -103 280.5t-251 106.5q-150 0 -252.5 -107t-102.5 -280v0q0 -171 101.5 -280t253.5 -109z
M353 1200v0v0l127 280v0v0h183v0v0l-163 -280v0v0h-147zM669 1200v0v0l127 280v0v0h183v0v0l-163 -280v0v0h-147z" />
    <glyph glyph-name="OE" unicode="&#x152;" horiz-adv-x="2328" 
d="M824 -32q-320 0 -527 211t-207 537v0q0 326 207 537t527 211q182 0 326.5 -75.5t235.5 -200.5v0v244v0v0h796v0v0v-162v0v0h-626v-1108h638v0v0v-162v0v0h-808v0v0v242v0q-91 -124 -235.5 -199t-326.5 -75zM824 130q240 0 401 167t161 421v0q0 257 -162.5 420.5
t-399.5 163.5q-238 0 -400 -164.5t-162 -417.5v0q0 -256 161 -423t401 -167zM1476 636v160h674v0v0v-160v0v0h-674z" />
    <glyph glyph-name="oe" unicode="&#x153;" horiz-adv-x="2004" 
d="M596 -32q-226 0 -375 155t-149 388v0q0 237 149.5 389t374.5 152q140 0 254 -62.5t182 -167.5q64 106 171.5 168t240.5 62q220 0 353 -132.5t133 -329.5v-112v0v0h-880v140h702v0q-6 120 -89 200t-219 80q-144 0 -234 -105t-90 -282v0q0 -177 98 -283t246 -106
q67 0 117.5 19t88 48.5t67 73l29.5 43.5v0l143 -70v0l-36.5 -59t-97 -108.5t-136 -75t-181.5 -25.5q-139 0 -250 62.5t-176 169.5q-68 -106 -181.5 -169t-254.5 -63zM596 122q150 0 252 109t102 280v0q0 174 -103 280.5t-251 106.5q-150 0 -253 -107t-103 -280v0
q0 -171 102 -280t254 -109z" />
    <glyph glyph-name="Racute" unicode="&#x154;" horiz-adv-x="1172" 
d="M160 0v0v0v1432v0v0h484q183 0 313.5 -120t130.5 -304v0q0 -192 -131 -313.5t-351 -121.5h-356v160h384q116 0 199 77t83 198v0q0 110 -79.5 186t-190.5 76h-316v-1270v0v0h-170zM944 0v0v0l-432 656l186 10l453 -666v0v0h-207zM477 1612v0v0l127 280v0v0h183v0v0
l-163 -280v0v0h-147z" />
    <glyph glyph-name="racute" unicode="&#x155;" horiz-adv-x="750" 
d="M126 0v0v0v1020v0v0h162v0v0v-184l-27 20h33q28 82 114 139t178 57q26 0 54.5 -4t50 -10.5l21.5 -6.5v0v-180v0l-31 9t-62.5 13.5t-50.5 4.5q-112 0 -192 -89t-80 -215v-574v0v0h-170zM360 1200v0v0l127 280v0v0h183v0v0l-163 -280v0v0h-147z" />
    <glyph glyph-name="uni0156" unicode="&#x156;" horiz-adv-x="1172" 
d="M160 0v0v0v1432v0v0h484q183 0 313.5 -120t130.5 -304v0q0 -192 -131 -313.5t-351 -121.5h-356v160h384q116 0 199 77t83 198v0q0 110 -79.5 186t-190.5 76h-316v-1270v0v0h-170zM944 0v0v0l-432 656l186 10l453 -666v0v0h-207zM441 -547l105 157q-34 7 -61 39t-27 76
q0 52 37 89t91 37t91 -37t37 -89q0 -28 -11 -58t-43 -78l-130 -194v0z" />
    <glyph glyph-name="uni0157" unicode="&#x157;" horiz-adv-x="750" 
d="M126 0v0v0v1020v0v0h162v0v0v-184l-27 20h33q28 82 114 139t178 57q26 0 54.5 -4t50 -10.5l21.5 -6.5v0v-180v0l-31 9t-62.5 13.5t-50.5 4.5q-112 0 -192 -89t-80 -215v-574v0v0h-170zM66 -547l105 157q-34 7 -61 39t-27 76q0 52 37 89t91 37t91 -37t37 -89
q0 -28 -11 -58t-43 -78l-130 -194v0z" />
    <glyph glyph-name="Rcaron" unicode="&#x158;" horiz-adv-x="1172" 
d="M160 0v0v0v1432v0v0h484q183 0 313.5 -120t130.5 -304v0q0 -192 -131 -313.5t-351 -121.5h-356v160h384q116 0 199 77t83 198v0q0 110 -79.5 186t-190.5 76h-316v-1270v0v0h-170zM944 0v0v0l-432 656l186 10l453 -666v0v0h-207zM479 1612v0v0l-247 280v0v0h161v0v0
l164 -179h6l161 179v0v0h164v0v0l-247 -280v0v0h-162z" />
    <glyph glyph-name="rcaron" unicode="&#x159;" horiz-adv-x="750" 
d="M126 0v0v0v1020v0v0h162v0v0v-184l-27 20h33q28 82 114 139t178 57q26 0 54.5 -4t50 -10.5l21.5 -6.5v0v-180v0l-31 9t-62.5 13.5t-50.5 4.5q-112 0 -192 -89t-80 -215v-574v0v0h-170zM362 1200v0v0l-247 280v0v0h161v0v0l164 -179h6l161 179v0v0h164v0v0l-247 -280v0v0
h-162z" />
    <glyph glyph-name="Sacute" unicode="&#x15a;" horiz-adv-x="1101" 
d="M558 -32q-125 0 -221.5 42t-156 114.5t-90 152l-30.5 79.5v0l162 66v0l26.5 -66t70.5 -119t107.5 -81t143.5 -28q130 0 211 70t81 182v0q0 86 -61.5 153.5t-262.5 134.5q-248 83 -336 182.5t-88 237.5v0q0 158 123.5 267t315.5 109q104 0 186.5 -31.5t140 -89t84 -112.5
l26.5 -55v0l-158 -68v0l-16.5 36.5t-56 76.5t-91.5 60.5t-120 20.5q-115 0 -188.5 -57t-73.5 -150v0q0 -75 56.5 -135.5t293.5 -140.5q199 -67 296.5 -174t97.5 -261v0q0 -195 -133.5 -305.5t-338.5 -110.5zM467 1612v0v0l127 280v0v0h183v0v0l-163 -280v0v0h-147z" />
    <glyph glyph-name="sacute" unicode="&#x15b;" horiz-adv-x="943" 
d="M482 -32q-97 0 -172.5 25t-135.5 76t-91 112l-31 61v0l152 69v0l26 -45.5t64.5 -79.5t85.5 -51t114 -17q100 0 160 39.5t60 115.5v0q0 60 -48 96.5t-200 70.5q-200 45 -289 122.5t-89 199.5v0q0 125 112.5 207.5t271.5 82.5q87 0 154.5 -20t124.5 -63.5t83 -90l26 -46.5
v0l-148 -68v0l-22.5 33t-54.5 57t-73.5 35t-93.5 11q-91 0 -149.5 -40t-58.5 -92v0q0 -56 42.5 -95.5t211.5 -78.5q208 -47 290 -125t82 -184v0q0 -143 -114 -230t-290 -87zM389 1200v0v0l127 280v0v0h183v0v0l-163 -280v0v0h-147z" />
    <glyph glyph-name="Scedilla" unicode="&#x15e;" horiz-adv-x="1101" 
d="M558 -32q-125 0 -221.5 42t-156 114.5t-90 152l-30.5 79.5v0l162 66v0l26.5 -66t70.5 -119t107.5 -81t143.5 -28q130 0 211 70t81 182v0q0 86 -61.5 153.5t-262.5 134.5q-248 83 -336 182.5t-88 237.5v0q0 158 123.5 267t315.5 109q104 0 186.5 -31.5t140 -89t84 -112.5
l26.5 -55v0l-158 -68v0l-16.5 36.5t-56 76.5t-91.5 60.5t-120 20.5q-115 0 -188.5 -57t-73.5 -150v0q0 -75 56.5 -135.5t293.5 -140.5q199 -67 296.5 -174t97.5 -261v0q0 -195 -133.5 -305.5t-338.5 -110.5zM584 -504q-71 0 -124.5 38t-80.5 106v0v0l122 52v0v0
q13 -36 36.5 -53t49.5 -17q34 0 57 24t23 60q0 38 -25.5 61.5t-56.5 23.5q-20 0 -37.5 -8.5t-27.5 -21.5v0v0l-125 55v0v0l106 194h132l-77 -110q12 5 28.5 8t29.5 3q83 0 138 -56.5t55 -143.5q0 -92 -63.5 -153.5t-159.5 -61.5z" />
    <glyph glyph-name="scedilla" unicode="&#x15f;" horiz-adv-x="943" 
d="M482 -32q-97 0 -172.5 25t-135.5 76t-91 112l-31 61v0l152 69v0l26 -45.5t64.5 -79.5t85.5 -51t114 -17q100 0 160 39.5t60 115.5v0q0 60 -48 96.5t-200 70.5q-200 45 -289 122.5t-89 199.5v0q0 125 112.5 207.5t271.5 82.5q87 0 154.5 -20t124.5 -63.5t83 -90l26 -46.5
v0l-148 -68v0l-22.5 33t-54.5 57t-73.5 35t-93.5 11q-91 0 -149.5 -40t-58.5 -92v0q0 -56 42.5 -95.5t211.5 -78.5q208 -47 290 -125t82 -184v0q0 -143 -114 -230t-290 -87zM504 -504q-71 0 -124.5 38t-80.5 106v0v0l122 52v0v0q13 -36 36.5 -53t49.5 -17q34 0 57 24t23 60
q0 38 -25.5 61.5t-56.5 23.5q-20 0 -37.5 -8.5t-27.5 -21.5v0v0l-125 55v0v0l106 194h132l-77 -110q12 5 28.5 8t29.5 3q83 0 138 -56.5t55 -143.5q0 -92 -63.5 -153.5t-159.5 -61.5z" />
    <glyph glyph-name="Scaron" unicode="&#x160;" horiz-adv-x="1101" 
d="M558 -32q-125 0 -221.5 42t-156 114.5t-90 152l-30.5 79.5v0l162 66v0l26.5 -66t70.5 -119t107.5 -81t143.5 -28q130 0 211 70t81 182v0q0 86 -61.5 153.5t-262.5 134.5q-248 83 -336 182.5t-88 237.5v0q0 158 123.5 267t315.5 109q104 0 186.5 -31.5t140 -89t84 -112.5
l26.5 -55v0l-158 -68v0l-16.5 36.5t-56 76.5t-91.5 60.5t-120 20.5q-115 0 -188.5 -57t-73.5 -150v0q0 -75 56.5 -135.5t293.5 -140.5q199 -67 296.5 -174t97.5 -261v0q0 -195 -133.5 -305.5t-338.5 -110.5zM469 1612v0v0l-247 280v0v0h161v0v0l164 -179h6l161 179v0v0h164
v0v0l-247 -280v0v0h-162z" />
    <glyph glyph-name="scaron" unicode="&#x161;" horiz-adv-x="943" 
d="M482 -32q-97 0 -172.5 25t-135.5 76t-91 112l-31 61v0l152 69v0l26 -45.5t64.5 -79.5t85.5 -51t114 -17q100 0 160 39.5t60 115.5v0q0 60 -48 96.5t-200 70.5q-200 45 -289 122.5t-89 199.5v0q0 125 112.5 207.5t271.5 82.5q87 0 154.5 -20t124.5 -63.5t83 -90l26 -46.5
v0l-148 -68v0l-22.5 33t-54.5 57t-73.5 35t-93.5 11q-91 0 -149.5 -40t-58.5 -92v0q0 -56 42.5 -95.5t211.5 -78.5q208 -47 290 -125t82 -184v0q0 -143 -114 -230t-290 -87zM391 1200v0v0l-247 280v0v0h161v0v0l164 -179h6l161 179v0v0h164v0v0l-247 -280v0v0h-162z" />
    <glyph glyph-name="uni0162" unicode="&#x162;" horiz-adv-x="1076" 
d="M454 0v0v0v1352h170v-1352v0v0h-170zM52 1270v0v0v162v0v0h972v0v0v-162v0v0h-972zM564 -504q-71 0 -124.5 38t-80.5 106v0v0l122 52v0v0q13 -36 36.5 -53t49.5 -17q34 0 57 24t23 60q0 38 -25.5 61.5t-56.5 23.5q-20 0 -37.5 -8.5t-27.5 -21.5v0v0l-125 55v0v0l106 194
h132l-77 -110q12 5 28.5 8t29.5 3q83 0 138 -56.5t55 -143.5q0 -92 -63.5 -153.5t-159.5 -61.5z" />
    <glyph glyph-name="uni0163" unicode="&#x163;" horiz-adv-x="730" 
d="M510 -32q-123 0 -199.5 76.5t-76.5 206.5v1057v0v0h170v0v0v-1015q0 -86 34 -127t101 -41q16 0 36 3.5t51.5 13.5l31.5 10v0v-158v0l-27.5 -8.5t-55.5 -13t-65 -4.5zM56 866v0v0v154v0v0h598v0v0v-154v0v0h-598zM439 -504q-71 0 -124.5 38t-80.5 106v0v0l122 52v0v0
q13 -36 36.5 -53t49.5 -17q34 0 57 24t23 60q0 38 -25.5 61.5t-56.5 23.5q-20 0 -37.5 -8.5t-27.5 -21.5v0v0l-125 55v0v0l106 194h132l-77 -110q12 5 28.5 8t29.5 3q83 0 138 -56.5t55 -143.5q0 -92 -63.5 -153.5t-159.5 -61.5z" />
    <glyph glyph-name="Tcaron" unicode="&#x164;" horiz-adv-x="1076" 
d="M454 0v0v0v1352h170v-1352v0v0h-170zM52 1270v0v0v162v0v0h972v0v0v-162v0v0h-972zM457 1612v0v0l-247 280v0v0h161v0v0l164 -179h6l161 179v0v0h164v0v0l-247 -280v0v0h-162z" />
    <glyph glyph-name="tcaron" unicode="&#x165;" horiz-adv-x="730" 
d="M510 -32q-123 0 -199.5 76.5t-76.5 206.5v1057v0v0h170v0v0v-1015q0 -86 34 -127t101 -41q16 0 36 3.5t51.5 13.5l31.5 10v0v-158v0l-27.5 -8.5t-55.5 -13t-65 -4.5zM56 866v0v0v154v0v0h598v0v0v-154v0v0h-598zM565 1147v0v0v397v0v0h174v0v0l-51 -397v0v0h-123z" />
    <glyph glyph-name="Utilde" unicode="&#x168;" horiz-adv-x="1306" 
d="M652 -32q-234 0 -380 156t-146 406v902v0v0h170v0v0v-910q0 -180 95 -286t261 -106t262 106t96 286v910v0v0h170v0v0v-902q0 -256 -143 -409t-385 -153zM786 1607q-50 0 -93.5 22.5t-78.5 47.5q-27 19 -51.5 35.5t-48.5 16.5q-16 0 -29.5 -8.5t-22.5 -24t-12.5 -42
l-3.5 -26.5v0h-126v0l5.5 55t30 94t68 62.5t96.5 23.5q54 0 95 -23t77 -49q26 -20 51 -35t47 -15q19 0 32.5 8t21.5 23t10 42.5l2 27.5v0h128v0l-4 -53.5t-30 -94.5t-70.5 -64t-93.5 -23z" />
    <glyph glyph-name="utilde" unicode="&#x169;" horiz-adv-x="1122" 
d="M496 -32q-182 0 -280 107t-98 303v642v0v0h170v0v0v-616q0 -138 63 -210t181 -72q124 0 209 95t85 227v576v0v0h170v0v0v-1020v0v0h-162v0v0v225l77 -77h-83q-44 -78 -137 -129t-195 -51zM694 1195q-50 0 -93.5 22.5t-78.5 47.5q-27 19 -51.5 35.5t-48.5 16.5
q-16 0 -29.5 -8.5t-22.5 -24t-12.5 -42l-3.5 -26.5v0h-126v0l5.5 55t30 94t68 62.5t96.5 23.5q54 0 95 -23t77 -49q26 -20 51 -35t47 -15q19 0 32.5 8t21.5 23t10 42.5l2 27.5v0h128v0l-4 -53.5t-30 -94.5t-70.5 -64t-93.5 -23z" />
    <glyph glyph-name="Umacron" unicode="&#x16a;" horiz-adv-x="1306" 
d="M652 -32q-234 0 -380 156t-146 406v902v0v0h170v0v0v-910q0 -180 95 -286t261 -106t262 106t96 286v910v0v0h170v0v0v-902q0 -256 -143 -409t-385 -153zM376 1673v0v0v134v0v0h554v0v0v-134v0v0h-554z" />
    <glyph glyph-name="umacron" unicode="&#x16b;" horiz-adv-x="1122" 
d="M496 -32q-182 0 -280 107t-98 303v642v0v0h170v0v0v-616q0 -138 63 -210t181 -72q124 0 209 95t85 227v576v0v0h170v0v0v-1020v0v0h-162v0v0v225l77 -77h-83q-44 -78 -137 -129t-195 -51zM284 1261v0v0v134v0v0h554v0v0v-134v0v0h-554z" />
    <glyph glyph-name="Ubreve" unicode="&#x16c;" horiz-adv-x="1306" 
d="M652 -32q-234 0 -380 156t-146 406v902v0v0h170v0v0v-910q0 -180 95 -286t261 -106t262 106t96 286v910v0v0h170v0v0v-902q0 -256 -143 -409t-385 -153zM652 1612q-135 0 -210 71t-84 209v0v0h139v0v0q7 -75 47 -116.5t108 -41.5q67 0 108 41.5t49 116.5v0v0h137v0v0
q-11 -138 -85.5 -209t-208.5 -71z" />
    <glyph glyph-name="ubreve" unicode="&#x16d;" horiz-adv-x="1122" 
d="M496 -32q-182 0 -280 107t-98 303v642v0v0h170v0v0v-616q0 -138 63 -210t181 -72q124 0 209 95t85 227v576v0v0h170v0v0v-1020v0v0h-162v0v0v225l77 -77h-83q-44 -78 -137 -129t-195 -51zM560 1200q-135 0 -210 71t-84 209v0v0h139v0v0q7 -75 47 -116.5t108 -41.5
q67 0 108 41.5t49 116.5v0v0h137v0v0q-11 -138 -85.5 -209t-208.5 -71z" />
    <glyph glyph-name="Uring" unicode="&#x16e;" horiz-adv-x="1306" 
d="M652 -32q-234 0 -380 156t-146 406v902v0v0h170v0v0v-910q0 -180 95 -286t261 -106t262 106t96 286v910v0v0h170v0v0v-902q0 -256 -143 -409t-385 -153zM652 1573q-90 0 -153 64t-63 154t63 153t153 63t154 -63t64 -153t-64 -154t-154 -64zM652 1685q42 0 73 31t31 75
q0 42 -31 73t-73 31t-73 -31t-31 -73q0 -44 31 -75t73 -31z" />
    <glyph glyph-name="uring" unicode="&#x16f;" horiz-adv-x="1122" 
d="M496 -32q-182 0 -280 107t-98 303v642v0v0h170v0v0v-616q0 -138 63 -210t181 -72q124 0 209 95t85 227v576v0v0h170v0v0v-1020v0v0h-162v0v0v225l77 -77h-83q-44 -78 -137 -129t-195 -51zM560 1161q-90 0 -153 64t-63 154t63 153t153 63t154 -63t64 -153t-64 -154
t-154 -64zM560 1273q42 0 73 31t31 75q0 42 -31 73t-73 31t-73 -31t-31 -73q0 -44 31 -75t73 -31z" />
    <glyph glyph-name="Uhungarumlaut" unicode="&#x170;" horiz-adv-x="1306" 
d="M652 -32q-234 0 -380 156t-146 406v902v0v0h170v0v0v-910q0 -180 95 -286t261 -106t262 106t96 286v910v0v0h170v0v0v-902q0 -256 -143 -409t-385 -153zM409 1612v0v0l127 280v0v0h183v0v0l-163 -280v0v0h-147zM725 1612v0v0l127 280v0v0h183v0v0l-163 -280v0v0h-147z
" />
    <glyph glyph-name="uhungarumlaut" unicode="&#x171;" horiz-adv-x="1122" 
d="M496 -32q-182 0 -280 107t-98 303v642v0v0h170v0v0v-616q0 -138 63 -210t181 -72q124 0 209 95t85 227v576v0v0h170v0v0v-1020v0v0h-162v0v0v225l77 -77h-83q-44 -78 -137 -129t-195 -51zM317 1200v0v0l127 280v0v0h183v0v0l-163 -280v0v0h-147zM633 1200v0v0l127 280v0
v0h183v0v0l-163 -280v0v0h-147z" />
    <glyph glyph-name="Uogonek" unicode="&#x172;" horiz-adv-x="1306" 
d="M652 -32q-234 0 -380 156t-146 406v902v0v0h170v0v0v-910q0 -180 95 -286t261 -106t262 106t96 286v910v0v0h170v0v0v-902q0 -256 -143 -409t-385 -153zM882 -412q-105 0 -170.5 57t-65.5 150q0 80 47.5 152t126.5 117l136 -12q-76 -62 -110 -112.5t-34 -101.5
q0 -48 28 -75.5t77 -27.5q17 0 31 2.5t44 13.5v0v0v-146v0v0q-32 -10 -54 -13.5t-56 -3.5z" />
    <glyph glyph-name="uogonek" unicode="&#x173;" horiz-adv-x="1122" 
d="M496 -32q-182 0 -280 107t-98 303v642v0v0h170v0v0v-616q0 -138 63 -210t181 -72q124 0 209 95t85 227v576v0v0h170v0v0v-1020v0v0h-162v0v0v225l77 -77h-83q-44 -78 -137 -129t-195 -51zM922 -464q-105 0 -170.5 57t-65.5 150q0 80 47.5 152t126.5 117l136 -12
q-76 -62 -110 -112.5t-34 -101.5q0 -48 28 -75.5t77 -27.5q17 0 31 2.5t44 13.5v0v0v-146v0v0q-32 -10 -54 -13.5t-56 -3.5z" />
    <glyph glyph-name="Wcircumflex" unicode="&#x174;" horiz-adv-x="1888" 
d="M421 0v0v0l-382 1432v0v0h181v0v0l262 -1052l24 -98h6l30 98l323 1052v0v0h174v0v0l309 -1052l30 -98h6l24 98l257 1052v0v0h190v0v0l-382 -1432v0v0h-176v0v0l-310 1036l-32 112h-6l-34 -112l-318 -1036v0v0h-176zM624 1612v0v0l247 280v0v0h162v0v0l247 -280v0v0h-161
v0v0l-164 179h-6l-161 -179v0v0h-164z" />
    <glyph glyph-name="wcircumflex" unicode="&#x175;" horiz-adv-x="1554" 
d="M339 0v0v0l-324 1020v0v0h175v0v0l213 -715l27 -91h6l27 84l228 722v0v0h175v0v0l228 -716l28 -88h6l26 86l214 718v0v0h172v0v0l-329 -1020v0v0h-175v0v0l-238 739l-20 72h-6l-22 -72l-235 -739v0v0h-176zM450 1200v0v0l247 280v0v0h162v0v0l247 -280v0v0h-161v0v0
l-164 179h-6l-161 -179v0v0h-164z" />
    <glyph glyph-name="Ycircumflex" unicode="&#x176;" horiz-adv-x="1190" 
d="M519 656l-491 776v0v0h201v0v0l324 -531l42 -69h6l41 68l321 532v0v0h198v0v0l-481 -775zM514 0v0v0v742h170v-742v0v0h-170zM266 1612v0v0l247 280v0v0h162v0v0l247 -280v0v0h-161v0v0l-164 179h-6l-161 -179v0v0h-164z" />
    <glyph glyph-name="ycircumflex" unicode="&#x177;" horiz-adv-x="1026" 
d="M207 -432v0v0l257 560l6 -128l-457 1020v0v0h184v0v0l296 -688l25 -70h6l27 72l278 686v0v0h183v0v0l-628 -1452v0v0h-177zM190 1200v0v0l247 280v0v0h162v0v0l247 -280v0v0h-161v0v0l-164 179h-6l-161 -179v0v0h-164z" />
    <glyph glyph-name="Ydieresis" unicode="&#x178;" horiz-adv-x="1190" 
d="M519 656l-491 776v0v0h201v0v0l324 -531l42 -69h6l41 68l321 532v0v0h198v0v0l-481 -775zM514 0v0v0v742h170v-742v0v0h-170zM402 1643q-46 0 -79 33t-33 79q0 45 33 77.5t79 32.5q45 0 77.5 -32.5t32.5 -77.5q0 -46 -32.5 -79t-77.5 -33zM789 1649q-45 0 -77 32.5
t-32 77.5t32 76.5t77 31.5t77 -31.5t32 -76.5t-32 -77.5t-77 -32.5z" />
    <glyph glyph-name="Zacute" unicode="&#x179;" horiz-adv-x="1144" 
d="M76 0v0v0v178v0v0l772 1092h-740v0v0v162v0v0h936v0v0v-178v0v0l-772 -1092h780v0v0v-162v0v0h-976zM493 1612v0v0l127 280v0v0h183v0v0l-163 -280v0v0h-147z" />
    <glyph glyph-name="zacute" unicode="&#x17a;" horiz-adv-x="963" 
d="M63 0v0v0v148v0v0l602 718h-584v0v0v154v0v0h792v0v0v-148v0v0l-602 -718h618v0v0v-154v0v0h-826zM394 1200v0v0l127 280v0v0h183v0v0l-163 -280v0v0h-147z" />
    <glyph glyph-name="Zdotaccent" unicode="&#x17b;" horiz-adv-x="1144" 
d="M76 0v0v0v178v0v0l772 1092h-740v0v0v162v0v0h936v0v0v-178v0v0l-772 -1092h780v0v0v-162v0v0h-976zM576 1644q-47 0 -81 34t-34 81q0 49 34 81t81 32q49 0 81 -32t32 -81q0 -47 -32 -81t-81 -34z" />
    <glyph glyph-name="zdotaccent" unicode="&#x17c;" horiz-adv-x="963" 
d="M63 0v0v0v148v0v0l602 718h-584v0v0v154v0v0h792v0v0v-148v0v0l-602 -718h618v0v0v-154v0v0h-826zM477 1232q-47 0 -81 34t-34 81q0 49 34 81t81 32q49 0 81 -32t32 -81q0 -47 -32 -81t-81 -34z" />
    <glyph glyph-name="Zcaron" unicode="&#x17d;" horiz-adv-x="1144" 
d="M76 0v0v0v178v0v0l772 1092h-740v0v0v162v0v0h936v0v0v-178v0v0l-772 -1092h780v0v0v-162v0v0h-976zM495 1612v0v0l-247 280v0v0h161v0v0l164 -179h6l161 179v0v0h164v0v0l-247 -280v0v0h-162z" />
    <glyph glyph-name="zcaron" unicode="&#x17e;" horiz-adv-x="963" 
d="M63 0v0v0v148v0v0l602 718h-584v0v0v154v0v0h792v0v0v-148v0v0l-602 -718h618v0v0v-154v0v0h-826zM396 1200v0v0l-247 280v0v0h161v0v0l164 -179h6l161 179v0v0h164v0v0l-247 -280v0v0h-162z" />
    <glyph glyph-name="uni0181" unicode="&#x181;" horiz-adv-x="1503" 
d="M26 997q0 186 105.5 310.5t320.5 124.5h94v-161h-93q-113 0 -190 -61t-77 -201q0 -23 4.5 -47.5t8.5 -42l4 -17.5v0h-166v0l-3.5 16t-5.5 35t-2 44zM452 0v0v0v1432v0v0h514q169 0 289.5 -109.5t120.5 -273.5v0q0 -103 -52 -182t-144 -123v-8q109 -36 176.5 -124
t67.5 -202v0q0 -176 -126 -293t-304 -117h-542zM622 162h382q104 0 176 74t72 174v0q0 101 -75 171.5t-181 70.5h-454v162h424q104 0 173 68t69 161v0q0 93 -67.5 160t-166.5 67h-352v-1108z" />
    <glyph glyph-name="uni018A" unicode="&#x18a;" horiz-adv-x="1698" 
d="M26 997q0 186 105.5 310.5t320.5 124.5h94v-161h-93q-113 0 -190 -61t-77 -201q0 -23 4.5 -47.5t8.5 -42l4 -17.5v0h-166v0l-3.5 16t-5.5 35t-2 44zM452 0v0v0v1432v0v0h432q327 0 525.5 -195.5t198.5 -517.5v0q0 -325 -198 -522t-526 -197h-432zM622 162h262
q258 0 405 147t147 410v0q0 260 -147.5 405.5t-404.5 145.5h-262v-1108z" />
    <glyph glyph-name="uni018F" unicode="&#x18f;" horiz-adv-x="1578" 
d="M746 -32q-308 0 -505 193t-197 499v102v0v0h1338v-158h-1168v0q18 -224 161 -349t369 -125q240 0 406 167t166 424v0q0 257 -158.5 419t-390.5 162q-96 0 -175.5 -21.5t-136.5 -60.5t-108 -86.5l-51 -47.5v0l-125 121v0l57 54t136.5 103t179.5 74.5t218 25.5
q307 0 516.5 -214.5t209.5 -529.5v0q0 -313 -216 -530t-526 -222z" />
    <glyph glyph-name="uni0198" unicode="&#x198;" horiz-adv-x="1280" 
d="M160 0v0v0v1432v0v0h170v0v0v-1432v0v0h-170zM243 327v265l413 560q133 180 223 246t204 66q38 0 71 -8t60 -20.5l27 -12.5v0l-47 -158v0l-20.5 11t-42.5 17.5t-50 6.5q-56 0 -114 -37.5t-196 -223.5l-201 -271l-18 -20zM1036 0v0v0l-564 744l114 130l657 -874v0v0h-207z
" />
    <glyph glyph-name="uni0199" unicode="&#x199;" horiz-adv-x="1010" 
d="M800 0v0v0l-368 548l120 118l465 -666v0v0h-217zM190 208v218l584 594v0v0h224v0v0zM126 0v0v0v1109q0 179 99 267t252 88q38 0 64.5 -3t60 -10.5l33.5 -7.5v0v-159v0l-32 7t-61 11t-65 4q-78 0 -129.5 -44t-51.5 -170v-1092v0v0h-170z" />
    <glyph glyph-name="Ohorn" unicode="&#x1a0;" horiz-adv-x="1648" 
d="M824 -32q-312 0 -523 217t-211 534v0q0 317 212 531t522 214q309 0 521.5 -212.5t212.5 -532.5v0q0 -317 -211 -534t-523 -217zM824 130q240 0 401 167t161 422v0q0 256 -162.5 419.5t-399.5 163.5q-238 0 -400 -164.5t-162 -418.5v0q0 -255 161 -422t401 -167z
M1261 1258q-93 80 -197 116t-240 36v54q63 0 115 -2t152 -17q123 -19 152 -19.5t91 -0.5q63 0 81.5 21t18.5 59v136v0v0h144v0v0v-136q0 -104 -47 -156t-153 -52q-22 0 -43 2.5t-44 7.5z" />
    <glyph glyph-name="ohorn" unicode="&#x1a1;" horiz-adv-x="1192" 
d="M596 -32q-226 0 -375 155t-149 388v0q0 237 149.5 389t374.5 152q224 0 374 -153.5t150 -387.5v0q0 -233 -148.5 -388t-375.5 -155zM596 122q150 0 252 109t102 280v0q0 174 -103 280.5t-251 106.5q-150 0 -252.5 -107t-102.5 -280v0q0 -171 101.5 -280t253.5 -109z
M944 887q-66 65 -154.5 100.5t-193.5 40.5v24q29 0 66 -4t82 -11q48 -7 80 -13t68 -6q71 0 94 22t23 60v135v0v0h135v0v0v-135q0 -91 -37.5 -139t-108.5 -48q-11 0 -21.5 1.5t-17.5 3.5z" />
    <glyph glyph-name="Uhorn" unicode="&#x1af;" horiz-adv-x="1306" 
d="M652 -32q-234 0 -380 156t-146 406v902v0v0h170v0v0v-910q0 -180 95 -286t261 -106t262 106t96 286v910v0v0h170v0v0v-902q0 -256 -143 -409t-385 -153zM1095 1303v129h73q40 0 56.5 20.5t16.5 58.5v130v0v0h135v0v0v-130q0 -103 -51.5 -155.5t-156.5 -52.5h-73z" />
    <glyph glyph-name="uhorn" unicode="&#x1b0;" horiz-adv-x="1202" 
d="M496 -32q-182 0 -280 107t-98 303v642v0v0h170v0v0v-616q0 -138 63 -210t181 -72q124 0 209 95t85 227v576v0v0h170v0v0v-1020v0v0h-162v0v0v225l77 -77h-83q-44 -78 -137 -129t-195 -51zM911 891v129h73q40 0 56.5 20.5t16.5 58.5v130v0v0h135v0v0v-130
q0 -103 -51.5 -155.5t-156.5 -52.5h-73z" />
    <glyph glyph-name="uni01B3" unicode="&#x1b3;" horiz-adv-x="1305" 
d="M519 656l-491 776v0v0h201v0v0l324 -531l42 -69h6l36 68l110 212q99 192 190.5 272t213.5 80q36 0 66.5 -8t57.5 -20l27 -12v0l-47 -154v0l-16.5 9t-37.5 15.5t-41 6.5q-71 0 -129.5 -55t-138.5 -202l-212 -388h-161zM514 0v0v0v742h170v-742v0v0h-170z" />
    <glyph glyph-name="uni01B4" unicode="&#x1b4;" horiz-adv-x="1107" 
d="M242 -432v0v0l226 575l2 -143l-457 1020v0v0h184v0v0l294 -686l23 -72h6l19 71l105 307q81 236 161.5 324t200.5 88q24 0 43.5 -3.5t43.5 -12l24 -8.5v0v-153v0l-21 9.5t-37.5 12.5t-34.5 3q-71 0 -118 -61t-120 -261l-367 -1010v0v0h-177z" />
    <glyph glyph-name="uni01CD" unicode="&#x1cd;" horiz-adv-x="1340" 
d="M30 0v0v0l545 1432v0v0h195v0v0l540 -1432v0v0h-187v0v0l-392 1072l-57 172h-6l-57 -172l-397 -1072v0v0h-184zM262 394l58 160h660l58 -160h-776zM589 1612v0v0l-247 280v0v0h161v0v0l164 -179h6l161 179v0v0h164v0v0l-247 -280v0v0h-162z" />
    <glyph glyph-name="uni01CE" unicode="&#x1ce;" horiz-adv-x="1070" 
d="M452 -32q-170 0 -277 96.5t-107 248.5v0q0 153 120.5 246t309.5 93q84 0 165 -19t127 -47v62q0 112 -79 182t-203 70q-66 0 -111 -15.5t-75.5 -38t-59 -53.5l-28.5 -31v0l-129 96v0l38.5 42t87.5 76t112.5 55t164.5 21q206 0 325 -109t119 -297v-646v0v0h-162v0v0v247
l60 -100h-66q-48 -80 -138 -129.5t-194 -49.5zM468 119q133 0 227.5 94t94.5 229v0q-50 34 -120 53t-146 19q-130 0 -206 -51t-76 -153v0q0 -85 64 -138t162 -53zM456 1200v0v0l-247 280v0v0h161v0v0l164 -179h6l161 179v0v0h164v0v0l-247 -280v0v0h-162z" />
    <glyph glyph-name="uni0218" unicode="&#x218;" horiz-adv-x="1101" 
d="M558 -32q-125 0 -221.5 42t-156 114.5t-90 152l-30.5 79.5v0l162 66v0l26.5 -66t70.5 -119t107.5 -81t143.5 -28q130 0 211 70t81 182v0q0 86 -61.5 153.5t-262.5 134.5q-248 83 -336 182.5t-88 237.5v0q0 158 123.5 267t315.5 109q104 0 186.5 -31.5t140 -89t84 -112.5
l26.5 -55v0l-158 -68v0l-16.5 36.5t-56 76.5t-91.5 60.5t-120 20.5q-115 0 -188.5 -57t-73.5 -150v0q0 -75 56.5 -135.5t293.5 -140.5q199 -67 296.5 -174t97.5 -261v0q0 -195 -133.5 -305.5t-338.5 -110.5zM414 -547l105 157q-34 7 -61 39t-27 76q0 52 37 89t91 37t91 -37
t37 -89q0 -28 -11 -58t-43 -78l-130 -194v0z" />
    <glyph glyph-name="uni0219" unicode="&#x219;" horiz-adv-x="943" 
d="M482 -32q-97 0 -172.5 25t-135.5 76t-91 112l-31 61v0l152 69v0l26 -45.5t64.5 -79.5t85.5 -51t114 -17q100 0 160 39.5t60 115.5v0q0 60 -48 96.5t-200 70.5q-200 45 -289 122.5t-89 199.5v0q0 125 112.5 207.5t271.5 82.5q87 0 154.5 -20t124.5 -63.5t83 -90l26 -46.5
v0l-148 -68v0l-22.5 33t-54.5 57t-73.5 35t-93.5 11q-91 0 -149.5 -40t-58.5 -92v0q0 -56 42.5 -95.5t211.5 -78.5q208 -47 290 -125t82 -184v0q0 -143 -114 -230t-290 -87zM334 -547l105 157q-34 7 -61 39t-27 76q0 52 37 89t91 37t91 -37t37 -89q0 -28 -11 -58t-43 -78
l-130 -194v0z" />
    <glyph glyph-name="uni021A" unicode="&#x21a;" horiz-adv-x="1076" 
d="M454 0v0v0v1352h170v-1352v0v0h-170zM52 1270v0v0v162v0v0h972v0v0v-162v0v0h-972zM394 -547l105 157q-34 7 -61 39t-27 76q0 52 37 89t91 37t91 -37t37 -89q0 -28 -11 -58t-43 -78l-130 -194v0z" />
    <glyph glyph-name="uni021B" unicode="&#x21b;" horiz-adv-x="730" 
d="M510 -32q-123 0 -199.5 76.5t-76.5 206.5v1057v0v0h170v0v0v-1015q0 -86 34 -127t101 -41q16 0 36 3.5t51.5 13.5l31.5 10v0v-158v0l-27.5 -8.5t-55.5 -13t-65 -4.5zM56 866v0v0v154v0v0h598v0v0v-154v0v0h-598zM269 -547l105 157q-34 7 -61 39t-27 76q0 52 37 89t91 37
t91 -37t37 -89q0 -28 -11 -58t-43 -78l-130 -194v0z" />
    <glyph glyph-name="uni0237" unicode="&#x237;" horiz-adv-x="452" 
d="M-15 -464q-23 0 -43.5 1t-40.5 4t-43 8.5l-23 5.5v0v158v0l23 -6.5t39.5 -9.5t36.5 -5t37 -2q80 0 125 45.5t45 126.5v1158v0v0h170v0v0v-1167q0 -140 -91 -228.5t-235 -88.5z" />
    <glyph glyph-name="uni0253" unicode="&#x253;" horiz-adv-x="1204" 
d="M644 -32q-110 0 -206 52t-144 133h-46l40 50v-203v0v0h-162v0v0v1109q0 179 99 267t252 88q38 0 66.5 -3t62 -10.5l33.5 -7.5v0v-159v0l-32 7t-63 11t-67 4q-78 0 -129.5 -44t-51.5 -170v-245h6q48 79 140 129.5t202 50.5q208 0 348 -147.5t140 -379.5v0
q0 -231 -139 -381.5t-349 -150.5zM626 123q142 0 239 106.5t97 271.5v0q0 166 -98 269t-238 103t-239 -102.5t-99 -267.5v0q0 -167 98 -273.5t240 -106.5z" />
    <glyph glyph-name="uni0257" unicode="&#x257;" horiz-adv-x="1212" 
d="M560 -32q-210 0 -349 153t-139 389v0q0 237 140 388.5t348 151.5q110 0 202.5 -51t139.5 -133h6v339q0 108 73.5 183.5t199.5 75.5q28 0 46 -2.5t41.5 -9l23.5 -6.5v0v-158v0l-18 6t-34 9t-36 3q-53 0 -89 -36t-36 -96v-1174v0v0h-163v0v0v198l40 -50h-46
q-50 -82 -145 -131t-205 -49zM578 120q142 0 240 110t98 281v0q0 171 -99 278t-239 107t-239 -107t-99 -279v0q0 -170 98 -280t240 -110z" />
    <glyph glyph-name="uni0259" unicode="&#x259;" horiz-adv-x="1126" 
d="M560 -32q-220 0 -353 138.5t-133 389.5v0v94h93h787v-140h-702v0q0 -168 86 -248t222 -80q144 0 234 105t90 281v0q0 178 -99.5 284t-247.5 106q-68 0 -115.5 -18t-86 -51t-68 -74l-29.5 -41v0l-143 70v0l37 59t99 109t140.5 75t174.5 25q222 0 365 -153t143 -391v0
q0 -233 -140 -386.5t-354 -153.5z" />
    <glyph glyph-name="uni02BB" unicode="&#x2bb;" horiz-adv-x="476" 
d="M386 1335l-114 -162q40 -8 67 -40t27 -76q0 -52 -37 -89t-91 -37t-91 37t-37 89q0 28 12 58t44 78l133 200v0z" />
    <glyph glyph-name="uni02BC" unicode="&#x2bc;" horiz-adv-x="476" 
d="M90 1060l114 162q-40 8 -67 40t-27 76q0 52 37 89t91 37t91 -37t37 -89q0 -28 -12 -58t-44 -78l-133 -200v0z" />
    <glyph glyph-name="circumflex" unicode="&#x2c6;" horiz-adv-x="900" 
d="M122 1200v0v0l247 280v0v0h162v0v0l247 -280v0v0h-161v0v0l-164 179h-6l-161 -179v0v0h-164z" />
    <glyph glyph-name="caron" unicode="&#x2c7;" horiz-adv-x="900" 
d="M369 1200v0v0l-247 280v0v0h161v0v0l164 -179h6l161 179v0v0h164v0v0l-247 -280v0v0h-162z" />
    <glyph glyph-name="breve" unicode="&#x2d8;" horiz-adv-x="900" 
d="M450 1200q-135 0 -210 71t-84 209v0v0h139v0v0q7 -75 47 -116.5t108 -41.5q67 0 108 41.5t49 116.5v0v0h137v0v0q-11 -138 -85.5 -209t-208.5 -71z" />
    <glyph glyph-name="dotaccent" unicode="&#x2d9;" horiz-adv-x="900" 
d="M451 1232q-47 0 -81 34t-34 81q0 49 34 81t81 32q49 0 81 -32t32 -81q0 -47 -32 -81t-81 -34z" />
    <glyph glyph-name="ring" unicode="&#x2da;" horiz-adv-x="900" 
d="M449 1161q-90 0 -153 64t-63 154t63 153t153 63t154 -63t64 -153t-64 -154t-154 -64zM449 1273q42 0 73 31t31 75q0 42 -31 73t-73 31t-73 -31t-31 -73q0 -44 31 -75t73 -31z" />
    <glyph glyph-name="ogonek" unicode="&#x2db;" horiz-adv-x="900" 
d="M513 -464q-105 0 -170.5 57t-65.5 150q0 80 47.5 152t126.5 117l136 -12q-76 -62 -110 -112.5t-34 -101.5q0 -48 28 -75.5t77 -27.5q17 0 31 2.5t44 13.5v0v0v-146v0v0q-32 -10 -54 -13.5t-56 -3.5z" />
    <glyph glyph-name="tilde" unicode="&#x2dc;" horiz-adv-x="900" 
d="M584 1195q-50 0 -93.5 22.5t-78.5 47.5q-27 19 -51.5 35.5t-48.5 16.5q-16 0 -29.5 -8.5t-22.5 -24t-12.5 -42l-3.5 -26.5v0h-126v0l5.5 55t30 94t68 62.5t96.5 23.5q54 0 95 -23t77 -49q26 -20 51 -35t47 -15q19 0 32.5 8t21.5 23t10 42.5l2 27.5v0h128v0l-4 -53.5
t-30 -94.5t-70.5 -64t-93.5 -23z" />
    <glyph glyph-name="hungarumlaut" unicode="&#x2dd;" horiz-adv-x="900" 
d="M137 1200v0v0l127 280v0v0h183v0v0l-163 -280v0v0h-147zM453 1200v0v0l127 280v0v0h183v0v0l-163 -280v0v0h-147z" />
    <glyph glyph-name="uni02E3" unicode="&#x2e3;" horiz-adv-x="640" 
d="M461 965v0v0l-178 274h-18l-242 340v0v0h162v0v0l182 -272h15l242 -342v0v0h-163zM16 965v0v0l250 353h27l175 261v0v0h156v0v0l-245 -340h-25l-183 -274v0v0h-155z" />
    <glyph glyph-name="gravecomb" unicode="&#x300;" 
d="M8 1200v0v0l-163 280v0v0h183v0v0l127 -280v0v0h-147z" />
    <glyph glyph-name="acutecomb" unicode="&#x301;" 
d="M-155 1200v0v0l127 280v0v0h183v0v0l-163 -280v0v0h-147z" />
    <glyph glyph-name="uni0302" unicode="&#x302;" 
d="M-328 1200v0v0l247 280v0v0h162v0v0l247 -280v0v0h-161v0v0l-164 179h-6l-161 -179v0v0h-164z" />
    <glyph glyph-name="tildecomb" unicode="&#x303;" 
d="M134 1195q-50 0 -93.5 22.5t-78.5 47.5q-27 19 -51.5 35.5t-48.5 16.5q-16 0 -29.5 -8.5t-22.5 -24t-12.5 -42l-3.5 -26.5v0h-126v0l5.5 55t30 94t68 62.5t96.5 23.5q54 0 95 -23t77 -49q26 -20 51 -35t47 -15q19 0 32.5 8t21.5 23t10 42.5l2 27.5v0h128v0l-4 -53.5
t-30 -94.5t-70.5 -64t-93.5 -23z" />
    <glyph glyph-name="uni0304" unicode="&#x304;" 
d="M-277 1261v0v0v134v0v0h554v0v0v-134v0v0h-554z" />
    <glyph glyph-name="uni0306" unicode="&#x306;" 
d="M0 1200q-135 0 -210 71t-84 209v0v0h139v0v0q7 -75 47 -116.5t108 -41.5q67 0 108 41.5t49 116.5v0v0h137v0v0q-11 -138 -85.5 -209t-208.5 -71z" />
    <glyph glyph-name="uni0307" unicode="&#x307;" 
d="M1 1232q-47 0 -81 34t-34 81q0 49 34 81t81 32q49 0 81 -32t32 -81q0 -47 -32 -81t-81 -34z" />
    <glyph glyph-name="uni0308" unicode="&#x308;" 
d="M-192 1231q-46 0 -79 33t-33 79q0 45 33 77.5t79 32.5q45 0 77.5 -32.5t32.5 -77.5q0 -46 -32.5 -79t-77.5 -33zM195 1237q-45 0 -77 32.5t-32 77.5t32 76.5t77 31.5t77 -31.5t32 -76.5t-32 -77.5t-77 -32.5z" />
    <glyph glyph-name="hookabovecomb" unicode="&#x309;" 
d="M49 1352q0 35 -22.5 55t-66.5 20q-27 0 -52 -6.5t-40 -13.5l-15 -7l-17 54l-17 54l21 9.5t59.5 20t80.5 10.5q91 0 146.5 -51.5t55.5 -136.5q0 -86 -50 -134.5t-106.5 -67l-56.5 -18.5l-16.5 54.5l-16.5 54.5l32 12t56.5 33.5t24.5 57.5z" />
    <glyph glyph-name="uni030A" unicode="&#x30a;" 
d="M-1 1161q-90 0 -153 64t-63 154t63 153t153 63t154 -63t64 -153t-64 -154t-154 -64zM-1 1273q42 0 73 31t31 75q0 42 -31 73t-73 31t-73 -31t-31 -73q0 -44 31 -75t73 -31z" />
    <glyph glyph-name="uni030B" unicode="&#x30b;" 
d="M-313 1200v0v0l127 280v0v0h183v0v0l-163 -280v0v0h-147zM3 1200v0v0l127 280v0v0h183v0v0l-163 -280v0v0h-147z" />
    <glyph glyph-name="uni030C" unicode="&#x30c;" 
d="M-81 1200v0v0l-247 280v0v0h161v0v0l164 -179h6l161 179v0v0h164v0v0l-247 -280v0v0h-162z" />
    <glyph glyph-name="uni0312" unicode="&#x312;" 
d="M136 1567l-105 -157q34 -7 61 -39t27 -76q0 -52 -37 -89t-91 -37t-91 37t-37 89q0 28 11 58t43 78l130 194v0z" />
    <glyph glyph-name="uni031B" unicode="&#x31b;" 
d="M148 1303v129h73q40 0 56.5 20.5t16.5 58.5v130v0v0h135v0v0v-130q0 -103 -51.5 -155.5t-156.5 -52.5h-73z" />
    <glyph glyph-name="dotbelowcomb" unicode="&#x323;" 
d="M1 -377q-47 0 -81 34t-34 81q0 49 34 81t81 32q49 0 81 -32t32 -81q0 -47 -32 -81t-81 -34z" />
    <glyph glyph-name="uni0326" unicode="&#x326;" 
d="M-136 -547l105 157q-34 7 -61 39t-27 76q0 52 37 89t91 37t91 -37t37 -89q0 -28 -11 -58t-43 -78l-130 -194v0z" />
    <glyph glyph-name="uni0327" unicode="&#x327;" 
d="M25 -504q-71 0 -124.5 38t-80.5 106v0v0l122 52v0v0q13 -36 36.5 -53t49.5 -17q34 0 57 24t23 60q0 38 -25.5 61.5t-56.5 23.5q-20 0 -37.5 -8.5t-27.5 -21.5v0v0l-125 55v0v0l106 194h132l-77 -110q12 5 28.5 8t29.5 3q83 0 138 -56.5t55 -143.5q0 -92 -63.5 -153.5
t-159.5 -61.5z" />
    <glyph glyph-name="uni0328" unicode="&#x328;" 
d="M63 -464q-105 0 -170.5 57t-65.5 150q0 80 47.5 152t126.5 117l136 -12q-76 -62 -110 -112.5t-34 -101.5q0 -48 28 -75.5t77 -27.5q17 0 31 2.5t44 13.5v0v0v-146v0v0q-32 -10 -54 -13.5t-56 -3.5z" />
    <glyph glyph-name="uni0335" unicode="&#x335;" 
d="M0 1150v0v0v130v0v0h634v0v0v-130v0v0h-634z" />
    <glyph glyph-name="uni0337" unicode="&#x337;" 
d="M-20 339v0v0v191v0v0l222 179l17 -2l223 178v0v0v-193v0v0l-223 -177l-17 1z" />
    <glyph glyph-name="uni03BC" unicode="&#x3bc;" horiz-adv-x="1260" 
d="M126 -432v0v0v1452v0v0h170v0v0v-624q0 -125 66 -199.5t177 -74.5q140 0 217.5 81.5t77.5 229.5v587v0v0h168v0v0v-744q0 -72 29.5 -111t84.5 -39q20 0 37.5 3.5t35 9.5l17.5 6v0v-162v0l-17 -4t-42 -7.5t-45 -3.5q-115 0 -174 46t-80 134h-8q-46 -85 -124.5 -132.5
t-175.5 -47.5q-81 0 -146 38t-92 102h-8v-540v0v0h-168z" />
    <glyph glyph-name="uni0E3F" unicode="&#xe3f;" horiz-adv-x="1171" 
d="M150 0v0v0v1432v0v0h494q169 0 289.5 -109.5t120.5 -273.5v0q0 -103 -52 -182t-144 -123v-8q109 -36 176.5 -124t67.5 -202v0q0 -176 -126 -293t-304 -117h-522zM320 162h362q104 0 176 74t72 174v0q0 101 -75 171.5t-181 70.5h-434v162h404q104 0 173 68t69 161v0
q0 93 -67.5 160t-166.5 67h-332v-1108zM519 729v869v0v0h136v0v0v-869h-136zM519 -166v0v0v895h136v-895v0v0h-136z" />
    <glyph glyph-name="uni1E44" unicode="&#x1e44;" horiz-adv-x="1416" 
d="M160 0v0v0v1432v0v0h206v0v0l722 -1140h6l-8 276v864v0v0h170v0v0v-1432v0v0h-174v0v0l-754 1194h-6l8 -276v-918v0v0h-170zM708 1644q-47 0 -81 34t-34 81q0 49 34 81t81 32q49 0 81 -32t32 -81q0 -47 -32 -81t-81 -34z" />
    <glyph glyph-name="uni1E45" unicode="&#x1e45;" horiz-adv-x="1122" 
d="M126 0v1020v0v0h162v0v0v-180l-27 30h33q44 78 137 130t195 52q180 0 279 -105t99 -293v-654v0v0h-170v0v0v628q0 134 -64 202t-190 68q-120 0 -202 -96t-82 -228v-574v0v0h-170v0v0zM572 1232q-47 0 -81 34t-34 81q0 49 34 81t81 32q49 0 81 -32t32 -81q0 -47 -32 -81
t-81 -34z" />
    <glyph glyph-name="uni1E62" unicode="&#x1e62;" horiz-adv-x="1101" 
d="M558 -32q-125 0 -221.5 42t-156 114.5t-90 152l-30.5 79.5v0l162 66v0l26.5 -66t70.5 -119t107.5 -81t143.5 -28q130 0 211 70t81 182v0q0 86 -61.5 153.5t-262.5 134.5q-248 83 -336 182.5t-88 237.5v0q0 158 123.5 267t315.5 109q104 0 186.5 -31.5t140 -89t84 -112.5
l26.5 -55v0l-158 -68v0l-16.5 36.5t-56 76.5t-91.5 60.5t-120 20.5q-115 0 -188.5 -57t-73.5 -150v0q0 -75 56.5 -135.5t293.5 -140.5q199 -67 296.5 -174t97.5 -261v0q0 -195 -133.5 -305.5t-338.5 -110.5zM560 -377q-47 0 -81 34t-34 81q0 49 34 81t81 32q49 0 81 -32
t32 -81q0 -47 -32 -81t-81 -34z" />
    <glyph glyph-name="uni1E63" unicode="&#x1e63;" horiz-adv-x="943" 
d="M482 -32q-97 0 -172.5 25t-135.5 76t-91 112l-31 61v0l152 69v0l26 -45.5t64.5 -79.5t85.5 -51t114 -17q100 0 160 39.5t60 115.5v0q0 60 -48 96.5t-200 70.5q-200 45 -289 122.5t-89 199.5v0q0 125 112.5 207.5t271.5 82.5q87 0 154.5 -20t124.5 -63.5t83 -90l26 -46.5
v0l-148 -68v0l-22.5 33t-54.5 57t-73.5 35t-93.5 11q-91 0 -149.5 -40t-58.5 -92v0q0 -56 42.5 -95.5t211.5 -78.5q208 -47 290 -125t82 -184v0q0 -143 -114 -230t-290 -87zM480 -377q-47 0 -81 34t-34 81q0 49 34 81t81 32q49 0 81 -32t32 -81q0 -47 -32 -81t-81 -34z" />
    <glyph glyph-name="Wgrave" unicode="&#x1e80;" horiz-adv-x="1888" 
d="M421 0v0v0l-382 1432v0v0h181v0v0l262 -1052l24 -98h6l30 98l323 1052v0v0h174v0v0l309 -1052l30 -98h6l24 98l257 1052v0v0h190v0v0l-382 -1432v0v0h-176v0v0l-310 1036l-32 112h-6l-34 -112l-318 -1036v0v0h-176zM888 1612v0v0l-163 280v0v0h183v0v0l127 -280v0v0h-147
z" />
    <glyph glyph-name="wgrave" unicode="&#x1e81;" horiz-adv-x="1554" 
d="M339 0v0v0l-324 1020v0v0h175v0v0l213 -715l27 -91h6l27 84l228 722v0v0h175v0v0l228 -716l28 -88h6l26 86l214 718v0v0h172v0v0l-329 -1020v0v0h-175v0v0l-238 739l-20 72h-6l-22 -72l-235 -739v0v0h-176zM714 1200v0v0l-163 280v0v0h183v0v0l127 -280v0v0h-147z" />
    <glyph glyph-name="Wacute" unicode="&#x1e82;" horiz-adv-x="1888" 
d="M421 0v0v0l-382 1432v0v0h181v0v0l262 -1052l24 -98h6l30 98l323 1052v0v0h174v0v0l309 -1052l30 -98h6l24 98l257 1052v0v0h190v0v0l-382 -1432v0v0h-176v0v0l-310 1036l-32 112h-6l-34 -112l-318 -1036v0v0h-176zM869 1612v0v0l127 280v0v0h183v0v0l-163 -280v0v0h-147
z" />
    <glyph glyph-name="wacute" unicode="&#x1e83;" horiz-adv-x="1554" 
d="M339 0v0v0l-324 1020v0v0h175v0v0l213 -715l27 -91h6l27 84l228 722v0v0h175v0v0l228 -716l28 -88h6l26 86l214 718v0v0h172v0v0l-329 -1020v0v0h-175v0v0l-238 739l-20 72h-6l-22 -72l-235 -739v0v0h-176zM695 1200v0v0l127 280v0v0h183v0v0l-163 -280v0v0h-147z" />
    <glyph glyph-name="Wdieresis" unicode="&#x1e84;" horiz-adv-x="1888" 
d="M421 0v0v0l-382 1432v0v0h181v0v0l262 -1052l24 -98h6l30 98l323 1052v0v0h174v0v0l309 -1052l30 -98h6l24 98l257 1052v0v0h190v0v0l-382 -1432v0v0h-176v0v0l-310 1036l-32 112h-6l-34 -112l-318 -1036v0v0h-176zM760 1643q-46 0 -79 33t-33 79q0 45 33 77.5t79 32.5
q45 0 77.5 -32.5t32.5 -77.5q0 -46 -32.5 -79t-77.5 -33zM1147 1649q-45 0 -77 32.5t-32 77.5t32 76.5t77 31.5t77 -31.5t32 -76.5t-32 -77.5t-77 -32.5z" />
    <glyph glyph-name="wdieresis" unicode="&#x1e85;" horiz-adv-x="1554" 
d="M339 0v0v0l-324 1020v0v0h175v0v0l213 -715l27 -91h6l27 84l228 722v0v0h175v0v0l228 -716l28 -88h6l26 86l214 718v0v0h172v0v0l-329 -1020v0v0h-175v0v0l-238 739l-20 72h-6l-22 -72l-235 -739v0v0h-176zM586 1231q-46 0 -79 33t-33 79q0 45 33 77.5t79 32.5
q45 0 77.5 -32.5t32.5 -77.5q0 -46 -32.5 -79t-77.5 -33zM973 1237q-45 0 -77 32.5t-32 77.5t32 76.5t77 31.5t77 -31.5t32 -76.5t-32 -77.5t-77 -32.5z" />
    <glyph glyph-name="uni1E9E" unicode="&#x1e9e;" horiz-adv-x="1391" 
d="M853 -22q-81 0 -149.5 17t-129 49t-88.5 56.5l-28 24.5v0l102 125v0l24 -19t61 -40.5t89 -36t123 -14.5q127 0 208.5 75.5t81.5 193.5v0q0 117 -78 192t-209 75h-260v0v0v110v0v0l363 452q-63 37 -121.5 53t-137.5 16q-150 0 -261.5 -94t-111.5 -283v-930v0v0h-171v0v0
v922q0 257 152.5 399.5t389.5 142.5q145 0 263 -50.5t224 -141.5v0v0l-375 -446h52q204 0 328.5 -114t124.5 -291v0q0 -194 -131 -318.5t-335 -124.5z" />
    <glyph glyph-name="uni1EA0" unicode="&#x1ea0;" horiz-adv-x="1340" 
d="M30 0v0v0l545 1432v0v0h195v0v0l540 -1432v0v0h-187v0v0l-392 1072l-57 172h-6l-57 -172l-397 -1072v0v0h-184zM262 394l58 160h660l58 -160h-776zM673 -377q-47 0 -81 34t-34 81q0 49 34 81t81 32q49 0 81 -32t32 -81q0 -47 -32 -81t-81 -34z" />
    <glyph glyph-name="uni1EA1" unicode="&#x1ea1;" horiz-adv-x="1070" 
d="M452 -32q-170 0 -277 96.5t-107 248.5v0q0 153 120.5 246t309.5 93q84 0 165 -19t127 -47v62q0 112 -79 182t-203 70q-66 0 -111 -15.5t-75.5 -38t-59 -53.5l-28.5 -31v0l-129 96v0l38.5 42t87.5 76t112.5 55t164.5 21q206 0 325 -109t119 -297v-646v0v0h-162v0v0v247
l60 -100h-66q-48 -80 -138 -129.5t-194 -49.5zM468 119q133 0 227.5 94t94.5 229v0q-50 34 -120 53t-146 19q-130 0 -206 -51t-76 -153v0q0 -85 64 -138t162 -53zM517 -377q-47 0 -81 34t-34 81q0 49 34 81t81 32q49 0 81 -32t32 -81q0 -47 -32 -81t-81 -34z" />
    <glyph glyph-name="uni1EA2" unicode="&#x1ea2;" horiz-adv-x="1340" 
d="M30 0v0v0l545 1432v0v0h195v0v0l540 -1432v0v0h-187v0v0l-392 1072l-57 172h-6l-57 -172l-397 -1072v0v0h-184zM262 394l58 160h660l58 -160h-776zM705 1764q0 35 -22.5 55t-66.5 20q-27 0 -52 -6.5t-40 -13.5l-15 -7l-17 54l-17 54l21 9.5t59.5 20t80.5 10.5
q91 0 146.5 -51.5t55.5 -136.5q0 -86 -50 -134.5t-106.5 -67l-56.5 -18.5l-16.5 54.5l-16.5 54.5l32 12t56.5 33.5t24.5 57.5z" />
    <glyph glyph-name="uni1EA3" unicode="&#x1ea3;" horiz-adv-x="1070" 
d="M452 -32q-170 0 -277 96.5t-107 248.5v0q0 153 120.5 246t309.5 93q84 0 165 -19t127 -47v62q0 112 -79 182t-203 70q-66 0 -111 -15.5t-75.5 -38t-59 -53.5l-28.5 -31v0l-129 96v0l38.5 42t87.5 76t112.5 55t164.5 21q206 0 325 -109t119 -297v-646v0v0h-162v0v0v247
l60 -100h-66q-48 -80 -138 -129.5t-194 -49.5zM468 119q133 0 227.5 94t94.5 229v0q-50 34 -120 53t-146 19q-130 0 -206 -51t-76 -153v0q0 -85 64 -138t162 -53zM572 1352q0 35 -22.5 55t-66.5 20q-27 0 -52 -6.5t-40 -13.5l-15 -7l-17 54l-17 54l21 9.5t59.5 20t80.5 10.5
q91 0 146.5 -51.5t55.5 -136.5q0 -86 -50 -134.5t-106.5 -67l-56.5 -18.5l-16.5 54.5l-16.5 54.5l32 12t56.5 33.5t24.5 57.5z" />
    <glyph glyph-name="uni1EA4" unicode="&#x1ea4;" horiz-adv-x="1340" 
d="M30 0v0v0l545 1432v0v0h195v0v0l540 -1432v0v0h-187v0v0l-392 1072l-57 172h-6l-57 -172l-397 -1072v0v0h-184zM262 394l58 160h660l58 -160h-776zM346 1552v0v0l245 260v0v0h156v0v0l247 -260v0v0h-167v0v0l-154 159h-6l-152 -159v0v0h-169zM926 1767v0v0l115 260v0v0
h183v0v0l-153 -260v0v0h-145z" />
    <glyph glyph-name="uni1EA5" unicode="&#x1ea5;" horiz-adv-x="1070" 
d="M452 -32q-170 0 -277 96.5t-107 248.5v0q0 153 120.5 246t309.5 93q84 0 165 -19t127 -47v62q0 112 -79 182t-203 70q-66 0 -111 -15.5t-75.5 -38t-59 -53.5l-28.5 -31v0l-129 96v0l38.5 42t87.5 76t112.5 55t164.5 21q206 0 325 -109t119 -297v-646v0v0h-162v0v0v247
l60 -100h-66q-48 -80 -138 -129.5t-194 -49.5zM468 119q133 0 227.5 94t94.5 229v0q-50 34 -120 53t-146 19q-130 0 -206 -51t-76 -153v0q0 -85 64 -138t162 -53zM208 1170v0v0l247 280v0v0h162v0v0l247 -280v0v0h-161v0v0l-164 179h-6l-161 -179v0v0h-164zM775 1400v0v0
l127 280v0v0h183v0v0l-163 -280v0v0h-147z" />
    <glyph glyph-name="uni1EA6" unicode="&#x1ea6;" horiz-adv-x="1340" 
d="M30 0v0v0l545 1432v0v0h195v0v0l540 -1432v0v0h-187v0v0l-392 1072l-57 172h-6l-57 -172l-397 -1072v0v0h-184zM262 394l58 160h660l58 -160h-776zM346 1552v0v0l245 260v0v0h156v0v0l247 -260v0v0h-167v0v0l-154 159h-6l-152 -159v0v0h-169zM945 1767v0v0l-153 260v0v0
h183v0v0l115 -260v0v0h-145z" />
    <glyph glyph-name="uni1EA7" unicode="&#x1ea7;" horiz-adv-x="1070" 
d="M452 -32q-170 0 -277 96.5t-107 248.5v0q0 153 120.5 246t309.5 93q84 0 165 -19t127 -47v62q0 112 -79 182t-203 70q-66 0 -111 -15.5t-75.5 -38t-59 -53.5l-28.5 -31v0l-129 96v0l38.5 42t87.5 76t112.5 55t164.5 21q206 0 325 -109t119 -297v-646v0v0h-162v0v0v247
l60 -100h-66q-48 -80 -138 -129.5t-194 -49.5zM468 119q133 0 227.5 94t94.5 229v0q-50 34 -120 53t-146 19q-130 0 -206 -51t-76 -153v0q0 -85 64 -138t162 -53zM208 1170v0v0l247 280v0v0h162v0v0l247 -280v0v0h-161v0v0l-164 179h-6l-161 -179v0v0h-164zM801 1400v0v0
l-163 280v0v0h183v0v0l127 -280v0v0h-147z" />
    <glyph glyph-name="uni1EA8" unicode="&#x1ea8;" horiz-adv-x="1340" 
d="M30 0v0v0l545 1432v0v0h195v0v0l540 -1432v0v0h-187v0v0l-392 1072l-57 172h-6l-57 -172l-397 -1072v0v0h-184zM262 394l58 160h660l58 -160h-776zM346 1552v0v0l245 260v0v0h156v0v0l247 -260v0v0h-167v0v0l-154 159h-6l-152 -159v0v0h-169zM1032 1961q0 30 -21 47.5
t-67 17.5q-30 0 -56.5 -5.5t-40 -11l-13.5 -5.5l-16.5 53l-16.5 53l17.5 9t57 19t84.5 10q97 0 150 -48t53 -129q0 -79 -44.5 -125.5t-107.5 -63l-63 -16.5l-15 52l-15 52l24.5 6.5t57 24.5t32.5 60z" />
    <glyph glyph-name="uni1EA9" unicode="&#x1ea9;" horiz-adv-x="1070" 
d="M452 -32q-170 0 -277 96.5t-107 248.5v0q0 153 120.5 246t309.5 93q84 0 165 -19t127 -47v62q0 112 -79 182t-203 70q-66 0 -111 -15.5t-75.5 -38t-59 -53.5l-28.5 -31v0l-129 96v0l38.5 42t87.5 76t112.5 55t164.5 21q206 0 325 -109t119 -297v-646v0v0h-162v0v0v247
l60 -100h-66q-48 -80 -138 -129.5t-194 -49.5zM468 119q133 0 227.5 94t94.5 229v0q-50 34 -120 53t-146 19q-130 0 -206 -51t-76 -153v0q0 -85 64 -138t162 -53zM208 1170v0v0l247 280v0v0h162v0v0l247 -280v0v0h-161v0v0l-164 179h-6l-161 -179v0v0h-164zM884 1591
q0 35 -22.5 55t-66.5 20q-27 0 -52 -6.5t-40 -13.5l-15 -7l-17 54l-17 54l21 9.5t59.5 20t80.5 10.5q91 0 146.5 -51.5t55.5 -136.5q0 -86 -50 -134.5t-106.5 -67l-56.5 -18.5l-16.5 54.5l-16.5 54.5l32 12t56.5 33.5t24.5 57.5z" />
    <glyph glyph-name="uni1EAA" unicode="&#x1eaa;" horiz-adv-x="1340" 
d="M30 0v0v0l545 1432v0v0h195v0v0l540 -1432v0v0h-187v0v0l-392 1072l-57 172h-6l-57 -172l-397 -1072v0v0h-184zM262 394l58 160h660l58 -160h-776zM346 1552v0v0l245 260v0v0h156v0v0l247 -260v0v0h-167v0v0l-154 159h-6l-152 -159v0v0h-169zM816 1895q-55 0 -92.5 13.5
t-68.5 29.5q-35 18 -62 32t-48 14q-18 0 -29 -6t-20 -19.5t-10.5 -33.5l-1.5 -20v0h-142v0l7.5 48.5t29 81.5t62 56.5t98.5 23.5q48 0 84 -14t77 -36q39 -21 59.5 -30t38.5 -9q17 0 25.5 7.5t17 20.5t10.5 35l2 22v0h145v0l-4 -51.5t-28 -88.5t-61 -56.5t-89 -19.5z" />
    <glyph glyph-name="uni1EAB" unicode="&#x1eab;" horiz-adv-x="1070" 
d="M452 -32q-170 0 -277 96.5t-107 248.5v0q0 153 120.5 246t309.5 93q84 0 165 -19t127 -47v62q0 112 -79 182t-203 70q-66 0 -111 -15.5t-75.5 -38t-59 -53.5l-28.5 -31v0l-129 96v0l38.5 42t87.5 76t112.5 55t164.5 21q206 0 325 -109t119 -297v-646v0v0h-162v0v0v247
l60 -100h-66q-48 -80 -138 -129.5t-194 -49.5zM468 119q133 0 227.5 94t94.5 229v0q-50 34 -120 53t-146 19q-130 0 -206 -51t-76 -153v0q0 -85 64 -138t162 -53zM208 1170v0v0l247 280v0v0h162v0v0l247 -280v0v0h-161v0v0l-164 179h-6l-161 -179v0v0h-164zM683 1523
q-55 0 -92.5 13.5t-68.5 29.5q-35 18 -62 32t-48 14q-18 0 -29 -6t-20 -19.5t-10.5 -33.5l-1.5 -20v0h-142v0l7.5 48.5t29 81.5t62 56.5t98.5 23.5q48 0 84 -14t77 -36q39 -21 59.5 -30t38.5 -9q17 0 25.5 7.5t17 20.5t10.5 35l2 22v0h145v0l-4 -51.5t-28 -88.5t-61 -56.5
t-89 -19.5z" />
    <glyph glyph-name="uni1EAC" unicode="&#x1eac;" horiz-adv-x="1340" 
d="M30 0v0v0l545 1432v0v0h195v0v0l540 -1432v0v0h-187v0v0l-392 1072l-57 172h-6l-57 -172l-397 -1072v0v0h-184zM262 394l58 160h660l58 -160h-776zM673 -377q-47 0 -81 34t-34 81q0 49 34 81t81 32q49 0 81 -32t32 -81q0 -47 -32 -81t-81 -34zM342 1612v0v0l247 280v0v0
h162v0v0l247 -280v0v0h-161v0v0l-164 179h-6l-161 -179v0v0h-164z" />
    <glyph glyph-name="uni1EAD" unicode="&#x1ead;" horiz-adv-x="1070" 
d="M452 -32q-170 0 -277 96.5t-107 248.5v0q0 153 120.5 246t309.5 93q84 0 165 -19t127 -47v62q0 112 -79 182t-203 70q-66 0 -111 -15.5t-75.5 -38t-59 -53.5l-28.5 -31v0l-129 96v0l38.5 42t87.5 76t112.5 55t164.5 21q206 0 325 -109t119 -297v-646v0v0h-162v0v0v247
l60 -100h-66q-48 -80 -138 -129.5t-194 -49.5zM468 119q133 0 227.5 94t94.5 229v0q-50 34 -120 53t-146 19q-130 0 -206 -51t-76 -153v0q0 -85 64 -138t162 -53zM517 -377q-47 0 -81 34t-34 81q0 49 34 81t81 32q49 0 81 -32t32 -81q0 -47 -32 -81t-81 -34zM209 1200v0v0
l247 280v0v0h162v0v0l247 -280v0v0h-161v0v0l-164 179h-6l-161 -179v0v0h-164z" />
    <glyph glyph-name="uni1EAE" unicode="&#x1eae;" horiz-adv-x="1340" 
d="M30 0v0v0l545 1432v0v0h195v0v0l540 -1432v0v0h-187v0v0l-392 1072l-57 172h-6l-57 -172l-397 -1072v0v0h-184zM262 394l58 160h660l58 -160h-776zM670 1539q-135 0 -210 71t-84 209v0h76h63v0q7 -75 47 -116.5t108 -41.5q67 0 108 41.5t49 116.5v0h62h75v0
q-11 -138 -85.5 -209t-208.5 -71zM588 1819v0v0l115 260v0v0h183v0v0l-153 -260v0v0h-145z" />
    <glyph glyph-name="uni1EAF" unicode="&#x1eaf;" horiz-adv-x="1070" 
d="M452 -32q-170 0 -277 96.5t-107 248.5v0q0 153 120.5 246t309.5 93q84 0 165 -19t127 -47v62q0 112 -79 182t-203 70q-66 0 -111 -15.5t-75.5 -38t-59 -53.5l-28.5 -31v0l-129 96v0l38.5 42t87.5 76t112.5 55t164.5 21q206 0 325 -109t119 -297v-646v0v0h-162v0v0v247
l60 -100h-66q-48 -80 -138 -129.5t-194 -49.5zM468 119q133 0 227.5 94t94.5 229v0q-50 34 -120 53t-146 19q-130 0 -206 -51t-76 -153v0q0 -85 64 -138t162 -53zM537 1170q-135 0 -210 71t-84 209v0h76h63v0q7 -75 47 -116.5t108 -41.5q67 0 108 41.5t49 116.5v0h62h75v0
q-11 -138 -85.5 -209t-208.5 -71zM451 1465v0v0l127 280v0v0h183v0v0l-163 -280v0v0h-147z" />
    <glyph glyph-name="uni1EB0" unicode="&#x1eb0;" horiz-adv-x="1340" 
d="M30 0v0v0l545 1432v0v0h195v0v0l540 -1432v0v0h-187v0v0l-392 1072l-57 172h-6l-57 -172l-397 -1072v0v0h-184zM262 394l58 160h660l58 -160h-776zM670 1539q-135 0 -210 71t-84 209v0h76h63v0q7 -75 47 -116.5t108 -41.5q67 0 108 41.5t49 116.5v0h62h75v0
q-11 -138 -85.5 -209t-208.5 -71zM607 1819v0v0l-153 260v0v0h183v0v0l115 -260v0v0h-145z" />
    <glyph glyph-name="uni1EB1" unicode="&#x1eb1;" horiz-adv-x="1070" 
d="M452 -32q-170 0 -277 96.5t-107 248.5v0q0 153 120.5 246t309.5 93q84 0 165 -19t127 -47v62q0 112 -79 182t-203 70q-66 0 -111 -15.5t-75.5 -38t-59 -53.5l-28.5 -31v0l-129 96v0l38.5 42t87.5 76t112.5 55t164.5 21q206 0 325 -109t119 -297v-646v0v0h-162v0v0v247
l60 -100h-66q-48 -80 -138 -129.5t-194 -49.5zM468 119q133 0 227.5 94t94.5 229v0q-50 34 -120 53t-146 19q-130 0 -206 -51t-76 -153v0q0 -85 64 -138t162 -53zM537 1170q-135 0 -210 71t-84 209v0h76h63v0q7 -75 47 -116.5t108 -41.5q67 0 108 41.5t49 116.5v0h62h75v0
q-11 -138 -85.5 -209t-208.5 -71zM477 1465v0v0l-163 280v0v0h183v0v0l127 -280v0v0h-147z" />
    <glyph glyph-name="uni1EB2" unicode="&#x1eb2;" horiz-adv-x="1340" 
d="M30 0v0v0l545 1432v0v0h195v0v0l540 -1432v0v0h-187v0v0l-392 1072l-57 172h-6l-57 -172l-397 -1072v0v0h-184zM262 394l58 160h660l58 -160h-776zM670 1539q-135 0 -210 71t-84 209v0h76h63v0q7 -75 47 -116.5t108 -41.5q67 0 108 41.5t49 116.5v0h62h75v0
q-11 -138 -85.5 -209t-208.5 -71zM694 2013q0 30 -21 47.5t-67 17.5q-30 0 -56.5 -5.5t-40 -11l-13.5 -5.5l-16.5 53l-16.5 53l17.5 9t57 19t84.5 10q97 0 150 -48t53 -129q0 -79 -44.5 -125.5t-107.5 -63l-63 -16.5l-15 52l-15 52l24.5 6.5t57 24.5t32.5 60z" />
    <glyph glyph-name="uni1EB3" unicode="&#x1eb3;" horiz-adv-x="1070" 
d="M452 -32q-170 0 -277 96.5t-107 248.5v0q0 153 120.5 246t309.5 93q84 0 165 -19t127 -47v62q0 112 -79 182t-203 70q-66 0 -111 -15.5t-75.5 -38t-59 -53.5l-28.5 -31v0l-129 96v0l38.5 42t87.5 76t112.5 55t164.5 21q206 0 325 -109t119 -297v-646v0v0h-162v0v0v247
l60 -100h-66q-48 -80 -138 -129.5t-194 -49.5zM468 119q133 0 227.5 94t94.5 229v0q-50 34 -120 53t-146 19q-130 0 -206 -51t-76 -153v0q0 -85 64 -138t162 -53zM537 1170q-135 0 -210 71t-84 209v0h76h63v0q7 -75 47 -116.5t108 -41.5q67 0 108 41.5t49 116.5v0h62h75v0
q-11 -138 -85.5 -209t-208.5 -71zM560 1656q0 35 -22.5 55t-66.5 20q-27 0 -52 -6.5t-40 -13.5l-15 -7l-17 54l-17 54l21 9.5t59.5 20t80.5 10.5q91 0 146.5 -51.5t55.5 -136.5q0 -86 -50 -134.5t-106.5 -67l-56.5 -18.5l-16.5 54.5l-16.5 54.5l32 12t56.5 33.5t24.5 57.5z
" />
    <glyph glyph-name="uni1EB4" unicode="&#x1eb4;" horiz-adv-x="1340" 
d="M30 0v0v0l545 1432v0v0h195v0v0l540 -1432v0v0h-187v0v0l-392 1072l-57 172h-6l-57 -172l-397 -1072v0v0h-184zM262 394l58 160h660l58 -160h-776zM670 1539q-135 0 -210 71t-84 209v0h76h63v0q7 -75 47 -116.5t108 -41.5q67 0 108 41.5t49 116.5v0h62h75v0
q-11 -138 -85.5 -209t-208.5 -71zM816 1902q-55 0 -92.5 13.5t-68.5 29.5q-35 18 -62 32t-48 14q-18 0 -29 -6t-20 -19.5t-10.5 -33.5l-1.5 -20v0h-142v0l7.5 48.5t29 81.5t62 56.5t98.5 23.5q48 0 84 -14t77 -36q39 -21 59.5 -30t38.5 -9q17 0 25.5 7.5t17 20.5t10.5 35
l2 22v0h145v0l-4 -51.5t-28 -88.5t-61 -56.5t-89 -19.5z" />
    <glyph glyph-name="uni1EB5" unicode="&#x1eb5;" horiz-adv-x="1070" 
d="M452 -32q-170 0 -277 96.5t-107 248.5v0q0 153 120.5 246t309.5 93q84 0 165 -19t127 -47v62q0 112 -79 182t-203 70q-66 0 -111 -15.5t-75.5 -38t-59 -53.5l-28.5 -31v0l-129 96v0l38.5 42t87.5 76t112.5 55t164.5 21q206 0 325 -109t119 -297v-646v0v0h-162v0v0v247
l60 -100h-66q-48 -80 -138 -129.5t-194 -49.5zM468 119q133 0 227.5 94t94.5 229v0q-50 34 -120 53t-146 19q-130 0 -206 -51t-76 -153v0q0 -85 64 -138t162 -53zM537 1170q-135 0 -210 71t-84 209v0h76h63v0q7 -75 47 -116.5t108 -41.5q67 0 108 41.5t49 116.5v0h62h75v0
q-11 -138 -85.5 -209t-208.5 -71zM683 1533q-55 0 -92.5 13.5t-68.5 29.5q-35 18 -62 32t-48 14q-18 0 -29 -6t-20 -19.5t-10.5 -33.5l-1.5 -20v0h-142v0l7.5 48.5t29 81.5t62 56.5t98.5 23.5q48 0 84 -14t77 -36q39 -21 59.5 -30t38.5 -9q17 0 25.5 7.5t17 20.5t10.5 35
l2 22v0h145v0l-4 -51.5t-28 -88.5t-61 -56.5t-89 -19.5z" />
    <glyph glyph-name="uni1EB6" unicode="&#x1eb6;" horiz-adv-x="1340" 
d="M30 0v0v0l545 1432v0v0h195v0v0l540 -1432v0v0h-187v0v0l-392 1072l-57 172h-6l-57 -172l-397 -1072v0v0h-184zM262 394l58 160h660l58 -160h-776zM673 -377q-47 0 -81 34t-34 81q0 49 34 81t81 32q49 0 81 -32t32 -81q0 -47 -32 -81t-81 -34zM670 1612q-135 0 -210 71
t-84 209v0v0h139v0v0q7 -75 47 -116.5t108 -41.5q67 0 108 41.5t49 116.5v0v0h137v0v0q-11 -138 -85.5 -209t-208.5 -71z" />
    <glyph glyph-name="uni1EB7" unicode="&#x1eb7;" horiz-adv-x="1070" 
d="M452 -32q-170 0 -277 96.5t-107 248.5v0q0 153 120.5 246t309.5 93q84 0 165 -19t127 -47v62q0 112 -79 182t-203 70q-66 0 -111 -15.5t-75.5 -38t-59 -53.5l-28.5 -31v0l-129 96v0l38.5 42t87.5 76t112.5 55t164.5 21q206 0 325 -109t119 -297v-646v0v0h-162v0v0v247
l60 -100h-66q-48 -80 -138 -129.5t-194 -49.5zM468 119q133 0 227.5 94t94.5 229v0q-50 34 -120 53t-146 19q-130 0 -206 -51t-76 -153v0q0 -85 64 -138t162 -53zM517 -377q-47 0 -81 34t-34 81q0 49 34 81t81 32q49 0 81 -32t32 -81q0 -47 -32 -81t-81 -34zM537 1200
q-135 0 -210 71t-84 209v0v0h139v0v0q7 -75 47 -116.5t108 -41.5q67 0 108 41.5t49 116.5v0v0h137v0v0q-11 -138 -85.5 -209t-208.5 -71z" />
    <glyph glyph-name="uni1EB8" unicode="&#x1eb8;" horiz-adv-x="1102" 
d="M160 0v0v0v1432v0v0h796v0v0v-162v0v0h-626v-1108h638v0v0v-162v0v0h-808zM250 636v160h674v0v0v-160v0v0h-674zM565 -377q-47 0 -81 34t-34 81q0 49 34 81t81 32q49 0 81 -32t32 -81q0 -47 -32 -81t-81 -34z" />
    <glyph glyph-name="uni1EB9" unicode="&#x1eb9;" horiz-adv-x="1126" 
d="M580 -32q-222 0 -365 153t-143 391v0q0 233 140 386.5t354 153.5q220 0 353 -132.5t133 -329.5v-112v0v0h-880v140h702v0q-6 120 -89 200t-219 80q-144 0 -234 -105t-90 -281v0q0 -178 99.5 -284t247.5 -106q70 0 119.5 19t89.5 53.5t90 111.5v0v0l143 -70v0v0
q-54 -109 -119.5 -162t-144 -79.5t-187.5 -26.5zM581 -377q-47 0 -81 34t-34 81q0 49 34 81t81 32q49 0 81 -32t32 -81q0 -47 -32 -81t-81 -34z" />
    <glyph glyph-name="uni1EBA" unicode="&#x1eba;" horiz-adv-x="1102" 
d="M160 0v0v0v1432v0v0h796v0v0v-162v0v0h-626v-1108h638v0v0v-162v0v0h-808zM250 636v160h674v0v0v-160v0v0h-674zM609 1764q0 35 -22.5 55t-66.5 20q-27 0 -52 -6.5t-40 -13.5l-15 -7l-17 54l-17 54l21 9.5t59.5 20t80.5 10.5q91 0 146.5 -51.5t55.5 -136.5
q0 -86 -50 -134.5t-106.5 -67l-56.5 -18.5l-16.5 54.5l-16.5 54.5l32 12t56.5 33.5t24.5 57.5z" />
    <glyph glyph-name="uni1EBB" unicode="&#x1ebb;" horiz-adv-x="1126" 
d="M580 -32q-222 0 -365 153t-143 391v0q0 233 140 386.5t354 153.5q220 0 353 -132.5t133 -329.5v-112v0v0h-880v140h702v0q-6 120 -89 200t-219 80q-144 0 -234 -105t-90 -281v0q0 -178 99.5 -284t247.5 -106q70 0 119.5 19t89.5 53.5t90 111.5v0v0l143 -70v0v0
q-54 -109 -119.5 -162t-144 -79.5t-187.5 -26.5zM603 1352q0 35 -22.5 55t-66.5 20q-27 0 -52 -6.5t-40 -13.5l-15 -7l-17 54l-17 54l21 9.5t59.5 20t80.5 10.5q91 0 146.5 -51.5t55.5 -136.5q0 -86 -50 -134.5t-106.5 -67l-56.5 -18.5l-16.5 54.5l-16.5 54.5l32 12
t56.5 33.5t24.5 57.5z" />
    <glyph glyph-name="uni1EBC" unicode="&#x1ebc;" horiz-adv-x="1102" 
d="M160 0v0v0v1432v0v0h796v0v0v-162v0v0h-626v-1108h638v0v0v-162v0v0h-808zM250 636v160h674v0v0v-160v0v0h-674zM708 1607q-50 0 -93.5 22.5t-78.5 47.5q-27 19 -51.5 35.5t-48.5 16.5q-16 0 -29.5 -8.5t-22.5 -24t-12.5 -42l-3.5 -26.5v0h-126v0l5.5 55t30 94t68 62.5
t96.5 23.5q54 0 95 -23t77 -49q26 -20 51 -35t47 -15q19 0 32.5 8t21.5 23t10 42.5l2 27.5v0h128v0l-4 -53.5t-30 -94.5t-70.5 -64t-93.5 -23z" />
    <glyph glyph-name="uni1EBD" unicode="&#x1ebd;" horiz-adv-x="1126" 
d="M580 -32q-222 0 -365 153t-143 391v0q0 233 140 386.5t354 153.5q220 0 353 -132.5t133 -329.5v-112v0v0h-880v140h702v0q-6 120 -89 200t-219 80q-144 0 -234 -105t-90 -281v0q0 -178 99.5 -284t247.5 -106q70 0 119.5 19t89.5 53.5t90 111.5v0v0l143 -70v0v0
q-54 -109 -119.5 -162t-144 -79.5t-187.5 -26.5zM702 1195q-50 0 -93.5 22.5t-78.5 47.5q-27 19 -51.5 35.5t-48.5 16.5q-16 0 -29.5 -8.5t-22.5 -24t-12.5 -42l-3.5 -26.5v0h-126v0l5.5 55t30 94t68 62.5t96.5 23.5q54 0 95 -23t77 -49q26 -20 51 -35t47 -15q19 0 32.5 8
t21.5 23t10 42.5l2 27.5v0h128v0l-4 -53.5t-30 -94.5t-70.5 -64t-93.5 -23z" />
    <glyph glyph-name="uni1EBE" unicode="&#x1ebe;" horiz-adv-x="1102" 
d="M160 0v0v0v1432v0v0h796v0v0v-162v0v0h-626v-1108h638v0v0v-162v0v0h-808zM250 636v160h674v0v0v-160v0v0h-674zM250 1552v0v0l245 260v0v0h156v0v0l247 -260v0v0h-167v0v0l-154 159h-6l-152 -159v0v0h-169zM830 1767v0v0l115 260v0v0h183v0v0l-153 -260v0v0h-145z" />
    <glyph glyph-name="uni1EBF" unicode="&#x1ebf;" horiz-adv-x="1126" 
d="M580 -32q-222 0 -365 153t-143 391v0q0 233 140 386.5t354 153.5q220 0 353 -132.5t133 -329.5v-112v0v0h-880v140h702v0q-6 120 -89 200t-219 80q-144 0 -234 -105t-90 -281v0q0 -178 99.5 -284t247.5 -106q70 0 119.5 19t89.5 53.5t90 111.5v0v0l143 -70v0v0
q-54 -109 -119.5 -162t-144 -79.5t-187.5 -26.5zM239 1170v0v0l247 280v0v0h162v0v0l247 -280v0v0h-161v0v0l-164 179h-6l-161 -179v0v0h-164zM806 1400v0v0l127 280v0v0h183v0v0l-163 -280v0v0h-147z" />
    <glyph glyph-name="uni1EC0" unicode="&#x1ec0;" horiz-adv-x="1102" 
d="M160 0v0v0v1432v0v0h796v0v0v-162v0v0h-626v-1108h638v0v0v-162v0v0h-808zM250 636v160h674v0v0v-160v0v0h-674zM250 1552v0v0l245 260v0v0h156v0v0l247 -260v0v0h-167v0v0l-154 159h-6l-152 -159v0v0h-169zM849 1767v0v0l-153 260v0v0h183v0v0l115 -260v0v0h-145z" />
    <glyph glyph-name="uni1EC1" unicode="&#x1ec1;" horiz-adv-x="1126" 
d="M580 -32q-222 0 -365 153t-143 391v0q0 233 140 386.5t354 153.5q220 0 353 -132.5t133 -329.5v-112v0v0h-880v140h702v0q-6 120 -89 200t-219 80q-144 0 -234 -105t-90 -281v0q0 -178 99.5 -284t247.5 -106q70 0 119.5 19t89.5 53.5t90 111.5v0v0l143 -70v0v0
q-54 -109 -119.5 -162t-144 -79.5t-187.5 -26.5zM239 1170v0v0l247 280v0v0h162v0v0l247 -280v0v0h-161v0v0l-164 179h-6l-161 -179v0v0h-164zM832 1400v0v0l-163 280v0v0h183v0v0l127 -280v0v0h-147z" />
    <glyph glyph-name="uni1EC2" unicode="&#x1ec2;" horiz-adv-x="1102" 
d="M160 0v0v0v1432v0v0h796v0v0v-162v0v0h-626v-1108h638v0v0v-162v0v0h-808zM250 636v160h674v0v0v-160v0v0h-674zM250 1552v0v0l245 260v0v0h156v0v0l247 -260v0v0h-167v0v0l-154 159h-6l-152 -159v0v0h-169zM936 1961q0 30 -21 47.5t-67 17.5q-30 0 -56.5 -5.5t-40 -11
l-13.5 -5.5l-16.5 53l-16.5 53l17.5 9t57 19t84.5 10q97 0 150 -48t53 -129q0 -79 -44.5 -125.5t-107.5 -63l-63 -16.5l-15 52l-15 52l24.5 6.5t57 24.5t32.5 60z" />
    <glyph glyph-name="uni1EC3" unicode="&#x1ec3;" horiz-adv-x="1126" 
d="M580 -32q-222 0 -365 153t-143 391v0q0 233 140 386.5t354 153.5q220 0 353 -132.5t133 -329.5v-112v0v0h-880v140h702v0q-6 120 -89 200t-219 80q-144 0 -234 -105t-90 -281v0q0 -178 99.5 -284t247.5 -106q70 0 119.5 19t89.5 53.5t90 111.5v0v0l143 -70v0v0
q-54 -109 -119.5 -162t-144 -79.5t-187.5 -26.5zM239 1170v0v0l247 280v0v0h162v0v0l247 -280v0v0h-161v0v0l-164 179h-6l-161 -179v0v0h-164zM915 1591q0 35 -22.5 55t-66.5 20q-27 0 -52 -6.5t-40 -13.5l-15 -7l-17 54l-17 54l21 9.5t59.5 20t80.5 10.5q91 0 146.5 -51.5
t55.5 -136.5q0 -86 -50 -134.5t-106.5 -67l-56.5 -18.5l-16.5 54.5l-16.5 54.5l32 12t56.5 33.5t24.5 57.5z" />
    <glyph glyph-name="uni1EC4" unicode="&#x1ec4;" horiz-adv-x="1102" 
d="M160 0v0v0v1432v0v0h796v0v0v-162v0v0h-626v-1108h638v0v0v-162v0v0h-808zM250 636v160h674v0v0v-160v0v0h-674zM250 1552v0v0l245 260v0v0h156v0v0l247 -260v0v0h-167v0v0l-154 159h-6l-152 -159v0v0h-169zM720 1895q-55 0 -92.5 13.5t-68.5 29.5q-35 18 -62 32t-48 14
q-18 0 -29 -6t-20 -19.5t-10.5 -33.5l-1.5 -20v0h-142v0l7.5 48.5t29 81.5t62 56.5t98.5 23.5q48 0 84 -14t77 -36q39 -21 59.5 -30t38.5 -9q17 0 25.5 7.5t17 20.5t10.5 35l2 22v0h145v0l-4 -51.5t-28 -88.5t-61 -56.5t-89 -19.5z" />
    <glyph glyph-name="uni1EC5" unicode="&#x1ec5;" horiz-adv-x="1126" 
d="M580 -32q-222 0 -365 153t-143 391v0q0 233 140 386.5t354 153.5q220 0 353 -132.5t133 -329.5v-112v0v0h-880v140h702v0q-6 120 -89 200t-219 80q-144 0 -234 -105t-90 -281v0q0 -178 99.5 -284t247.5 -106q70 0 119.5 19t89.5 53.5t90 111.5v0v0l143 -70v0v0
q-54 -109 -119.5 -162t-144 -79.5t-187.5 -26.5zM239 1170v0v0l247 280v0v0h162v0v0l247 -280v0v0h-161v0v0l-164 179h-6l-161 -179v0v0h-164zM714 1523q-55 0 -92.5 13.5t-68.5 29.5q-35 18 -62 32t-48 14q-18 0 -29 -6t-20 -19.5t-10.5 -33.5l-1.5 -20v0h-142v0l7.5 48.5
t29 81.5t62 56.5t98.5 23.5q48 0 84 -14t77 -36q39 -21 59.5 -30t38.5 -9q17 0 25.5 7.5t17 20.5t10.5 35l2 22v0h145v0l-4 -51.5t-28 -88.5t-61 -56.5t-89 -19.5z" />
    <glyph glyph-name="uni1EC6" unicode="&#x1ec6;" horiz-adv-x="1102" 
d="M160 0v0v0v1432v0v0h796v0v0v-162v0v0h-626v-1108h638v0v0v-162v0v0h-808zM250 636v160h674v0v0v-160v0v0h-674zM565 -377q-47 0 -81 34t-34 81q0 49 34 81t81 32q49 0 81 -32t32 -81q0 -47 -32 -81t-81 -34zM246 1612v0v0l247 280v0v0h162v0v0l247 -280v0v0h-161v0v0
l-164 179h-6l-161 -179v0v0h-164z" />
    <glyph glyph-name="uni1EC7" unicode="&#x1ec7;" horiz-adv-x="1126" 
d="M580 -32q-222 0 -365 153t-143 391v0q0 233 140 386.5t354 153.5q220 0 353 -132.5t133 -329.5v-112v0v0h-880v140h702v0q-6 120 -89 200t-219 80q-144 0 -234 -105t-90 -281v0q0 -178 99.5 -284t247.5 -106q70 0 119.5 19t89.5 53.5t90 111.5v0v0l143 -70v0v0
q-54 -109 -119.5 -162t-144 -79.5t-187.5 -26.5zM581 -377q-47 0 -81 34t-34 81q0 49 34 81t81 32q49 0 81 -32t32 -81q0 -47 -32 -81t-81 -34zM240 1200v0v0l247 280v0v0h162v0v0l247 -280v0v0h-161v0v0l-164 179h-6l-161 -179v0v0h-164z" />
    <glyph glyph-name="uni1EC8" unicode="&#x1ec8;" horiz-adv-x="490" 
d="M160 0v0v0v1432v0v0h170v0v0v-1432v0v0h-170zM280 1764q0 35 -22.5 55t-66.5 20q-27 0 -52 -6.5t-40 -13.5l-15 -7l-17 54l-17 54l21 9.5t59.5 20t80.5 10.5q91 0 146.5 -51.5t55.5 -136.5q0 -86 -50 -134.5t-106.5 -67l-56.5 -18.5l-16.5 54.5l-16.5 54.5l32 12
t56.5 33.5t24.5 57.5z" />
    <glyph glyph-name="uni1EC9" unicode="&#x1ec9;" horiz-adv-x="452" 
d="M141 0v0v0v1020v0v0h170v0v0v-1020v0v0h-170zM261 1352q0 35 -22.5 55t-66.5 20q-27 0 -52 -6.5t-40 -13.5l-15 -7l-17 54l-17 54l21 9.5t59.5 20t80.5 10.5q91 0 146.5 -51.5t55.5 -136.5q0 -86 -50 -134.5t-106.5 -67l-56.5 -18.5l-16.5 54.5l-16.5 54.5l32 12
t56.5 33.5t24.5 57.5z" />
    <glyph glyph-name="uni1ECA" unicode="&#x1eca;" horiz-adv-x="490" 
d="M160 0v0v0v1432v0v0h170v0v0v-1432v0v0h-170zM246 -377q-47 0 -81 34t-34 81q0 49 34 81t81 32q49 0 81 -32t32 -81q0 -47 -32 -81t-81 -34z" />
    <glyph glyph-name="uni1ECB" unicode="&#x1ecb;" horiz-adv-x="452" 
d="M141 0v0v0v1020v0v0h170v0v0v-1020v0v0h-170zM226 1232q-47 0 -81 34t-34 81q0 49 34 81t81 32q49 0 81 -32t32 -81q0 -47 -32 -81t-81 -34zM227 -377q-47 0 -81 34t-34 81q0 49 34 81t81 32q49 0 81 -32t32 -81q0 -47 -32 -81t-81 -34z" />
    <glyph glyph-name="uni1ECC" unicode="&#x1ecc;" horiz-adv-x="1648" 
d="M824 -32q-312 0 -523 217t-211 534v0q0 317 212 531t522 214q309 0 521.5 -212.5t212.5 -532.5v0q0 -317 -211 -534t-523 -217zM824 130q240 0 401 167t161 422v0q0 256 -162.5 419.5t-399.5 163.5q-238 0 -400 -164.5t-162 -418.5v0q0 -255 161 -422t401 -167zM825 -377
q-47 0 -81 34t-34 81q0 49 34 81t81 32q49 0 81 -32t32 -81q0 -47 -32 -81t-81 -34z" />
    <glyph glyph-name="uni1ECD" unicode="&#x1ecd;" horiz-adv-x="1192" 
d="M596 -32q-226 0 -375 155t-149 388v0q0 237 149.5 389t374.5 152q224 0 374 -153.5t150 -387.5v0q0 -233 -148.5 -388t-375.5 -155zM596 122q150 0 252 109t102 280v0q0 174 -103 280.5t-251 106.5q-150 0 -252.5 -107t-102.5 -280v0q0 -171 101.5 -280t253.5 -109z
M597 -377q-47 0 -81 34t-34 81q0 49 34 81t81 32q49 0 81 -32t32 -81q0 -47 -32 -81t-81 -34z" />
    <glyph glyph-name="uni1ECE" unicode="&#x1ece;" horiz-adv-x="1648" 
d="M824 -32q-312 0 -523 217t-211 534v0q0 317 212 531t522 214q309 0 521.5 -212.5t212.5 -532.5v0q0 -317 -211 -534t-523 -217zM824 130q240 0 401 167t161 422v0q0 256 -162.5 419.5t-399.5 163.5q-238 0 -400 -164.5t-162 -418.5v0q0 -255 161 -422t401 -167zM859 1764
q0 35 -22.5 55t-66.5 20q-27 0 -52 -6.5t-40 -13.5l-15 -7l-17 54l-17 54l21 9.5t59.5 20t80.5 10.5q91 0 146.5 -51.5t55.5 -136.5q0 -86 -50 -134.5t-106.5 -67l-56.5 -18.5l-16.5 54.5l-16.5 54.5l32 12t56.5 33.5t24.5 57.5z" />
    <glyph glyph-name="uni1ECF" unicode="&#x1ecf;" horiz-adv-x="1192" 
d="M596 -32q-226 0 -375 155t-149 388v0q0 237 149.5 389t374.5 152q224 0 374 -153.5t150 -387.5v0q0 -233 -148.5 -388t-375.5 -155zM596 122q150 0 252 109t102 280v0q0 174 -103 280.5t-251 106.5q-150 0 -252.5 -107t-102.5 -280v0q0 -171 101.5 -280t253.5 -109z
M631 1352q0 35 -22.5 55t-66.5 20q-27 0 -52 -6.5t-40 -13.5l-15 -7l-17 54l-17 54l21 9.5t59.5 20t80.5 10.5q91 0 146.5 -51.5t55.5 -136.5q0 -86 -50 -134.5t-106.5 -67l-56.5 -18.5l-16.5 54.5l-16.5 54.5l32 12t56.5 33.5t24.5 57.5z" />
    <glyph glyph-name="uni1ED0" unicode="&#x1ed0;" horiz-adv-x="1648" 
d="M824 -32q-312 0 -523 217t-211 534v0q0 317 212 531t522 214q309 0 521.5 -212.5t212.5 -532.5v0q0 -317 -211 -534t-523 -217zM824 130q240 0 401 167t161 422v0q0 256 -162.5 419.5t-399.5 163.5q-238 0 -400 -164.5t-162 -418.5v0q0 -255 161 -422t401 -167zM500 1552
v0v0l245 260v0v0h156v0v0l247 -260v0v0h-167v0v0l-154 159h-6l-152 -159v0v0h-169zM1080 1767v0v0l115 260v0v0h183v0v0l-153 -260v0v0h-145z" />
    <glyph glyph-name="uni1ED1" unicode="&#x1ed1;" horiz-adv-x="1192" 
d="M596 -32q-226 0 -375 155t-149 388v0q0 237 149.5 389t374.5 152q224 0 374 -153.5t150 -387.5v0q0 -233 -148.5 -388t-375.5 -155zM596 122q150 0 252 109t102 280v0q0 174 -103 280.5t-251 106.5q-150 0 -252.5 -107t-102.5 -280v0q0 -171 101.5 -280t253.5 -109z
M267 1170v0v0l247 280v0v0h162v0v0l247 -280v0v0h-161v0v0l-164 179h-6l-161 -179v0v0h-164zM834 1400v0v0l127 280v0v0h183v0v0l-163 -280v0v0h-147z" />
    <glyph glyph-name="uni1ED2" unicode="&#x1ed2;" horiz-adv-x="1648" 
d="M824 -32q-312 0 -523 217t-211 534v0q0 317 212 531t522 214q309 0 521.5 -212.5t212.5 -532.5v0q0 -317 -211 -534t-523 -217zM824 130q240 0 401 167t161 422v0q0 256 -162.5 419.5t-399.5 163.5q-238 0 -400 -164.5t-162 -418.5v0q0 -255 161 -422t401 -167zM500 1552
v0v0l245 260v0v0h156v0v0l247 -260v0v0h-167v0v0l-154 159h-6l-152 -159v0v0h-169zM1099 1767v0v0l-153 260v0v0h183v0v0l115 -260v0v0h-145z" />
    <glyph glyph-name="uni1ED3" unicode="&#x1ed3;" horiz-adv-x="1192" 
d="M596 -32q-226 0 -375 155t-149 388v0q0 237 149.5 389t374.5 152q224 0 374 -153.5t150 -387.5v0q0 -233 -148.5 -388t-375.5 -155zM596 122q150 0 252 109t102 280v0q0 174 -103 280.5t-251 106.5q-150 0 -252.5 -107t-102.5 -280v0q0 -171 101.5 -280t253.5 -109z
M267 1170v0v0l247 280v0v0h162v0v0l247 -280v0v0h-161v0v0l-164 179h-6l-161 -179v0v0h-164zM860 1400v0v0l-163 280v0v0h183v0v0l127 -280v0v0h-147z" />
    <glyph glyph-name="uni1ED4" unicode="&#x1ed4;" horiz-adv-x="1648" 
d="M824 -32q-312 0 -523 217t-211 534v0q0 317 212 531t522 214q309 0 521.5 -212.5t212.5 -532.5v0q0 -317 -211 -534t-523 -217zM824 130q240 0 401 167t161 422v0q0 256 -162.5 419.5t-399.5 163.5q-238 0 -400 -164.5t-162 -418.5v0q0 -255 161 -422t401 -167zM500 1552
v0v0l245 260v0v0h156v0v0l247 -260v0v0h-167v0v0l-154 159h-6l-152 -159v0v0h-169zM1186 1961q0 30 -21 47.5t-67 17.5q-30 0 -56.5 -5.5t-40 -11l-13.5 -5.5l-16.5 53l-16.5 53l17.5 9t57 19t84.5 10q97 0 150 -48t53 -129q0 -79 -44.5 -125.5t-107.5 -63l-63 -16.5l-15 52
l-15 52l24.5 6.5t57 24.5t32.5 60z" />
    <glyph glyph-name="uni1ED5" unicode="&#x1ed5;" horiz-adv-x="1192" 
d="M596 -32q-226 0 -375 155t-149 388v0q0 237 149.5 389t374.5 152q224 0 374 -153.5t150 -387.5v0q0 -233 -148.5 -388t-375.5 -155zM596 122q150 0 252 109t102 280v0q0 174 -103 280.5t-251 106.5q-150 0 -252.5 -107t-102.5 -280v0q0 -171 101.5 -280t253.5 -109z
M267 1170v0v0l247 280v0v0h162v0v0l247 -280v0v0h-161v0v0l-164 179h-6l-161 -179v0v0h-164zM943 1591q0 35 -22.5 55t-66.5 20q-27 0 -52 -6.5t-40 -13.5l-15 -7l-17 54l-17 54l21 9.5t59.5 20t80.5 10.5q91 0 146.5 -51.5t55.5 -136.5q0 -86 -50 -134.5t-106.5 -67
l-56.5 -18.5l-16.5 54.5l-16.5 54.5l32 12t56.5 33.5t24.5 57.5z" />
    <glyph glyph-name="uni1ED6" unicode="&#x1ed6;" horiz-adv-x="1648" 
d="M824 -32q-312 0 -523 217t-211 534v0q0 317 212 531t522 214q309 0 521.5 -212.5t212.5 -532.5v0q0 -317 -211 -534t-523 -217zM824 130q240 0 401 167t161 422v0q0 256 -162.5 419.5t-399.5 163.5q-238 0 -400 -164.5t-162 -418.5v0q0 -255 161 -422t401 -167zM500 1552
v0v0l245 260v0v0h156v0v0l247 -260v0v0h-167v0v0l-154 159h-6l-152 -159v0v0h-169zM970 1895q-55 0 -92.5 13.5t-68.5 29.5q-35 18 -62 32t-48 14q-18 0 -29 -6t-20 -19.5t-10.5 -33.5l-1.5 -20v0h-142v0l7.5 48.5t29 81.5t62 56.5t98.5 23.5q48 0 84 -14t77 -36
q39 -21 59.5 -30t38.5 -9q17 0 25.5 7.5t17 20.5t10.5 35l2 22v0h145v0l-4 -51.5t-28 -88.5t-61 -56.5t-89 -19.5z" />
    <glyph glyph-name="uni1ED7" unicode="&#x1ed7;" horiz-adv-x="1192" 
d="M596 -32q-226 0 -375 155t-149 388v0q0 237 149.5 389t374.5 152q224 0 374 -153.5t150 -387.5v0q0 -233 -148.5 -388t-375.5 -155zM596 122q150 0 252 109t102 280v0q0 174 -103 280.5t-251 106.5q-150 0 -252.5 -107t-102.5 -280v0q0 -171 101.5 -280t253.5 -109z
M267 1170v0v0l247 280v0v0h162v0v0l247 -280v0v0h-161v0v0l-164 179h-6l-161 -179v0v0h-164zM742 1523q-55 0 -92.5 13.5t-68.5 29.5q-35 18 -62 32t-48 14q-18 0 -29 -6t-20 -19.5t-10.5 -33.5l-1.5 -20v0h-142v0l7.5 48.5t29 81.5t62 56.5t98.5 23.5q48 0 84 -14t77 -36
q39 -21 59.5 -30t38.5 -9q17 0 25.5 7.5t17 20.5t10.5 35l2 22v0h145v0l-4 -51.5t-28 -88.5t-61 -56.5t-89 -19.5z" />
    <glyph glyph-name="uni1ED8" unicode="&#x1ed8;" horiz-adv-x="1648" 
d="M824 -32q-312 0 -523 217t-211 534v0q0 317 212 531t522 214q309 0 521.5 -212.5t212.5 -532.5v0q0 -317 -211 -534t-523 -217zM824 130q240 0 401 167t161 422v0q0 256 -162.5 419.5t-399.5 163.5q-238 0 -400 -164.5t-162 -418.5v0q0 -255 161 -422t401 -167zM825 -377
q-47 0 -81 34t-34 81q0 49 34 81t81 32q49 0 81 -32t32 -81q0 -47 -32 -81t-81 -34zM496 1612v0v0l247 280v0v0h162v0v0l247 -280v0v0h-161v0v0l-164 179h-6l-161 -179v0v0h-164z" />
    <glyph glyph-name="uni1ED9" unicode="&#x1ed9;" horiz-adv-x="1192" 
d="M596 -32q-226 0 -375 155t-149 388v0q0 237 149.5 389t374.5 152q224 0 374 -153.5t150 -387.5v0q0 -233 -148.5 -388t-375.5 -155zM596 122q150 0 252 109t102 280v0q0 174 -103 280.5t-251 106.5q-150 0 -252.5 -107t-102.5 -280v0q0 -171 101.5 -280t253.5 -109z
M597 -377q-47 0 -81 34t-34 81q0 49 34 81t81 32q49 0 81 -32t32 -81q0 -47 -32 -81t-81 -34zM268 1200v0v0l247 280v0v0h162v0v0l247 -280v0v0h-161v0v0l-164 179h-6l-161 -179v0v0h-164z" />
    <glyph glyph-name="uni1EDA" unicode="&#x1eda;" horiz-adv-x="1648" 
d="M824 -32q-312 0 -523 217t-211 534v0q0 317 212 531t522 214q309 0 521.5 -212.5t212.5 -532.5v0q0 -317 -211 -534t-523 -217zM824 130q240 0 401 167t161 422v0q0 256 -162.5 419.5t-399.5 163.5q-238 0 -400 -164.5t-162 -418.5v0q0 -255 161 -422t401 -167z
M1261 1258q-93 80 -197 116t-240 36v54q63 0 115 -2t152 -17q123 -19 152 -19.5t91 -0.5q63 0 81.5 21t18.5 59v136v0v0h144v0v0v-136q0 -104 -47 -156t-153 -52q-22 0 -43 2.5t-44 7.5zM741 1612v0v0l127 280v0v0h183v0v0l-163 -280v0v0h-147z" />
    <glyph glyph-name="uni1EDB" unicode="&#x1edb;" horiz-adv-x="1192" 
d="M596 -32q-226 0 -375 155t-149 388v0q0 237 149.5 389t374.5 152q224 0 374 -153.5t150 -387.5v0q0 -233 -148.5 -388t-375.5 -155zM596 122q150 0 252 109t102 280v0q0 174 -103 280.5t-251 106.5q-150 0 -252.5 -107t-102.5 -280v0q0 -171 101.5 -280t253.5 -109z
M944 887q-66 65 -154.5 100.5t-193.5 40.5v24q29 0 66 -4t82 -11q48 -7 80 -13t68 -6q71 0 94 22t23 60v135v0v0h135v0v0v-135q0 -91 -37.5 -139t-108.5 -48q-11 0 -21.5 1.5t-17.5 3.5zM513 1200v0v0l127 280v0v0h183v0v0l-163 -280v0v0h-147z" />
    <glyph glyph-name="uni1EDC" unicode="&#x1edc;" horiz-adv-x="1648" 
d="M824 -32q-312 0 -523 217t-211 534v0q0 317 212 531t522 214q309 0 521.5 -212.5t212.5 -532.5v0q0 -317 -211 -534t-523 -217zM824 130q240 0 401 167t161 422v0q0 256 -162.5 419.5t-399.5 163.5q-238 0 -400 -164.5t-162 -418.5v0q0 -255 161 -422t401 -167z
M1261 1258q-93 80 -197 116t-240 36v54q63 0 115 -2t152 -17q123 -19 152 -19.5t91 -0.5q63 0 81.5 21t18.5 59v136v0v0h144v0v0v-136q0 -104 -47 -156t-153 -52q-22 0 -43 2.5t-44 7.5zM760 1612v0v0l-163 280v0v0h183v0v0l127 -280v0v0h-147z" />
    <glyph glyph-name="uni1EDD" unicode="&#x1edd;" horiz-adv-x="1192" 
d="M596 -32q-226 0 -375 155t-149 388v0q0 237 149.5 389t374.5 152q224 0 374 -153.5t150 -387.5v0q0 -233 -148.5 -388t-375.5 -155zM596 122q150 0 252 109t102 280v0q0 174 -103 280.5t-251 106.5q-150 0 -252.5 -107t-102.5 -280v0q0 -171 101.5 -280t253.5 -109z
M944 887q-66 65 -154.5 100.5t-193.5 40.5v24q29 0 66 -4t82 -11q48 -7 80 -13t68 -6q71 0 94 22t23 60v135v0v0h135v0v0v-135q0 -91 -37.5 -139t-108.5 -48q-11 0 -21.5 1.5t-17.5 3.5zM532 1200v0v0l-163 280v0v0h183v0v0l127 -280v0v0h-147z" />
    <glyph glyph-name="uni1EDE" unicode="&#x1ede;" horiz-adv-x="1648" 
d="M824 -32q-312 0 -523 217t-211 534v0q0 317 212 531t522 214q309 0 521.5 -212.5t212.5 -532.5v0q0 -317 -211 -534t-523 -217zM824 130q240 0 401 167t161 422v0q0 256 -162.5 419.5t-399.5 163.5q-238 0 -400 -164.5t-162 -418.5v0q0 -255 161 -422t401 -167z
M1261 1258q-93 80 -197 116t-240 36v54q63 0 115 -2t152 -17q123 -19 152 -19.5t91 -0.5q63 0 81.5 21t18.5 59v136v0v0h144v0v0v-136q0 -104 -47 -156t-153 -52q-22 0 -43 2.5t-44 7.5zM859 1764q0 35 -22.5 55t-66.5 20q-27 0 -52 -6.5t-40 -13.5l-15 -7l-17 54l-17 54
l21 9.5t59.5 20t80.5 10.5q91 0 146.5 -51.5t55.5 -136.5q0 -86 -50 -134.5t-106.5 -67l-56.5 -18.5l-16.5 54.5l-16.5 54.5l32 12t56.5 33.5t24.5 57.5z" />
    <glyph glyph-name="uni1EDF" unicode="&#x1edf;" horiz-adv-x="1192" 
d="M596 -32q-226 0 -375 155t-149 388v0q0 237 149.5 389t374.5 152q224 0 374 -153.5t150 -387.5v0q0 -233 -148.5 -388t-375.5 -155zM596 122q150 0 252 109t102 280v0q0 174 -103 280.5t-251 106.5q-150 0 -252.5 -107t-102.5 -280v0q0 -171 101.5 -280t253.5 -109z
M944 887q-66 65 -154.5 100.5t-193.5 40.5v24q29 0 66 -4t82 -11q48 -7 80 -13t68 -6q71 0 94 22t23 60v135v0v0h135v0v0v-135q0 -91 -37.5 -139t-108.5 -48q-11 0 -21.5 1.5t-17.5 3.5zM631 1352q0 35 -22.5 55t-66.5 20q-27 0 -52 -6.5t-40 -13.5l-15 -7l-17 54l-17 54
l21 9.5t59.5 20t80.5 10.5q91 0 146.5 -51.5t55.5 -136.5q0 -86 -50 -134.5t-106.5 -67l-56.5 -18.5l-16.5 54.5l-16.5 54.5l32 12t56.5 33.5t24.5 57.5z" />
    <glyph glyph-name="uni1EE0" unicode="&#x1ee0;" horiz-adv-x="1648" 
d="M824 -32q-312 0 -523 217t-211 534v0q0 317 212 531t522 214q309 0 521.5 -212.5t212.5 -532.5v0q0 -317 -211 -534t-523 -217zM824 130q240 0 401 167t161 422v0q0 256 -162.5 419.5t-399.5 163.5q-238 0 -400 -164.5t-162 -418.5v0q0 -255 161 -422t401 -167z
M1261 1258q-93 80 -197 116t-240 36v54q63 0 115 -2t152 -17q123 -19 152 -19.5t91 -0.5q63 0 81.5 21t18.5 59v136v0v0h144v0v0v-136q0 -104 -47 -156t-153 -52q-22 0 -43 2.5t-44 7.5zM958 1607q-50 0 -93.5 22.5t-78.5 47.5q-27 19 -51.5 35.5t-48.5 16.5
q-16 0 -29.5 -8.5t-22.5 -24t-12.5 -42l-3.5 -26.5v0h-126v0l5.5 55t30 94t68 62.5t96.5 23.5q54 0 95 -23t77 -49q26 -20 51 -35t47 -15q19 0 32.5 8t21.5 23t10 42.5l2 27.5v0h128v0l-4 -53.5t-30 -94.5t-70.5 -64t-93.5 -23z" />
    <glyph glyph-name="uni1EE1" unicode="&#x1ee1;" horiz-adv-x="1192" 
d="M596 -32q-226 0 -375 155t-149 388v0q0 237 149.5 389t374.5 152q224 0 374 -153.5t150 -387.5v0q0 -233 -148.5 -388t-375.5 -155zM596 122q150 0 252 109t102 280v0q0 174 -103 280.5t-251 106.5q-150 0 -252.5 -107t-102.5 -280v0q0 -171 101.5 -280t253.5 -109z
M944 887q-66 65 -154.5 100.5t-193.5 40.5v24q29 0 66 -4t82 -11q48 -7 80 -13t68 -6q71 0 94 22t23 60v135v0v0h135v0v0v-135q0 -91 -37.5 -139t-108.5 -48q-11 0 -21.5 1.5t-17.5 3.5zM730 1195q-50 0 -93.5 22.5t-78.5 47.5q-27 19 -51.5 35.5t-48.5 16.5
q-16 0 -29.5 -8.5t-22.5 -24t-12.5 -42l-3.5 -26.5v0h-126v0l5.5 55t30 94t68 62.5t96.5 23.5q54 0 95 -23t77 -49q26 -20 51 -35t47 -15q19 0 32.5 8t21.5 23t10 42.5l2 27.5v0h128v0l-4 -53.5t-30 -94.5t-70.5 -64t-93.5 -23z" />
    <glyph glyph-name="uni1EE2" unicode="&#x1ee2;" horiz-adv-x="1648" 
d="M824 -32q-312 0 -523 217t-211 534v0q0 317 212 531t522 214q309 0 521.5 -212.5t212.5 -532.5v0q0 -317 -211 -534t-523 -217zM824 130q240 0 401 167t161 422v0q0 256 -162.5 419.5t-399.5 163.5q-238 0 -400 -164.5t-162 -418.5v0q0 -255 161 -422t401 -167z
M1261 1258q-93 80 -197 116t-240 36v54q63 0 115 -2t152 -17q123 -19 152 -19.5t91 -0.5q63 0 81.5 21t18.5 59v136v0v0h144v0v0v-136q0 -104 -47 -156t-153 -52q-22 0 -43 2.5t-44 7.5zM825 -377q-47 0 -81 34t-34 81q0 49 34 81t81 32q49 0 81 -32t32 -81q0 -47 -32 -81
t-81 -34z" />
    <glyph glyph-name="uni1EE3" unicode="&#x1ee3;" horiz-adv-x="1192" 
d="M596 -32q-226 0 -375 155t-149 388v0q0 237 149.5 389t374.5 152q224 0 374 -153.5t150 -387.5v0q0 -233 -148.5 -388t-375.5 -155zM596 122q150 0 252 109t102 280v0q0 174 -103 280.5t-251 106.5q-150 0 -252.5 -107t-102.5 -280v0q0 -171 101.5 -280t253.5 -109z
M944 887q-66 65 -154.5 100.5t-193.5 40.5v24q29 0 66 -4t82 -11q48 -7 80 -13t68 -6q71 0 94 22t23 60v135v0v0h135v0v0v-135q0 -91 -37.5 -139t-108.5 -48q-11 0 -21.5 1.5t-17.5 3.5zM597 -377q-47 0 -81 34t-34 81q0 49 34 81t81 32q49 0 81 -32t32 -81q0 -47 -32 -81
t-81 -34z" />
    <glyph glyph-name="uni1EE4" unicode="&#x1ee4;" horiz-adv-x="1306" 
d="M652 -32q-234 0 -380 156t-146 406v902v0v0h170v0v0v-910q0 -180 95 -286t261 -106t262 106t96 286v910v0v0h170v0v0v-902q0 -256 -143 -409t-385 -153zM653 -377q-47 0 -81 34t-34 81q0 49 34 81t81 32q49 0 81 -32t32 -81q0 -47 -32 -81t-81 -34z" />
    <glyph glyph-name="uni1EE5" unicode="&#x1ee5;" horiz-adv-x="1122" 
d="M496 -32q-182 0 -280 107t-98 303v642v0v0h170v0v0v-616q0 -138 63 -210t181 -72q124 0 209 95t85 227v576v0v0h170v0v0v-1020v0v0h-162v0v0v225l77 -77h-83q-44 -78 -137 -129t-195 -51zM559 -377q-47 0 -81 34t-34 81q0 49 34 81t81 32q49 0 81 -32t32 -81
q0 -47 -32 -81t-81 -34z" />
    <glyph glyph-name="uni1EE6" unicode="&#x1ee6;" horiz-adv-x="1306" 
d="M652 -32q-234 0 -380 156t-146 406v902v0v0h170v0v0v-910q0 -180 95 -286t261 -106t262 106t96 286v910v0v0h170v0v0v-902q0 -256 -143 -409t-385 -153zM687 1764q0 35 -22.5 55t-66.5 20q-27 0 -52 -6.5t-40 -13.5l-15 -7l-17 54l-17 54l21 9.5t59.5 20t80.5 10.5
q91 0 146.5 -51.5t55.5 -136.5q0 -86 -50 -134.5t-106.5 -67l-56.5 -18.5l-16.5 54.5l-16.5 54.5l32 12t56.5 33.5t24.5 57.5z" />
    <glyph glyph-name="uni1EE7" unicode="&#x1ee7;" horiz-adv-x="1122" 
d="M496 -32q-182 0 -280 107t-98 303v642v0v0h170v0v0v-616q0 -138 63 -210t181 -72q124 0 209 95t85 227v576v0v0h170v0v0v-1020v0v0h-162v0v0v225l77 -77h-83q-44 -78 -137 -129t-195 -51zM595 1352q0 35 -22.5 55t-66.5 20q-27 0 -52 -6.5t-40 -13.5l-15 -7l-17 54
l-17 54l21 9.5t59.5 20t80.5 10.5q91 0 146.5 -51.5t55.5 -136.5q0 -86 -50 -134.5t-106.5 -67l-56.5 -18.5l-16.5 54.5l-16.5 54.5l32 12t56.5 33.5t24.5 57.5z" />
    <glyph glyph-name="uni1EE8" unicode="&#x1ee8;" horiz-adv-x="1306" 
d="M652 -32q-234 0 -380 156t-146 406v902v0v0h170v0v0v-910q0 -180 95 -286t261 -106t262 106t96 286v910v0v0h170v0v0v-902q0 -256 -143 -409t-385 -153zM1095 1303v129h73q40 0 56.5 20.5t16.5 58.5v130v0v0h135v0v0v-130q0 -103 -51.5 -155.5t-156.5 -52.5h-73z
M569 1612v0v0l127 280v0v0h183v0v0l-163 -280v0v0h-147z" />
    <glyph glyph-name="uni1EE9" unicode="&#x1ee9;" horiz-adv-x="1202" 
d="M496 -32q-182 0 -280 107t-98 303v642v0v0h170v0v0v-616q0 -138 63 -210t181 -72q124 0 209 95t85 227v576v0v0h170v0v0v-1020v0v0h-162v0v0v225l77 -77h-83q-44 -78 -137 -129t-195 -51zM911 891v129h73q40 0 56.5 20.5t16.5 58.5v130v0v0h135v0v0v-130
q0 -103 -51.5 -155.5t-156.5 -52.5h-73zM477 1200v0v0l127 280v0v0h183v0v0l-163 -280v0v0h-147z" />
    <glyph glyph-name="uni1EEA" unicode="&#x1eea;" horiz-adv-x="1306" 
d="M652 -32q-234 0 -380 156t-146 406v902v0v0h170v0v0v-910q0 -180 95 -286t261 -106t262 106t96 286v910v0v0h170v0v0v-902q0 -256 -143 -409t-385 -153zM1095 1303v129h73q40 0 56.5 20.5t16.5 58.5v130v0v0h135v0v0v-130q0 -103 -51.5 -155.5t-156.5 -52.5h-73z
M588 1612v0v0l-163 280v0v0h183v0v0l127 -280v0v0h-147z" />
    <glyph glyph-name="uni1EEB" unicode="&#x1eeb;" horiz-adv-x="1202" 
d="M496 -32q-182 0 -280 107t-98 303v642v0v0h170v0v0v-616q0 -138 63 -210t181 -72q124 0 209 95t85 227v576v0v0h170v0v0v-1020v0v0h-162v0v0v225l77 -77h-83q-44 -78 -137 -129t-195 -51zM911 891v129h73q40 0 56.5 20.5t16.5 58.5v130v0v0h135v0v0v-130
q0 -103 -51.5 -155.5t-156.5 -52.5h-73zM496 1200v0v0l-163 280v0v0h183v0v0l127 -280v0v0h-147z" />
    <glyph glyph-name="uni1EEC" unicode="&#x1eec;" horiz-adv-x="1306" 
d="M652 -32q-234 0 -380 156t-146 406v902v0v0h170v0v0v-910q0 -180 95 -286t261 -106t262 106t96 286v910v0v0h170v0v0v-902q0 -256 -143 -409t-385 -153zM1095 1303v129h73q40 0 56.5 20.5t16.5 58.5v130v0v0h135v0v0v-130q0 -103 -51.5 -155.5t-156.5 -52.5h-73z
M687 1764q0 35 -22.5 55t-66.5 20q-27 0 -52 -6.5t-40 -13.5l-15 -7l-17 54l-17 54l21 9.5t59.5 20t80.5 10.5q91 0 146.5 -51.5t55.5 -136.5q0 -86 -50 -134.5t-106.5 -67l-56.5 -18.5l-16.5 54.5l-16.5 54.5l32 12t56.5 33.5t24.5 57.5z" />
    <glyph glyph-name="uni1EED" unicode="&#x1eed;" horiz-adv-x="1202" 
d="M496 -32q-182 0 -280 107t-98 303v642v0v0h170v0v0v-616q0 -138 63 -210t181 -72q124 0 209 95t85 227v576v0v0h170v0v0v-1020v0v0h-162v0v0v225l77 -77h-83q-44 -78 -137 -129t-195 -51zM911 891v129h73q40 0 56.5 20.5t16.5 58.5v130v0v0h135v0v0v-130
q0 -103 -51.5 -155.5t-156.5 -52.5h-73zM595 1352q0 35 -22.5 55t-66.5 20q-27 0 -52 -6.5t-40 -13.5l-15 -7l-17 54l-17 54l21 9.5t59.5 20t80.5 10.5q91 0 146.5 -51.5t55.5 -136.5q0 -86 -50 -134.5t-106.5 -67l-56.5 -18.5l-16.5 54.5l-16.5 54.5l32 12t56.5 33.5
t24.5 57.5z" />
    <glyph glyph-name="uni1EEE" unicode="&#x1eee;" horiz-adv-x="1306" 
d="M652 -32q-234 0 -380 156t-146 406v902v0v0h170v0v0v-910q0 -180 95 -286t261 -106t262 106t96 286v910v0v0h170v0v0v-902q0 -256 -143 -409t-385 -153zM1095 1303v129h73q40 0 56.5 20.5t16.5 58.5v130v0v0h135v0v0v-130q0 -103 -51.5 -155.5t-156.5 -52.5h-73z
M786 1607q-50 0 -93.5 22.5t-78.5 47.5q-27 19 -51.5 35.5t-48.5 16.5q-16 0 -29.5 -8.5t-22.5 -24t-12.5 -42l-3.5 -26.5v0h-126v0l5.5 55t30 94t68 62.5t96.5 23.5q54 0 95 -23t77 -49q26 -20 51 -35t47 -15q19 0 32.5 8t21.5 23t10 42.5l2 27.5v0h128v0l-4 -53.5
t-30 -94.5t-70.5 -64t-93.5 -23z" />
    <glyph glyph-name="uni1EEF" unicode="&#x1eef;" horiz-adv-x="1202" 
d="M496 -32q-182 0 -280 107t-98 303v642v0v0h170v0v0v-616q0 -138 63 -210t181 -72q124 0 209 95t85 227v576v0v0h170v0v0v-1020v0v0h-162v0v0v225l77 -77h-83q-44 -78 -137 -129t-195 -51zM911 891v129h73q40 0 56.5 20.5t16.5 58.5v130v0v0h135v0v0v-130
q0 -103 -51.5 -155.5t-156.5 -52.5h-73zM694 1195q-50 0 -93.5 22.5t-78.5 47.5q-27 19 -51.5 35.5t-48.5 16.5q-16 0 -29.5 -8.5t-22.5 -24t-12.5 -42l-3.5 -26.5v0h-126v0l5.5 55t30 94t68 62.5t96.5 23.5q54 0 95 -23t77 -49q26 -20 51 -35t47 -15q19 0 32.5 8t21.5 23
t10 42.5l2 27.5v0h128v0l-4 -53.5t-30 -94.5t-70.5 -64t-93.5 -23z" />
    <glyph glyph-name="uni1EF0" unicode="&#x1ef0;" horiz-adv-x="1306" 
d="M652 -32q-234 0 -380 156t-146 406v902v0v0h170v0v0v-910q0 -180 95 -286t261 -106t262 106t96 286v910v0v0h170v0v0v-902q0 -256 -143 -409t-385 -153zM1095 1303v129h73q40 0 56.5 20.5t16.5 58.5v130v0v0h135v0v0v-130q0 -103 -51.5 -155.5t-156.5 -52.5h-73z
M653 -377q-47 0 -81 34t-34 81q0 49 34 81t81 32q49 0 81 -32t32 -81q0 -47 -32 -81t-81 -34z" />
    <glyph glyph-name="uni1EF1" unicode="&#x1ef1;" horiz-adv-x="1202" 
d="M496 -32q-182 0 -280 107t-98 303v642v0v0h170v0v0v-616q0 -138 63 -210t181 -72q124 0 209 95t85 227v576v0v0h170v0v0v-1020v0v0h-162v0v0v225l77 -77h-83q-44 -78 -137 -129t-195 -51zM911 891v129h73q40 0 56.5 20.5t16.5 58.5v130v0v0h135v0v0v-130
q0 -103 -51.5 -155.5t-156.5 -52.5h-73zM559 -377q-47 0 -81 34t-34 81q0 49 34 81t81 32q49 0 81 -32t32 -81q0 -47 -32 -81t-81 -34z" />
    <glyph glyph-name="Ygrave" unicode="&#x1ef2;" horiz-adv-x="1190" 
d="M519 656l-491 776v0v0h201v0v0l324 -531l42 -69h6l41 68l321 532v0v0h198v0v0l-481 -775zM514 0v0v0v742h170v-742v0v0h-170zM530 1612v0v0l-163 280v0v0h183v0v0l127 -280v0v0h-147z" />
    <glyph glyph-name="ygrave" unicode="&#x1ef3;" horiz-adv-x="1026" 
d="M207 -432v0v0l257 560l6 -128l-457 1020v0v0h184v0v0l296 -688l25 -70h6l27 72l278 686v0v0h183v0v0l-628 -1452v0v0h-177zM454 1200v0v0l-163 280v0v0h183v0v0l127 -280v0v0h-147z" />
    <glyph glyph-name="uni1EF4" unicode="&#x1ef4;" horiz-adv-x="1190" 
d="M519 656l-491 776v0v0h201v0v0l324 -531l42 -69h6l41 68l321 532v0v0h198v0v0l-481 -775zM514 0v0v0v742h170v-742v0v0h-170zM600 -377q-47 0 -81 34t-34 81q0 49 34 81t81 32q49 0 81 -32t32 -81q0 -47 -32 -81t-81 -34z" />
    <glyph glyph-name="uni1EF5" unicode="&#x1ef5;" horiz-adv-x="1026" 
d="M207 -432v0v0l257 560l6 -128l-457 1020v0v0h184v0v0l296 -688l25 -70h6l27 72l278 686v0v0h183v0v0l-628 -1452v0v0h-177zM694 -377q-47 0 -81 34t-34 81q0 49 34 81t81 32q49 0 81 -32t32 -81q0 -47 -32 -81t-81 -34z" />
    <glyph glyph-name="uni1EF6" unicode="&#x1ef6;" horiz-adv-x="1190" 
d="M519 656l-491 776v0v0h201v0v0l324 -531l42 -69h6l41 68l321 532v0v0h198v0v0l-481 -775zM514 0v0v0v742h170v-742v0v0h-170zM629 1764q0 35 -22.5 55t-66.5 20q-27 0 -52 -6.5t-40 -13.5l-15 -7l-17 54l-17 54l21 9.5t59.5 20t80.5 10.5q91 0 146.5 -51.5t55.5 -136.5
q0 -86 -50 -134.5t-106.5 -67l-56.5 -18.5l-16.5 54.5l-16.5 54.5l32 12t56.5 33.5t24.5 57.5z" />
    <glyph glyph-name="uni1EF7" unicode="&#x1ef7;" horiz-adv-x="1026" 
d="M207 -432v0v0l257 560l6 -128l-457 1020v0v0h184v0v0l296 -688l25 -70h6l27 72l278 686v0v0h183v0v0l-628 -1452v0v0h-177zM553 1352q0 35 -22.5 55t-66.5 20q-27 0 -52 -6.5t-40 -13.5l-15 -7l-17 54l-17 54l21 9.5t59.5 20t80.5 10.5q91 0 146.5 -51.5t55.5 -136.5
q0 -86 -50 -134.5t-106.5 -67l-56.5 -18.5l-16.5 54.5l-16.5 54.5l32 12t56.5 33.5t24.5 57.5z" />
    <glyph glyph-name="uni1EF8" unicode="&#x1ef8;" horiz-adv-x="1190" 
d="M519 656l-491 776v0v0h201v0v0l324 -531l42 -69h6l41 68l321 532v0v0h198v0v0l-481 -775zM514 0v0v0v742h170v-742v0v0h-170zM728 1607q-50 0 -93.5 22.5t-78.5 47.5q-27 19 -51.5 35.5t-48.5 16.5q-16 0 -29.5 -8.5t-22.5 -24t-12.5 -42l-3.5 -26.5v0h-126v0l5.5 55
t30 94t68 62.5t96.5 23.5q54 0 95 -23t77 -49q26 -20 51 -35t47 -15q19 0 32.5 8t21.5 23t10 42.5l2 27.5v0h128v0l-4 -53.5t-30 -94.5t-70.5 -64t-93.5 -23z" />
    <glyph glyph-name="uni1EF9" unicode="&#x1ef9;" horiz-adv-x="1026" 
d="M207 -432v0v0l257 560l6 -128l-457 1020v0v0h184v0v0l296 -688l25 -70h6l27 72l278 686v0v0h183v0v0l-628 -1452v0v0h-177zM652 1195q-50 0 -93.5 22.5t-78.5 47.5q-27 19 -51.5 35.5t-48.5 16.5q-16 0 -29.5 -8.5t-22.5 -24t-12.5 -42l-3.5 -26.5v0h-126v0l5.5 55t30 94
t68 62.5t96.5 23.5q54 0 95 -23t77 -49q26 -20 51 -35t47 -15q19 0 32.5 8t21.5 23t10 42.5l2 27.5v0h128v0l-4 -53.5t-30 -94.5t-70.5 -64t-93.5 -23z" />
    <glyph glyph-name="uni2002" unicode="&#x2002;" horiz-adv-x="1000" 
 />
    <glyph glyph-name="uni2003" unicode="&#x2003;" horiz-adv-x="2000" 
 />
    <glyph glyph-name="uni2004" unicode="&#x2004;" horiz-adv-x="666" 
 />
    <glyph glyph-name="uni2005" unicode="&#x2005;" horiz-adv-x="500" 
 />
    <glyph glyph-name="uni2006" unicode="&#x2006;" horiz-adv-x="333" 
 />
    <glyph glyph-name="uni2009" unicode="&#x2009;" horiz-adv-x="125" 
 />
    <glyph glyph-name="uni200A" unicode="&#x200a;" horiz-adv-x="111" 
 />
    <glyph glyph-name="uni200B" unicode="&#x200b;" 
 />
    <glyph glyph-name="endash" unicode="&#x2013;" horiz-adv-x="1125" 
d="M100 550v0v0v140v0v0h925v0v0v-140v0v0h-925z" />
    <glyph glyph-name="emdash" unicode="&#x2014;" horiz-adv-x="1800" 
d="M100 550v0v0v140v0v0h1600v0v0v-140v0v0h-1600z" />
    <glyph glyph-name="quoteleft" unicode="&#x2018;" horiz-adv-x="476" 
d="M386 1406l-114 -162q40 -8 67 -40t27 -76q0 -52 -37 -89t-91 -37t-91 37t-37 89q0 28 12 58t44 78l133 200v0z" />
    <glyph glyph-name="quoteright" unicode="&#x2019;" horiz-adv-x="476" 
d="M90 1060l114 162q-40 8 -67 40t-27 76q0 52 37 89t91 37t91 -37t37 -89q0 -28 -12 -58t-44 -78l-133 -200v0z" />
    <glyph glyph-name="quotesinglbase" unicode="&#x201a;" horiz-adv-x="476" 
d="M90 -162l114 162q-40 8 -67 40t-27 76q0 52 37 89t91 37t91 -37t37 -89q0 -28 -12 -58t-44 -78l-133 -200v0z" />
    <glyph glyph-name="quotedblleft" unicode="&#x201c;" horiz-adv-x="792" 
d="M702 1406l-114 -162q40 -8 67 -40t27 -76q0 -52 -37 -89t-91 -37t-91 37t-37 89q0 28 12 58t44 78l133 200v0zM386 1406l-114 -162q40 -8 67 -40t27 -76q0 -52 -37 -89t-91 -37t-91 37t-37 89q0 28 12 58t44 78l133 200v0z" />
    <glyph glyph-name="quotedblright" unicode="&#x201d;" horiz-adv-x="792" 
d="M90 1060l114 162q-40 8 -67 40t-27 76q0 52 37 89t91 37t91 -37t37 -89q0 -28 -12 -58t-44 -78l-133 -200v0zM406 1060l114 162q-40 8 -67 40t-27 76q0 52 37 89t91 37t91 -37t37 -89q0 -28 -12 -58t-44 -78l-133 -200v0z" />
    <glyph glyph-name="quotedblbase" unicode="&#x201e;" horiz-adv-x="792" 
d="M90 -162l114 162q-40 8 -67 40t-27 76q0 52 37 89t91 37t91 -37t37 -89q0 -28 -12 -58t-44 -78l-133 -200v0zM406 -162l114 162q-40 8 -67 40t-27 76q0 52 37 89t91 37t91 -37t37 -89q0 -28 -12 -58t-44 -78l-133 -200v0z" />
    <glyph glyph-name="bullet" unicode="&#x2022;" horiz-adv-x="762" 
d="M381 431q-91 0 -154.5 63.5t-63.5 154.5q0 90 63.5 153t154.5 63t154.5 -63t63.5 -153q0 -91 -63.5 -154.5t-154.5 -63.5z" />
    <glyph glyph-name="horizontalelipsis" unicode="&#x2026;" horiz-adv-x="1428" 
d="M238 -12q-54 0 -91 37t-37 91q0 52 37 89t91 37t91 -37t37 -89q0 -54 -37 -91t-91 -37zM714 -12q-54 0 -91 37t-37 91q0 52 37 89t91 37t91 -37t37 -89q0 -54 -37 -91t-91 -37zM1190 -12q-54 0 -91 37t-37 91q0 52 37 89t91 37t91 -37t37 -89q0 -54 -37 -91t-91 -37z" />
    <glyph glyph-name="uni202F" unicode="&#x202f;" horiz-adv-x="225" 
 />
    <glyph glyph-name="guilsinglleft" unicode="&#x2039;" horiz-adv-x="700" 
d="M580 851v0v0l-322 -342l321 -341v0v0l-99 -92v0v0l-377 408v0v0v50v0v0l378 409v0v0z" />
    <glyph glyph-name="guilsinglright" unicode="&#x203a;" horiz-adv-x="700" 
d="M120 168v0v0l322 342l-321 341v0v0l99 92v0v0l377 -408v0v0v-50v0v0l-378 -409v0v0z" />
    <glyph glyph-name="fraction" unicode="&#x2044;" horiz-adv-x="390" 
d="M-346 39v0v0l962 1436v0v0l120 -82v0v0l-961 -1434v0v0z" />
    <glyph glyph-name="zerosuperscript" unicode="&#x2070;" horiz-adv-x="859" 
d="M428 935q-158 0 -255.5 122.5t-97.5 326.5v0q0 204 99 326t256 122t255.5 -121.5t98.5 -325.5v0q0 -205 -100 -327.5t-256 -122.5zM430 1070q92 0 147 86.5t55 232.5v0q0 141 -55 224.5t-148 83.5q-92 0 -147 -83.5t-55 -224.5v0q0 -146 55 -232.5t148 -86.5z" />
    <glyph glyph-name="uni2074" unicode="&#x2074;" horiz-adv-x="707" 
d="M422 954v0v0v237v33v525l56 -157h-60l-221 -323h287h35h158v0v0v-126v0v0h-657v0v0v108v0v0l397 562v0v0h153v0v0v-859v0v0h-148z" />
    <glyph glyph-name="fivesuperscript" unicode="&#x2075;" horiz-adv-x="754" 
d="M382 935q-73 0 -129 24t-98.5 67.5t-61 88l-18.5 44.5v0l134 55v0l14 -35t36.5 -59t55 -37t67.5 -13q68 0 111.5 41.5t43.5 110.5v0q0 69 -46.5 110.5t-113.5 41.5q-40 0 -62.5 -7.5t-80.5 -47.5v0v0l-131 52h0.5t-0.5 0l62 442v0v0h465v0v0v-136v0v0h-351l-31 -223l6 -1
q23 22 66.5 37.5t83.5 15.5q125 0 205 -78.5t80 -205.5v0q0 -128 -86 -207.5t-221 -79.5z" />
    <glyph glyph-name="sixsuperscript" unicode="&#x2076;" horiz-adv-x="758" 
d="M390 935q-136 0 -223 82t-87 207v0q0 94 51.5 178t117.5 173l191 257v0v0l111 -81v0v0l-141 -177q-20 -25 -45.5 -53t-50.5 -44l4 -6q21 13 51 20t64 7q114 0 189.5 -78.5t75.5 -197.5v0q0 -120 -88.5 -203.5t-219.5 -83.5zM389 1068q69 0 113.5 42.5t44.5 107.5v0
q0 64 -44 109t-113 45q-71 0 -116 -45t-45 -109v0q0 -65 44.5 -107.5t115.5 -42.5z" />
    <glyph glyph-name="sevensuperscript" unicode="&#x2077;" horiz-adv-x="644" 
d="M64 1002v0v0l382 660l-2 6h-399v0v0v145v0v0h579v0v0v-115v0v0l-426 -763v0v0z" />
    <glyph glyph-name="eightsuperscript" unicode="&#x2078;" horiz-adv-x="764" 
d="M381 935q-142 0 -226.5 74t-84.5 178v0q0 82 43 136.5t116 82.5v6q-58 22 -93 72t-35 115v0q0 101 78.5 167t200.5 66q124 0 203 -66t79 -167v0q0 -68 -35 -118t-94 -69v-6q73 -28 117 -82.5t44 -136.5v0q0 -104 -85 -178t-228 -74zM381 1068q71 0 116 38t45 98v0
q0 60 -45 98.5t-116 38.5q-70 0 -114.5 -38.5t-44.5 -98.5v0q0 -60 44.5 -98t114.5 -38zM382 1470q59 0 96.5 31.5t37.5 81.5v0q0 51 -38 83.5t-97 32.5t-96.5 -32.5t-37.5 -83.5v0q0 -50 38 -81.5t97 -31.5z" />
    <glyph glyph-name="ninesuperscript" unicode="&#x2079;" horiz-adv-x="758" 
d="M368 1832q136 0 223 -82t87 -207v0q0 -94 -51.5 -178t-117.5 -173l-191 -257v0v0l-111 81v0v0l141 177q20 25 45.5 53t50.5 44l-4 6q-21 -13 -51 -20t-64 -7q-114 0 -189.5 78.5t-75.5 197.5v0q0 120 88.5 203.5t219.5 83.5zM369 1699q-69 0 -113.5 -42.5t-44.5 -107.5v0
q0 -64 44 -109t113 -45q71 0 116 45t45 109v0q0 65 -44.5 107.5t-115.5 42.5z" />
    <glyph glyph-name="uni207B" unicode="&#x207b;" horiz-adv-x="777" 
d="M103 1259v0v0v136v0v0h571v0v0v-136v0v0h-571z" />
    <glyph glyph-name="zerosubscript" unicode="&#x2080;" horiz-adv-x="859" 
d="M428 -428q-158 0 -255.5 122.5t-97.5 326.5v0q0 204 99 326t256 122t255.5 -121.5t98.5 -325.5v0q0 -205 -100 -327.5t-256 -122.5zM430 -293q92 0 147 86.5t55 232.5v0q0 141 -55 224.5t-148 83.5q-92 0 -147 -83.5t-55 -224.5v0q0 -146 55 -232.5t148 -86.5z" />
    <glyph glyph-name="onesubscript" unicode="&#x2081;" horiz-adv-x="501" 
d="M231 -409v0v0v646l-106 -78v0v0l-85 117v0v0l235 174v0v0h106v0v0v-859v0v0h-150z" />
    <glyph glyph-name="twosubscript" unicode="&#x2082;" horiz-adv-x="684" 
d="M62 -409v0v0v117v0v0l301 314q53 55 77 100.5t24 91.5v0q0 51 -35.5 85.5t-90.5 34.5q-29 0 -53.5 -11.5t-43 -31.5t-29.5 -41l-11 -21v0l-141 52v0l17.5 37t54.5 73.5t91 57t122 20.5q125 0 198 -69.5t73 -175.5v0q0 -74 -31 -140.5t-104 -140.5l-205 -208l2 -6h346v0v0
v-138v0v0h-562z" />
    <glyph glyph-name="threesubscript" unicode="&#x2083;" horiz-adv-x="719" 
d="M353 -429q-70 0 -123 22.5t-94 65.5t-58.5 84l-17.5 41v0l134 61v0l11.5 -29.5t31.5 -56t48 -40t68 -13.5q63 0 103.5 38t40.5 99v0q0 57 -44.5 94.5t-114.5 37.5h-78v0v0v132v0v0h71q62 0 101.5 32.5t39.5 82.5v0q0 49 -35.5 80.5t-90.5 31.5q-31 0 -55.5 -10.5
t-42 -30.5t-29.5 -43.5l-12 -23.5v0l-127 67v0l17 33t53.5 68.5t86 55t114.5 19.5q117 0 192.5 -65.5t75.5 -167.5v0q0 -63 -34 -113.5t-96 -72.5v-6q75 -26 117.5 -83t42.5 -126v0q0 -111 -86 -187.5t-210 -76.5z" />
    <glyph glyph-name="foursubscript" unicode="&#x2084;" horiz-adv-x="707" 
d="M422 -409v0v0v237v33v525l56 -157h-60l-221 -323h287h35h158v0v0v-126v0v0h-657v0v0v108v0v0l397 562v0v0h153v0v0v-859v0v0h-148z" />
    <glyph glyph-name="fivesubscript" unicode="&#x2085;" horiz-adv-x="754" 
d="M382 -428q-73 0 -129 24t-98.5 67.5t-61 88l-18.5 44.5v0l134 55v0l14 -35t36.5 -59t55 -37t67.5 -13q68 0 111.5 41.5t43.5 110.5v0q0 69 -46.5 110.5t-113.5 41.5q-40 0 -62.5 -7.5t-80.5 -47.5v0v0l-131 52h0.5t-0.5 0l62 442v0v0h465v0v0v-136v0v0h-351l-31 -223
l6 -1q23 22 66.5 37.5t83.5 15.5q125 0 205 -78.5t80 -205.5v0q0 -128 -86 -207.5t-221 -79.5z" />
    <glyph glyph-name="sixsubscript" unicode="&#x2086;" horiz-adv-x="758" 
d="M390 -428q-136 0 -223 82t-87 207v0q0 94 51.5 178t117.5 173l191 257v0v0l111 -81v0v0l-141 -177q-20 -25 -45.5 -53t-50.5 -44l4 -6q21 13 51 20t64 7q114 0 189.5 -78.5t75.5 -197.5v0q0 -120 -88.5 -203.5t-219.5 -83.5zM389 -295q69 0 113.5 42.5t44.5 107.5v0
q0 64 -44 109t-113 45q-71 0 -116 -45t-45 -109v0q0 -65 44.5 -107.5t115.5 -42.5z" />
    <glyph glyph-name="sevensubscript" unicode="&#x2087;" horiz-adv-x="644" 
d="M64 -361v0v0l382 660l-2 6h-399v0v0v145v0v0h579v0v0v-115v0v0l-426 -763v0v0z" />
    <glyph glyph-name="eightsubscript" unicode="&#x2088;" horiz-adv-x="764" 
d="M381 -428q-142 0 -226.5 74t-84.5 178v0q0 82 43 136.5t116 82.5v6q-58 22 -93 72t-35 115v0q0 101 78.5 167t200.5 66q124 0 203 -66t79 -167v0q0 -68 -35 -118t-94 -69v-6q73 -28 117 -82.5t44 -136.5v0q0 -104 -85 -178t-228 -74zM381 -295q71 0 116 38t45 98v0
q0 60 -45 98.5t-116 38.5q-70 0 -114.5 -38.5t-44.5 -98.5v0q0 -60 44.5 -98t114.5 -38zM382 107q59 0 96.5 31.5t37.5 81.5v0q0 51 -38 83.5t-97 32.5t-96.5 -32.5t-37.5 -83.5v0q0 -50 38 -81.5t97 -31.5z" />
    <glyph glyph-name="ninesubscript" unicode="&#x2089;" horiz-adv-x="758" 
d="M368 469q136 0 223 -82t87 -207v0q0 -94 -51.5 -178t-117.5 -173l-191 -257v0v0l-111 81v0v0l141 177q20 25 45.5 53t50.5 44l-4 6q-21 -13 -51 -20t-64 -7q-114 0 -189.5 78.5t-75.5 197.5v0q0 120 88.5 203.5t219.5 83.5zM369 336q-69 0 -113.5 -42.5t-44.5 -107.5v0
q0 -64 44 -109t113 -45q71 0 116 45t45 109v0q0 65 -44.5 107.5t-115.5 42.5z" />
    <glyph glyph-name="uni20A9" unicode="&#x20a9;" horiz-adv-x="1963" 
d="M468 0v0v0l-372 1432v0v0h181v0v0l252 -1052l24 -98h6l30 98l313 1052v0v0h174v0v0l299 -1052l30 -98h6l24 98l247 1052v0v0h190v0v0l-372 -1432v0v0h-176v0v0l-300 1036l-32 112h-6l-34 -112l-308 -1036v0v0h-176zM52 700v0v0v136v0v0h1859v0v0v-136v0v0h-1859z" />
    <glyph glyph-name="Euro" unicode="&#x20ac;" horiz-adv-x="1200" 
d="M743 -32q-261 0 -407.5 203.5t-146.5 551.5v0q0 341 141.5 541t409.5 200q83 0 161.5 -25t142 -74.5t93.5 -89l30 -39.5v0l-139 -95v0l-18.5 27t-62 62.5t-97 53.5t-114.5 18q-182 0 -278.5 -149.5t-96.5 -427.5v0q0 -286 96.5 -440.5t285.5 -154.5q59 0 110 17.5
t93 52.5t62 63l20 28v0l139 -95v0l-30.5 -39.5t-93 -89.5t-138 -74.5t-162.5 -24.5zM92 810v0v0v136v0v0h922v0v0v-136v0v0h-922zM92 494v0v0v136v0v0h922v0v0v-136v0v0h-922z" />
    <glyph glyph-name="uni20B9" unicode="&#x20b9;" horiz-adv-x="1180" 
d="M812 0v0v0l-564 623v0v0v130v0v0h253q133 0 218.5 77.5t85.5 199.5v0q0 112 -79.5 189t-211.5 77h-341v136h359q173 0 308.5 -116t135.5 -293v0q0 -185 -136 -302.5t-346 -117.5h-90l50 30l585 -633v0v0h-227zM85 1296v0v0v136v0v0h1010v0v0v-136v0v0h-1010zM85 968v0v0
v136v0v0h1010v0v0v-136v0v0h-1010z" />
    <glyph glyph-name="trademark" unicode="&#x2122;" horiz-adv-x="1219" 
d="M21 1332v0v0v100v0v0h438v0v0v-100v0v0h-438zM186 930v0v0v440h110v-440v0v0h-110zM534 930v0v0v502v0v0h153v0v0l154 -343h4l167 343v0v0h142v0v0v-502v0v0h-110v0v0v242l4 80h-4l-161 -322v0v0h-84v0v0l-155 322h-4l6 -80v-242v0v0h-112z" />
    <glyph glyph-name="minus" unicode="&#x2212;" horiz-adv-x="1116" 
d="M123 543v0v0v154v0v0h870v0v0v-154v0v0h-870z" />
    <glyph glyph-name="radical" unicode="&#x221a;" horiz-adv-x="1306" 
d="M385 -100v0v0l-355 1076v0v0h186v0v0l213 -683l40 -129h6l40 129l431 1335v0v0h390v0v0v-154v0v0h-254l-521 -1574v0v0h-176z" />
    <glyph glyph-name="approxequal" unicode="&#x2248;" horiz-adv-x="1116" 
d="M767 677q-37 0 -84 12.5t-146 56.5q-84 37 -121.5 49.5t-62.5 12.5q-27 0 -46 -11t-30 -33.5t-13.5 -41l-2.5 -18.5v0h-167v0l5.5 42t38 100t85 88t124.5 30q36 0 82.5 -10.5t153.5 -57.5q84 -38 120 -50.5t60 -12.5q26 0 44 11t29.5 34t15 42l3.5 19v0h167v0l-6.5 -44.5
t-38 -102.5t-84 -86.5t-126.5 -28.5zM767 297q-37 0 -84 12.5t-146 56.5q-84 37 -121.5 49.5t-62.5 12.5q-27 0 -46 -11t-30 -33.5t-13.5 -41l-2.5 -18.5v0h-167v0l5.5 42t38 100t85 88t124.5 30q36 0 82.5 -10.5t153.5 -57.5q84 -38 120 -50.5t60 -12.5q26 0 44 11t29.5 34
t15 42l3.5 19v0h167v0l-6.5 -44.5t-38 -102.5t-84 -86.5t-126.5 -28.5z" />
    <glyph glyph-name="notequal" unicode="&#x2260;" horiz-adv-x="1116" 
d="M123 733v0v0v154v0v0h870v0v0v-154v0v0h-870zM123 353v0v0v154v0v0h870v0v0v-154v0v0h-870zM219 197v0v0l543 928v0v0l136 -81v0v0l-544 -928v0v0z" />
    <glyph glyph-name="lessequal" unicode="&#x2264;" horiz-adv-x="1116" 
d="M981 190l-846 368v0v0v124v0v0l846 369v0v0v-155v0v0l-664 -272v-8l664 -268v0v0v-158v0v0zM135 0v0v0v140v0v0h846v0v0v-140v0v0h-846z" />
    <glyph glyph-name="greaterequal" unicode="&#x2265;" horiz-adv-x="1116" 
d="M135 1048l846 -368v0v0v-124v0v0l-846 -369v0v0v155v0v0l664 272v8l-664 268v0v0v158v0v0zM135 0v0v0v140v0v0h846v0v0v-140v0v0h-846z" />
    <glyph glyph-name="uni25CC" unicode="&#x25cc;" horiz-adv-x="1200" 
d="M549 889q-21 21 -21 51t21 51t51 21t51 -21t21 -51t-21 -51t-51 -21t-51 21zM228 223q-30 0 -51 21t-21 51t21 51t51 21q29 0 50 -21t21 -51t-21 -51t-50 -21zM334 87q-21 21 -21 51q0 29 21 50t51 21t51 -21t21 -50q0 -30 -21 -51t-51 -21t-51 21zM119 459
q-21 21 -21 51t21 51t51 21t51 -21t21 -51t-21 -51t-51 -21t-51 21zM549 29q-21 21 -21 51t21 51t51 21t51 -21t21 -51t-21 -51t-51 -21t-51 21zM228 653q-30 0 -51 21t-21 51t21 51t51 21q29 0 50 -21t21 -51t-21 -51t-50 -21zM764 87q-21 21 -21 51q0 29 21 50t51 21
t51 -21t21 -50q0 -30 -21 -51t-51 -21t-51 21zM334 832q-21 21 -21 50q0 30 21 51t51 21t51 -21t21 -51q0 -29 -21 -50t-51 -21t-51 21zM972 223q-29 0 -50 21t-21 51t21 51t50 21q30 0 51 -21t21 -51t-21 -51t-51 -21zM979 459q-21 21 -21 51t21 51t51 21t51 -21t21 -51
t-21 -51t-51 -21t-51 21zM972 653q-29 0 -50 21t-21 51t21 51t50 21q30 0 51 -21t21 -51t-21 -51t-51 -21zM764 832q-21 21 -21 50q0 30 21 51t51 21t51 -21t21 -51q0 -29 -21 -50t-51 -21t-51 21z" />
    <glyph glyph-name="G.logo" unicode="&#xe000;" horiz-adv-x="1722" 
d="M920 -32q-343 0 -587.5 245.5t-244.5 574.5q0 331 246 575.5t586 244.5q188 0 325 -65t237 -161l-158 -158q-72 68 -171 114t-233 46q-253 0 -420.5 -179.5t-167.5 -416.5q0 -245 168 -420.5t420 -175.5q245 0 382.5 137t153.5 309h-536v224h754q5 -40 8.5 -74.5
t3.5 -65.5q0 -336 -214 -545t-552 -209z" />
    <glyph glyph-name="o.logo" unicode="&#xe001;" horiz-adv-x="1156" 
d="M205 114.5q-161 146.5 -161 381.5t160.5 381.5t369.5 146.5t369.5 -146.5t160.5 -381.5t-161 -381.5t-369 -146.5t-369 146.5zM784.5 265q87.5 89 87.5 231t-87 231t-211 89t-211 -89t-87 -231t87.5 -231t210.5 -89t210.5 89z" />
    <glyph glyph-name="g.logo" unicode="&#xe002;" horiz-adv-x="1132" 
d="M554 -506q-179 0 -301.5 100t-166.5 212l202 84q26 -67 94.5 -127.5t171.5 -60.5q130 0 206 79t76 231v76h-8q-38 -48 -111 -84t-167 -36q-193 0 -349.5 150t-156.5 376t154.5 378t351.5 152q94 0 167 -36t111 -82h8v86h220v-948q0 -260 -132 -405t-370 -145zM570 176
q123 0 202.5 93t79.5 225t-80 227t-202 95t-208 -93t-86 -229t85.5 -227t208.5 -91z" />
    <glyph glyph-name="l.logo" unicode="&#xe003;" horiz-adv-x="374" 
d="M84 0v1552h232v-1552h-232z" />
    <glyph glyph-name="e.logo" unicode="&#xe004;" horiz-adv-x="1028" 
d="M578 -32q-217 0 -370.5 151t-153.5 377t143 377t355 151q183 0 294 -109.5t154 -216.5l28 -70l-786 -326l-42 174l556 232q-20 50 -73 81t-123 31q-108 0 -193 -83.5t-85 -238.5q0 -161 91 -241.5t205 -80.5q88 0 152 40t108 106l180 -120q-28 -42 -86 -97t-145 -96
t-209 -41z" />
    <glyph glyph-name="Gsuper" unicode="&#xe005;" horiz-adv-x="2000" 
d="M408.5 167.5q-242.5 249.5 -242.5 582.5t244.5 582.5t587.5 249.5q168 0 308 -58t248 -158l-238 -240q-113 124 -318 124q-202 0 -347 -146.5t-145 -353.5t147.5 -354.5t344.5 -147.5q186 0 304 94t144 238h-448v322h784q8 -42 11 -84t3 -88q0 -366 -225.5 -589
t-572.5 -223t-589.5 249.5z" />
    <glyph glyph-name="Google.logo" unicode="&#xe006;" horiz-adv-x="6568" 
d="M920 -32q-343 0 -587.5 245.5t-244.5 574.5q0 331 246 575.5t586 244.5q188 0 325 -65t237 -161l-158 -158q-72 68 -171 114t-233 46q-253 0 -420.5 -179.5t-167.5 -416.5q0 -245 168 -420.5t420 -175.5q245 0 382.5 137t153.5 309h-536v224h754q5 -40 8.5 -74.5
t3.5 -65.5q0 -336 -214 -545t-552 -209zM1927 114.5q-161 146.5 -161 381.5t160.5 381.5t369.5 146.5t369.5 -146.5t160.5 -381.5t-161 -381.5t-369 -146.5t-369 146.5zM2506.5 265q87.5 89 87.5 231t-87 231t-211 89t-211 -89t-87 -231t87.5 -231t210.5 -89t210.5 89z
M3083 114.5q-161 146.5 -161 381.5t160.5 381.5t369.5 146.5t369.5 -146.5t160.5 -381.5t-161 -381.5t-369 -146.5t-369 146.5zM3662.5 265q87.5 89 87.5 231t-87 231t-211 89t-211 -89t-87 -231t87.5 -231t210.5 -89t210.5 89zM4588 -506q-179 0 -301.5 100t-166.5 212
l202 84q26 -67 94.5 -127.5t171.5 -60.5q130 0 206 79t76 231v76h-8q-38 -48 -111 -84t-167 -36q-193 0 -349.5 150t-156.5 376t154.5 378t351.5 152q94 0 167 -36t111 -82h8v86h220v-948q0 -260 -132 -405t-370 -145zM4604 176q123 0 202.5 93t79.5 225t-80 227t-202 95
t-208 -93t-86 -229t85.5 -227t208.5 -91zM5250 0v1552h232v-1552h-232zM6118 -32q-217 0 -370.5 151t-153.5 377t143 377t355 151q183 0 294 -109.5t154 -216.5l28 -70l-786 -326l-42 174l556 232q-20 50 -73 81t-123 31q-108 0 -193 -83.5t-85 -238.5q0 -161 91 -241.5
t205 -80.5q88 0 152 40t108 106l180 -120q-28 -42 -86 -97t-145 -96t-209 -41z" />
    <glyph glyph-name="u1D6E1" unicode="&#x1d6e1;" horiz-adv-x="1390" 
d="M270 0v0v0v944h170v-944v0v0h-170zM50 866v0v0v154v0v0h1290v0v0v-154v0v0h-1290zM1158 -32q-112 0 -180 77t-68 212v687h170l-2 -651q0 -86 23 -126t82 -40q24 0 46 5t37 11.5l15 6.5v0v-163v0l-15.5 -5t-46 -9.5t-61.5 -4.5z" />
    <glyph glyph-name="G.super" horiz-adv-x="2000" 
d="M408.5 167.5q-242.5 249.5 -242.5 582.5t244.5 582.5t587.5 249.5q168 0 308 -58t248 -158l-238 -240q-113 124 -318 124q-202 0 -347 -146.5t-145 -353.5t147.5 -354.5t344.5 -147.5q186 0 304 94t144 238h-448v322h784q8 -42 11 -84t3 -88q0 -366 -225.5 -589
t-572.5 -223t-589.5 249.5z" />
    <glyph glyph-name="zero.denominator" horiz-adv-x="859" 
d="M428 -19q-158 0 -255.5 122.5t-97.5 326.5v0q0 204 99 326t256 122t255.5 -121.5t98.5 -325.5v0q0 -205 -100 -327.5t-256 -122.5zM430 116q92 0 147 86.5t55 232.5v0q0 141 -55 224.5t-148 83.5q-92 0 -147 -83.5t-55 -224.5v0q0 -146 55 -232.5t148 -86.5z" />
    <glyph glyph-name="one.denominator" horiz-adv-x="501" 
d="M231 0v0v0v646l-106 -78v0v0l-85 117v0v0l235 174v0v0h106v0v0v-859v0v0h-150z" />
    <glyph glyph-name="two.denominator" horiz-adv-x="684" 
d="M62 0v0v0v117v0v0l301 314q53 55 77 100.5t24 91.5v0q0 51 -35.5 85.5t-90.5 34.5q-29 0 -53.5 -11.5t-43 -31.5t-29.5 -41l-11 -21v0l-141 52v0l17.5 37t54.5 73.5t91 57t122 20.5q125 0 198 -69.5t73 -175.5v0q0 -74 -31 -140.5t-104 -140.5l-205 -208l2 -6h346v0v0
v-138v0v0h-562z" />
    <glyph glyph-name="three.denominator" horiz-adv-x="719" 
d="M353 -20q-70 0 -123 22.5t-94 65.5t-58.5 84l-17.5 41v0l134 61v0l11.5 -29.5t31.5 -56t48 -40t68 -13.5q63 0 103.5 38t40.5 99v0q0 57 -44.5 94.5t-114.5 37.5h-78v0v0v132v0v0h71q62 0 101.5 32.5t39.5 82.5v0q0 49 -35.5 80.5t-90.5 31.5q-31 0 -55.5 -10.5
t-42 -30.5t-29.5 -43.5l-12 -23.5v0l-127 67v0l17 33t53.5 68.5t86 55t114.5 19.5q117 0 192.5 -65.5t75.5 -167.5v0q0 -63 -34 -113.5t-96 -72.5v-6q75 -26 117.5 -83t42.5 -126v0q0 -111 -86 -187.5t-210 -76.5z" />
    <glyph glyph-name="four.denominator" horiz-adv-x="707" 
d="M422 0v0v0v237v33v525l56 -157h-60l-221 -323h287h35h158v0v0v-126v0v0h-657v0v0v108v0v0l397 562v0v0h153v0v0v-859v0v0h-148z" />
    <glyph glyph-name="five.denominator" horiz-adv-x="754" 
d="M382 -19q-73 0 -129 24t-98.5 67.5t-61 88l-18.5 44.5v0l134 55v0l14 -35t36.5 -59t55 -37t67.5 -13q68 0 111.5 41.5t43.5 110.5v0q0 69 -46.5 110.5t-113.5 41.5q-40 0 -62.5 -7.5t-80.5 -47.5v0v0l-131 52h0.5t-0.5 0l62 442v0v0h465v0v0v-136v0v0h-351l-31 -223l6 -1
q23 22 66.5 37.5t83.5 15.5q125 0 205 -78.5t80 -205.5v0q0 -128 -86 -207.5t-221 -79.5z" />
    <glyph glyph-name="six.denominator" horiz-adv-x="758" 
d="M390 -19q-136 0 -223 82t-87 207v0q0 94 51.5 178t117.5 173l191 257v0v0l111 -81v0v0l-141 -177q-20 -25 -45.5 -53t-50.5 -44l4 -6q21 13 51 20t64 7q114 0 189.5 -78.5t75.5 -197.5v0q0 -120 -88.5 -203.5t-219.5 -83.5zM389 114q69 0 113.5 42.5t44.5 107.5v0
q0 64 -44 109t-113 45q-71 0 -116 -45t-45 -109v0q0 -65 44.5 -107.5t115.5 -42.5z" />
    <glyph glyph-name="seven.denominator" horiz-adv-x="644" 
d="M64 48v0v0l382 660l-2 6h-399v0v0v145v0v0h579v0v0v-115v0v0l-426 -763v0v0z" />
    <glyph glyph-name="eight.denominator" horiz-adv-x="764" 
d="M381 -19q-142 0 -226.5 74t-84.5 178v0q0 82 43 136.5t116 82.5v6q-58 22 -93 72t-35 115v0q0 101 78.5 167t200.5 66q124 0 203 -66t79 -167v0q0 -68 -35 -118t-94 -69v-6q73 -28 117 -82.5t44 -136.5v0q0 -104 -85 -178t-228 -74zM381 114q71 0 116 38t45 98v0
q0 60 -45 98.5t-116 38.5q-70 0 -114.5 -38.5t-44.5 -98.5v0q0 -60 44.5 -98t114.5 -38zM382 516q59 0 96.5 31.5t37.5 81.5v0q0 51 -38 83.5t-97 32.5t-96.5 -32.5t-37.5 -83.5v0q0 -50 38 -81.5t97 -31.5z" />
    <glyph glyph-name="nine.denominator" horiz-adv-x="758" 
d="M368 878q136 0 223 -82t87 -207v0q0 -94 -51.5 -178t-117.5 -173l-191 -257v0v0l-111 81v0v0l141 177q20 25 45.5 53t50.5 44l-4 6q-21 -13 -51 -20t-64 -7q-114 0 -189.5 78.5t-75.5 197.5v0q0 120 88.5 203.5t219.5 83.5zM369 745q-69 0 -113.5 -42.5t-44.5 -107.5v0
q0 -64 44 -109t113 -45q71 0 116 45t45 109v0q0 65 -44.5 107.5t-115.5 42.5z" />
    <glyph glyph-name="zero.numerator" horiz-adv-x="859" 
d="M428 554q-158 0 -255.5 122.5t-97.5 326.5v0q0 204 99 326t256 122t255.5 -121.5t98.5 -325.5v0q0 -205 -100 -327.5t-256 -122.5zM430 689q92 0 147 86.5t55 232.5v0q0 141 -55 224.5t-148 83.5q-92 0 -147 -83.5t-55 -224.5v0q0 -146 55 -232.5t148 -86.5z" />
    <glyph glyph-name="one.numerator" horiz-adv-x="501" 
d="M231 573v0v0v646l-106 -78v0v0l-85 117v0v0l235 174v0v0h106v0v0v-859v0v0h-150z" />
    <glyph glyph-name="two.numerator" horiz-adv-x="684" 
d="M62 573v0v0v117v0v0l301 314q53 55 77 100.5t24 91.5v0q0 51 -35.5 85.5t-90.5 34.5q-29 0 -53.5 -11.5t-43 -31.5t-29.5 -41l-11 -21v0l-141 52v0l17.5 37t54.5 73.5t91 57t122 20.5q125 0 198 -69.5t73 -175.5v0q0 -74 -31 -140.5t-104 -140.5l-205 -208l2 -6h346v0v0
v-138v0v0h-562z" />
    <glyph glyph-name="three.numerator" horiz-adv-x="719" 
d="M353 553q-70 0 -123 22.5t-94 65.5t-58.5 84l-17.5 41v0l134 61v0l11.5 -29.5t31.5 -56t48 -40t68 -13.5q63 0 103.5 38t40.5 99v0q0 57 -44.5 94.5t-114.5 37.5h-78v0v0v132v0v0h71q62 0 101.5 32.5t39.5 82.5v0q0 49 -35.5 80.5t-90.5 31.5q-31 0 -55.5 -10.5
t-42 -30.5t-29.5 -43.5l-12 -23.5v0l-127 67v0l17 33t53.5 68.5t86 55t114.5 19.5q117 0 192.5 -65.5t75.5 -167.5v0q0 -63 -34 -113.5t-96 -72.5v-6q75 -26 117.5 -83t42.5 -126v0q0 -111 -86 -187.5t-210 -76.5z" />
    <glyph glyph-name="four.numerator" horiz-adv-x="707" 
d="M422 573v0v0v237v33v525l56 -157h-60l-221 -323h287h35h158v0v0v-126v0v0h-657v0v0v108v0v0l397 562v0v0h153v0v0v-859v0v0h-148z" />
    <glyph glyph-name="five.numerator" horiz-adv-x="754" 
d="M382 554q-73 0 -129 24t-98.5 67.5t-61 88l-18.5 44.5v0l134 55v0l14 -35t36.5 -59t55 -37t67.5 -13q68 0 111.5 41.5t43.5 110.5v0q0 69 -46.5 110.5t-113.5 41.5q-40 0 -62.5 -7.5t-80.5 -47.5v0v0l-131 52h0.5t-0.5 0l62 442v0v0h465v0v0v-136v0v0h-351l-31 -223l6 -1
q23 22 66.5 37.5t83.5 15.5q125 0 205 -78.5t80 -205.5v0q0 -128 -86 -207.5t-221 -79.5z" />
    <glyph glyph-name="six.numerator" horiz-adv-x="758" 
d="M390 554q-136 0 -223 82t-87 207v0q0 94 51.5 178t117.5 173l191 257v0v0l111 -81v0v0l-141 -177q-20 -25 -45.5 -53t-50.5 -44l4 -6q21 13 51 20t64 7q114 0 189.5 -78.5t75.5 -197.5v0q0 -120 -88.5 -203.5t-219.5 -83.5zM389 687q69 0 113.5 42.5t44.5 107.5v0
q0 64 -44 109t-113 45q-71 0 -116 -45t-45 -109v0q0 -65 44.5 -107.5t115.5 -42.5z" />
    <glyph glyph-name="seven.numerator" horiz-adv-x="644" 
d="M64 621v0v0l382 660l-2 6h-399v0v0v145v0v0h579v0v0v-115v0v0l-426 -763v0v0z" />
    <glyph glyph-name="eight.numerator" horiz-adv-x="764" 
d="M381 554q-142 0 -226.5 74t-84.5 178v0q0 82 43 136.5t116 82.5v6q-58 22 -93 72t-35 115v0q0 101 78.5 167t200.5 66q124 0 203 -66t79 -167v0q0 -68 -35 -118t-94 -69v-6q73 -28 117 -82.5t44 -136.5v0q0 -104 -85 -178t-228 -74zM381 687q71 0 116 38t45 98v0
q0 60 -45 98.5t-116 38.5q-70 0 -114.5 -38.5t-44.5 -98.5v0q0 -60 44.5 -98t114.5 -38zM382 1089q59 0 96.5 31.5t37.5 81.5v0q0 51 -38 83.5t-97 32.5t-96.5 -32.5t-37.5 -83.5v0q0 -50 38 -81.5t97 -31.5z" />
    <glyph glyph-name="nine.numerator" horiz-adv-x="758" 
d="M368 1451q136 0 223 -82t87 -207v0q0 -94 -51.5 -178t-117.5 -173l-191 -257v0v0l-111 81v0v0l141 177q20 25 45.5 53t50.5 44l-4 6q-21 -13 -51 -20t-64 -7q-114 0 -189.5 78.5t-75.5 197.5v0q0 120 88.5 203.5t219.5 83.5zM369 1318q-69 0 -113.5 -42.5t-44.5 -107.5v0
q0 -64 44 -109t113 -45q71 0 116 45t45 109v0q0 65 -44.5 107.5t-115.5 42.5z" />
    <glyph glyph-name="zero.tf" horiz-adv-x="1290" 
d="M643 -32q-248 0 -395.5 208.5t-147.5 540.5v0q0 331 147.5 539t395.5 208q250 0 398.5 -208t148.5 -539v0q0 -332 -148.5 -540.5t-398.5 -208.5zM644 130q178 0 276 158.5t98 428.5v0q0 270 -98 427.5t-276 157.5q-177 0 -274.5 -157.5t-97.5 -427.5v0
q0 -270 97.5 -428.5t274.5 -158.5z" />
    <glyph glyph-name="one.tf" horiz-adv-x="1290" 
d="M713 0v0v0v1195l-469 -342v0v0l-95 140v0v0l626 439v0v0h108v0v0v-1432v0v0h-170z" />
    <glyph glyph-name="two.tf" horiz-adv-x="1290" 
d="M169 0v0v0v170v0v0l545 542q106 105 150 188.5t44 163.5v0q0 108 -79 173t-202 65q-71 0 -124.5 -21.5t-90.5 -60t-59.5 -79l-22.5 -40.5v0l-161 64v0l31.5 58t92 115.5t146 91.5t193.5 34q195 0 321.5 -112t126.5 -286v0q0 -113 -60.5 -226.5t-188.5 -237.5l-447 -434
l3 -6h735v0v0v-162v0v0h-953z" />
    </font>
</defs>
</svg>
